<svg xmlns="http://www.w3.org/2000/svg" viewBox="0 0 804.08 539.71"><defs><style>.cls-1{opacity:0.05;}.cls-2{fill:#333;}.cls-3{fill:#fff;}</style></defs><title>angebot_1</title><g id="Ebene_2" data-name="Ebene 2"><g id="Ebene_3" data-name="Ebene 3"><g class="cls-1"><rect width="390.82" height="539.71"/></g><g class="cls-1"><rect x="413.26" width="390.82" height="539.71"/></g><polygon class="cls-2" points="744.73 457.57 738.04 457.57 738.04 456.64 743.8 456.64 743.8 450.88 744.73 450.88 744.73 457.57"/><path class="cls-2" d="M725.72,457.58H713.4v-.94h12.32Zm-24.65,0H688.75v-.94h12.32Zm-24.64,0H664.11v-.94h12.32Zm-24.64,0H639.47v-.94h12.32Zm-24.64,0H614.83v-.94h12.32Zm-24.64,0H590.19v-.94h12.32Zm-24.64,0H565.55v-.94h12.32Zm-24.65,0H540.9v-.94h12.32Zm-24.64,0H516.26v-.94h12.32Zm-24.64,0H491.62v-.94h12.32Z"/><polygon class="cls-2" points="479.3 457.57 472.6 457.57 472.6 450.88 473.54 450.88 473.54 456.64 479.3 456.64 479.3 457.57"/><path class="cls-2" d="M473.54,438.39h-.94V425.91h.94Zm0-25h-.94V400.94h.94Zm0-25h-.94V376h.94Zm0-25h-.94V351h.94Zm0-25h-.94V326h.94Zm0-25h-.94V301.06h.94Zm0-25h-.94V276.1h.94Zm0-25h-.94V251.13h.94Zm0-25h-.94V226.16h.94Zm0-25h-.94V201.19h.94Zm0-25h-.94V176.22h.94Zm0-25h-.94V151.25h.94Zm0-25h-.94V126.28h.94Zm0-25h-.94V101.31h.94Z"/><polygon class="cls-2" points="473.54 88.83 472.6 88.83 472.6 82.13 479.3 82.13 479.3 83.06 473.54 83.06 473.54 88.83"/><path class="cls-2" d="M725.71,83.07H713.39v-.94h12.32Zm-24.64,0H688.75v-.94h12.32Zm-24.64,0H664.11v-.94h12.32Zm-24.64,0H639.47v-.94h12.32Zm-24.64,0H614.83v-.94h12.32Zm-24.64,0H590.19v-.94h12.32Zm-24.64,0H565.55v-.94h12.32Zm-24.65,0H540.9v-.94h12.32Zm-24.64,0H516.26v-.94h12.32Zm-24.64,0H491.62v-.94h12.32Z"/><polygon class="cls-2" points="744.73 88.83 743.8 88.83 743.8 83.06 738.04 83.06 738.04 82.13 744.73 82.13 744.73 88.83"/><path class="cls-2" d="M744.73,438.39h-.93V425.91h.93Zm0-25h-.93V400.94h.93Zm0-25h-.93V376h.93Zm0-25h-.93V351h.93Zm0-25h-.93V326h.93Zm0-25h-.93V301.06h.93Zm0-25h-.93V276.1h.93Zm0-25h-.93V251.13h.93Zm0-25h-.93V226.16h.93Zm0-25h-.93V201.19h.93Zm0-25h-.93V176.22h.93Zm0-25h-.93V151.25h.93Zm0-25h-.93V126.28h.93Zm0-25h-.93V101.31h.93Z"/><polygon class="cls-2" points="331.48 457.57 324.78 457.57 324.78 456.64 330.54 456.64 330.54 450.88 331.48 450.88 331.48 457.57"/><path class="cls-2" d="M312.46,457.58H300.14v-.94h12.32Zm-24.64,0H275.5v-.94h12.32Zm-24.65,0H250.85v-.94h12.32Zm-24.64,0H226.21v-.94h12.32Zm-24.64,0H201.57v-.94h12.32Zm-24.64,0H176.93v-.94h12.32Zm-24.64,0H152.29v-.94h12.32Zm-24.64,0H127.65v-.94H140Zm-24.64,0H103v-.94h12.33Zm-24.65,0H78.36v-.94H90.68Z"/><polygon class="cls-2" points="66.04 457.57 59.34 457.57 59.34 450.88 60.28 450.88 60.28 456.64 66.04 456.64 66.04 457.57"/><path class="cls-2" d="M60.28,438.39h-.94V425.91h.94Zm0-25h-.94V400.94h.94Zm0-25h-.94V376h.94Zm0-25h-.94V351h.94Zm0-25h-.94V326h.94Zm0-25h-.94V301.06h.94Zm0-25h-.94V276.1h.94Zm0-25h-.94V251.13h.94Zm0-25h-.94V226.16h.94Zm0-25h-.94V201.19h.94Zm0-25h-.94V176.22h.94Zm0-25h-.94V151.25h.94Zm0-25h-.94V126.28h.94Zm0-25h-.94V101.31h.94Z"/><polygon class="cls-2" points="60.28 88.83 59.34 88.83 59.34 82.13 66.04 82.13 66.04 83.06 60.28 83.06 60.28 88.83"/><path class="cls-2" d="M312.46,83.07H300.14v-.94h12.32Zm-24.64,0H275.5v-.94h12.32Zm-24.64,0H250.85v-.94h12.33Zm-24.65,0H226.21v-.94h12.32Zm-24.64,0H201.57v-.94h12.32Zm-24.64,0H176.93v-.94h12.32Zm-24.64,0H152.29v-.94h12.32Zm-24.64,0H127.65v-.94H140Zm-24.64,0H103v-.94h12.33Zm-24.65,0H78.36v-.94H90.68Z"/><polygon class="cls-2" points="331.48 88.83 330.54 88.83 330.54 83.06 324.78 83.06 324.78 82.13 331.48 82.13 331.48 88.83"/><path class="cls-2" d="M331.48,438.39h-.94V425.91h.94Zm0-25h-.94V400.94h.94Zm0-25h-.94V376h.94Zm0-25h-.94V351h.94Zm0-25h-.94V326h.94Zm0-25h-.94V301.06h.94Zm0-25h-.94V276.1h.94Zm0-25h-.94V251.13h.94Zm0-25h-.94V226.16h.94Zm0-25h-.94V201.19h.94Zm0-25h-.94V176.22h.94Zm0-25h-.94V151.25h.94Zm0-25h-.94V126.28h.94Zm0-25h-.94V101.31h.94Z"/><rect class="cls-2" x="124.08" y="383.98" width="142.66" height="28.53"/><path class="cls-3" d="M171.88,401.44a3.7,3.7,0,0,1-1.76.43,4.27,4.27,0,0,1-3.14-1.16,4.29,4.29,0,0,1,0-6,4.24,4.24,0,0,1,3-1.15,4.71,4.71,0,0,1,1.92.45v2.13a2.54,2.54,0,0,0-1.87-.85,2.23,2.23,0,0,0-1.63.62,2.58,2.58,0,0,0-.76,1.85,2.34,2.34,0,0,0,2.43,2.43,2.52,2.52,0,0,0,1.83-.82Z"/><path class="cls-3" d="M181.48,394.67a4.26,4.26,0,0,1,0,6,4.26,4.26,0,0,1-3.09,1.17,4.43,4.43,0,0,1-3.12-1.17,4.08,4.08,0,0,1-1.25-3,4.46,4.46,0,0,1,1.24-3,4.72,4.72,0,0,1,6.22,0Zm-4.86,1.23a2.46,2.46,0,0,0-.7,1.81,2.4,2.4,0,0,0,.73,1.8,2.35,2.35,0,0,0,1.71.66,2.42,2.42,0,0,0,1.78-.69,2.39,2.39,0,0,0,.69-1.78,2.52,2.52,0,0,0-.69-1.8,2.54,2.54,0,0,0-1.76-.69A2.5,2.5,0,0,0,176.62,395.9Z"/><path class="cls-3" d="M185.15,401.69v-8h1.6l4.34,5.16v-5.16h1.85v8h-1.61L187,396.51v5.18Z"/><path class="cls-3" d="M198.53,395.25v6.44h-1.84v-6.44H195v-1.56h5.32v1.56Z"/><path class="cls-3" d="M206.8,395.25h-2.67v1.55h2.54v1.56h-2.54v1.77h2.67v1.56h-4.52v-8h4.52Z"/><path class="cls-3" d="M209.34,401.69v-8h1.6l4.35,5.16v-5.16h1.84v8h-1.6l-4.35-5.18v5.18Z"/><path class="cls-3" d="M222.73,395.25v6.44h-1.85v-6.44h-1.74v-1.56h5.33v1.56Z"/><rect class="cls-2" x="124.08" y="298.39" width="142.66" height="28.53"/><path class="cls-3" d="M183.24,308.09l1.71,5.3,1.7-5.3h1.27l1.7,5.3,1.71-5.3h1.92l-2.73,8H189l-1.68-4.85-1.67,4.85h-1.56l-2.73-8Z"/><path class="cls-3" d="M199.73,309.65h-2.68v1.55h2.55v1.56h-2.55v1.77h2.68v1.56h-4.52v-8h4.52Z"/><path class="cls-3" d="M204.71,308.09a3,3,0,0,1,2,.62,2,2,0,0,1,.58,1.51,1.86,1.86,0,0,1-.27,1,1.44,1.44,0,0,1-.67.58,2.12,2.12,0,0,1,1.1.54,1.94,1.94,0,0,1,.52,1.43,2.2,2.2,0,0,1-.62,1.62,3,3,0,0,1-2.12.68h-3v-8Zm-.62,3.25h.3a1.7,1.7,0,0,0,.93-.22.85.85,0,0,0,.33-.71.81.81,0,0,0-.31-.67,1.52,1.52,0,0,0-1-.21h-.29Zm0,3.31h.44a2.05,2.05,0,0,0,1.37-.32.87.87,0,0,0,.26-.67.86.86,0,0,0-.25-.65,2.07,2.07,0,0,0-1.32-.3h-.5Z"/><rect class="cls-2" x="124.08" y="212.79" width="142.66" height="28.53"/><path class="cls-3" d="M174.09,222.5a4.19,4.19,0,0,1,3.15,1.1,4.19,4.19,0,0,1,.06,5.7,4.31,4.31,0,0,1-3.16,1.19h-2.59v-8Zm-.69,6.44h.49a2.92,2.92,0,0,0,1.83-.54,2.52,2.52,0,0,0,.78-1.93,2.37,2.37,0,0,0-.66-1.73,2.65,2.65,0,0,0-2-.69h-.49Z"/><path class="cls-3" d="M185.33,224.05h-2.68v1.55h2.55v1.56h-2.55v1.78h2.68v1.55h-4.52v-8h4.52Z"/><path class="cls-3" d="M192,224.45a2,2,0,0,0-1.34-.58,1,1,0,0,0-.78.28.72.72,0,0,0-.21.5.57.57,0,0,0,.18.45,3.15,3.15,0,0,0,1,.45l.6.23a3.13,3.13,0,0,1,1.09.61,2,2,0,0,1,.59,1.49,2.86,2.86,0,0,1-.71,2,3.11,3.11,0,0,1-2.27.81,3.4,3.4,0,0,1-1.58-.33,5.2,5.2,0,0,1-1.17-.88l.95-1.32a5.24,5.24,0,0,0,.75.62,1.85,1.85,0,0,0,1,.28,1.27,1.27,0,0,0,.84-.27.85.85,0,0,0,.28-.65.72.72,0,0,0-.27-.58,3.8,3.8,0,0,0-.94-.44l-.66-.23a2.7,2.7,0,0,1-1.11-.63,2,2,0,0,1-.48-1.39,2.45,2.45,0,0,1,.69-1.8,2.58,2.58,0,0,1,2-.74,3.88,3.88,0,0,1,2.38.8Z"/><path class="cls-3" d="M197.38,222.5v8h-1.85v-8Z"/><path class="cls-3" d="M204.05,226.13h4v.08a5.19,5.19,0,0,1-1.24,3.37,3.64,3.64,0,0,1-2.85,1.09,3.77,3.77,0,0,1-2.93-1.11,4.56,4.56,0,0,1,0-6.08,4.11,4.11,0,0,1,3.14-1.17,4,4,0,0,1,2.24.6,4.51,4.51,0,0,1,1.3,1.43l-1.67.9a2.41,2.41,0,0,0-.71-.86,2,2,0,0,0-1.22-.39,2.18,2.18,0,0,0-1.66.65,2.76,2.76,0,0,0-.68,1.9,2.52,2.52,0,0,0,.67,1.83A2.11,2.11,0,0,0,204,229a2,2,0,0,0,1.39-.44,1.85,1.85,0,0,0,.58-.94h-1.93Z"/><path class="cls-3" d="M210.43,230.49v-8H212l4.34,5.15V222.5h1.85v8h-1.61l-4.34-5.18v5.18Z"/><path class="cls-2" d="M144.32,33.14h-6l-1.23,3H133.2l6.46-16H143l6.32,16h-3.84Zm-1-2.84-2-5.37-2,5.37Z"/><path class="cls-2" d="M153.22,36.16v-16h3.22l8.68,10.32V20.15h3.7v16H165.6l-8.68-10.37V36.16Z"/><path class="cls-2" d="M182.09,27.42H190v.17a10.4,10.4,0,0,1-2.48,6.75,7.32,7.32,0,0,1-5.71,2.18A7.51,7.51,0,0,1,176,34.29a8.48,8.48,0,0,1-2.36-6.1A8.53,8.53,0,0,1,176,22.12a8.24,8.24,0,0,1,6.29-2.33,8.06,8.06,0,0,1,4.48,1.2,8.91,8.91,0,0,1,2.6,2.86L186,25.65a4.76,4.76,0,0,0-1.42-1.73,4,4,0,0,0-2.44-.77,4.33,4.33,0,0,0-3.32,1.3,5.49,5.49,0,0,0-1.36,3.79,5,5,0,0,0,1.34,3.67A4.22,4.22,0,0,0,182,33.16a4.11,4.11,0,0,0,2.78-.86A3.8,3.8,0,0,0,186,30.4h-3.87Z"/><path class="cls-2" d="M203.91,23.27h-5.36v3.1h5.09v3.12h-5.09V33h5.36v3.12h-9v-16h9Z"/><path class="cls-2" d="M213.87,20.15A6.05,6.05,0,0,1,218,21.38a4.12,4.12,0,0,1,1.15,3,3.8,3.8,0,0,1-.53,2,3,3,0,0,1-1.34,1.18,4.15,4.15,0,0,1,2.21,1.08,3.92,3.92,0,0,1,1,2.85,4.39,4.39,0,0,1-1.25,3.24A6,6,0,0,1,215,36.16h-6v-16Zm-1.25,6.51h.6a3.48,3.48,0,0,0,1.87-.46,1.69,1.69,0,0,0,.65-1.42,1.66,1.66,0,0,0-.62-1.34A3.07,3.07,0,0,0,213.2,23h-.58Zm0,6.62h.89a4,4,0,0,0,2.73-.65,1.75,1.75,0,0,0,.53-1.34,1.73,1.73,0,0,0-.5-1.3,4.15,4.15,0,0,0-2.64-.6h-1Z"/><path class="cls-2" d="M239.48,22.12a8.53,8.53,0,0,1,0,12.05,8.57,8.57,0,0,1-6.2,2.35A8.82,8.82,0,0,1,227,34.17a8.19,8.19,0,0,1-2.49-6A8.94,8.94,0,0,1,227,22.14a9.46,9.46,0,0,1,12.46,0Zm-9.73,2.45a4.92,4.92,0,0,0-1.41,3.62,4.78,4.78,0,0,0,1.46,3.6,4.71,4.71,0,0,0,3.44,1.32,4.84,4.84,0,0,0,3.55-1.37,4.79,4.79,0,0,0,1.39-3.57,5,5,0,0,0-1.39-3.6,5.14,5.14,0,0,0-3.53-1.37A4.92,4.92,0,0,0,229.75,24.57Z"/><path class="cls-2" d="M251.93,23.27V36.16h-3.7V23.27h-3.48V20.15h10.66v3.12Z"/><path class="cls-2" d="M554.31,20.15l4.06,10.25,4-10.25h4l-6.8,16h-2.49l-6.8-16Z"/><path class="cls-2" d="M579.37,23.27H574v3.1h5.09v3.12H574V33h5.36v3.12h-9v-16h9Z"/><path class="cls-2" d="M590,20.15a5.74,5.74,0,0,1,4.09,1.39,4.84,4.84,0,0,1,1.39,3.58,4.37,4.37,0,0,1-1.25,3.26A5.09,5.09,0,0,1,592,29.61L597,36.16h-4.52l-4.32-6.31v6.31h-3.69v-16Zm-1.92,7.27H589a3,3,0,0,0,2.21-.69,2.15,2.15,0,0,0,.6-1.56,2,2,0,0,0-.74-1.63,3.59,3.59,0,0,0-2-.51h-.87Z"/><path class="cls-2" d="M606.17,23.27V36.16h-3.69V23.27H599V20.15h10.65v3.12Z"/><path class="cls-2" d="M619.28,20.15a5.73,5.73,0,0,1,4.08,1.39,4.84,4.84,0,0,1,1.39,3.58,4.37,4.37,0,0,1-1.25,3.26,5,5,0,0,1-2.23,1.23l4.92,6.55h-4.51l-4.32-6.31v6.31h-3.7v-16Zm-1.92,7.27h.84a3,3,0,0,0,2.2-.69,2.15,2.15,0,0,0,.6-1.56,2,2,0,0,0-.74-1.63,3.59,3.59,0,0,0-2-.51h-.86Z"/><path class="cls-2" d="M640,33.14h-6l-1.23,3h-3.84l6.46-16h3.38l6.31,16h-3.84Zm-1-2.84-2-5.37-2,5.37Z"/><path class="cls-2" d="M656.09,27.42H664v.17a10.4,10.4,0,0,1-2.48,6.75,7.32,7.32,0,0,1-5.71,2.18A7.51,7.51,0,0,1,650,34.29a8.48,8.48,0,0,1-2.36-6.1A8.53,8.53,0,0,1,650,22.12a8.24,8.24,0,0,1,6.29-2.33,8.06,8.06,0,0,1,4.48,1.2,8.91,8.91,0,0,1,2.6,2.86L660,25.65a4.76,4.76,0,0,0-1.42-1.73,4,4,0,0,0-2.44-.77,4.33,4.33,0,0,0-3.32,1.3,5.49,5.49,0,0,0-1.36,3.79,5,5,0,0,0,1.34,3.67A4.22,4.22,0,0,0,656,33.16a4.11,4.11,0,0,0,2.78-.86A3.8,3.8,0,0,0,660,30.4h-3.87Z"/><polygon class="cls-2" points="267.37 156.34 259.27 156.34 259.27 155.1 266.12 155.1 266.12 148.25 267.37 148.25 267.37 156.34"/><path class="cls-2" d="M245.08,156.34H230.89V155.1h14.19Zm-28.38,0H202.51V155.1H216.7Zm-28.38,0H174.13V155.1h14.19Zm-28.38,0H145.75V155.1h14.19Z"/><polygon class="cls-2" points="131.56 156.34 123.46 156.34 123.46 148.25 124.7 148.25 124.7 155.1 131.56 155.1 131.56 156.34"/><polygon class="cls-2" points="124.7 134.67 123.46 134.67 123.46 126.57 131.56 126.57 131.56 127.81 124.7 127.81 124.7 134.67"/><path class="cls-2" d="M245.08,127.81H230.89v-1.24h14.19Zm-28.38,0H202.51v-1.24H216.7Zm-28.38,0H174.13v-1.24h14.19Zm-28.38,0H145.75v-1.24h14.19Z"/><polygon class="cls-2" points="267.37 134.67 266.12 134.67 266.12 127.81 259.27 127.81 259.27 126.57 267.37 126.57 267.37 134.67"/><rect class="cls-2" x="537.34" y="127.19" width="142.66" height="28.53"/><path class="cls-3" d="M576.43,136.9a3,3,0,0,1,2,.61A2.07,2.07,0,0,1,579,139a1.85,1.85,0,0,1-.26,1,1.47,1.47,0,0,1-.67.59,2.08,2.08,0,0,1,1.1.54,2,2,0,0,1,.52,1.42,2.15,2.15,0,0,1-.63,1.62,3,3,0,0,1-2.11.69h-3v-8Zm-.63,3.25h.3a1.72,1.72,0,0,0,.94-.23.84.84,0,0,0,.32-.71.79.79,0,0,0-.31-.67,1.55,1.55,0,0,0-1-.2h-.29Zm0,3.31h.45a2,2,0,0,0,1.37-.33.89.89,0,0,0,.26-.67.88.88,0,0,0-.25-.65,2.08,2.08,0,0,0-1.32-.3h-.51Z"/><path class="cls-3" d="M585,136.9a2.88,2.88,0,0,1,2,.69,2.45,2.45,0,0,1,.69,1.79,2.16,2.16,0,0,1-.62,1.63,2.58,2.58,0,0,1-1.12.61l2.46,3.28h-2.25L584,141.74v3.16h-1.85v-8Zm-1,3.63h.42a1.47,1.47,0,0,0,1.1-.35,1.07,1.07,0,0,0,.3-.78,1,1,0,0,0-.37-.81,1.79,1.79,0,0,0-1-.25H584Z"/><path class="cls-3" d="M595.29,143.38h-3l-.61,1.52h-1.92l3.22-8h1.7l3.15,8h-1.92Zm-.5-1.41-1-2.69-1,2.69Z"/><path class="cls-3" d="M599.75,144.9v-8h1.6l4.34,5.15V136.9h1.85v8h-1.61l-4.34-5.18v5.18Z"/><path class="cls-3" d="M612.86,136.9A4.18,4.18,0,0,1,616,138a4.16,4.16,0,0,1,.06,5.7,4.32,4.32,0,0,1-3.15,1.2h-2.59v-8Zm-.68,6.44h.49a2.91,2.91,0,0,0,1.82-.54,2.52,2.52,0,0,0,.78-1.93,2.37,2.37,0,0,0-.66-1.73,2.63,2.63,0,0,0-1.94-.68h-.49Z"/><path class="cls-3" d="M621.46,136.9v8h-1.84v-8Z"/><path class="cls-3" d="M624.29,144.9v-8h1.6l4.34,5.15V136.9h1.85v8h-1.61l-4.34-5.18v5.18Z"/><path class="cls-3" d="M638.72,140.53h4v.08a5.17,5.17,0,0,1-1.24,3.37,3.64,3.64,0,0,1-2.85,1.1,3.78,3.78,0,0,1-2.93-1.12,4.56,4.56,0,0,1,0-6.08,4.1,4.1,0,0,1,3.14-1.16,4,4,0,0,1,2.24.6,4.48,4.48,0,0,1,1.3,1.42l-1.67.9a2.31,2.31,0,0,0-.71-.86,2,2,0,0,0-1.22-.38,2.17,2.17,0,0,0-1.65.64,2.74,2.74,0,0,0-.69,1.9,2.52,2.52,0,0,0,.67,1.83,2.11,2.11,0,0,0,1.62.63,2.08,2.08,0,0,0,1.39-.43,1.9,1.9,0,0,0,.58-.95h-1.93Z"/><polygon class="cls-2" points="680.62 241.94 672.52 241.94 672.52 240.7 679.38 240.7 679.38 233.84 680.62 233.84 680.62 241.94"/><path class="cls-2" d="M658.33,241.94H644.14V240.7h14.19Zm-28.38,0H615.76V240.7H630Zm-28.38,0H587.38V240.7h14.19Zm-28.38,0H559V240.7h14.19Z"/><polygon class="cls-2" points="544.81 241.94 536.71 241.94 536.71 233.84 537.96 233.84 537.96 240.7 544.81 240.7 544.81 241.94"/><polygon class="cls-2" points="537.96 220.26 536.71 220.26 536.71 212.16 544.81 212.16 544.81 213.41 537.96 213.41 537.96 220.26"/><path class="cls-2" d="M658.33,213.41H644.14v-1.25h14.19Zm-28.38,0H615.76v-1.25H630Zm-28.38,0H587.38v-1.25h14.19Zm-28.38,0H559v-1.25h14.19Z"/><polygon class="cls-2" points="680.62 220.26 679.38 220.26 679.38 213.41 672.52 213.41 672.52 212.16 680.62 212.16 680.62 220.26"/><polygon class="cls-2" points="680.62 327.54 672.52 327.54 672.52 326.3 679.38 326.3 679.38 319.44 680.62 319.44 680.62 327.54"/><path class="cls-2" d="M658.33,327.54H644.14V326.3h14.19Zm-28.38,0H615.76V326.3H630Zm-28.38,0H587.38V326.3h14.19Zm-28.38,0H559V326.3h14.19Z"/><polygon class="cls-2" points="544.81 327.54 536.71 327.54 536.71 319.44 537.96 319.44 537.96 326.3 544.81 326.3 544.81 327.54"/><polygon class="cls-2" points="537.96 305.86 536.71 305.86 536.71 297.76 544.81 297.76 544.81 299.01 537.96 299.01 537.96 305.86"/><path class="cls-2" d="M658.33,299H644.14v-1.25h14.19ZM630,299H615.76v-1.25H630Zm-28.38,0H587.38v-1.25h14.19Zm-28.38,0H559v-1.25h14.19Z"/><polygon class="cls-2" points="680.62 305.86 679.38 305.86 679.38 299.01 672.52 299.01 672.52 297.76 680.62 297.76 680.62 305.86"/><polygon class="cls-2" points="680.62 413.14 672.52 413.14 672.52 411.89 679.38 411.89 679.38 405.04 680.62 405.04 680.62 413.14"/><path class="cls-2" d="M658.33,413.14H644.14v-1.25h14.19Zm-28.38,0H615.76v-1.25H630Zm-28.38,0H587.38v-1.25h14.19Zm-28.38,0H559v-1.25h14.19Z"/><polygon class="cls-2" points="544.81 413.14 536.71 413.14 536.71 405.04 537.96 405.04 537.96 411.89 544.81 411.89 544.81 413.14"/><polygon class="cls-2" points="537.96 391.46 536.71 391.46 536.71 383.36 544.81 383.36 544.81 384.61 537.96 384.61 537.96 391.46"/><path class="cls-2" d="M658.33,384.61H644.14v-1.25h14.19Zm-28.38,0H615.76v-1.25H630Zm-28.38,0H587.38v-1.25h14.19Zm-28.38,0H559v-1.25h14.19Z"/><polygon class="cls-2" points="680.62 391.46 679.38 391.46 679.38 384.61 672.52 384.61 672.52 383.36 680.62 383.36 680.62 391.46"/></g></g></svg>