<svg xmlns="http://www.w3.org/2000/svg" viewBox="0 0 804.08 539.71"><defs><style>.cls-1{opacity:0.05;}.cls-15,.cls-16,.cls-2,.cls-3,.cls-4{fill:none;stroke:#333;stroke-miterlimit:10;}.cls-2,.cls-3,.cls-4{stroke-width:0.93px;}.cls-3{stroke-dasharray:12.32 12.32;}.cls-4{stroke-dasharray:12.48 12.48;}.cls-11,.cls-5,.cls-8{fill:#333;}.cls-6,.cls-7{font-size:12px;fill:#fff;}.cls-11,.cls-6,.cls-7,.cls-8{font-family:FuturaPT-Heavy, Futura PT;font-weight:800;}.cls-10,.cls-11,.cls-6{letter-spacing:0.09em;}.cls-7{letter-spacing:0.09em;}.cls-11,.cls-8{font-size:24px;}.cls-13,.cls-8{letter-spacing:0.09em;}.cls-9{letter-spacing:0.07em;}.cls-12{letter-spacing:0.07em;}.cls-14{letter-spacing:0.1em;}.cls-15,.cls-16{stroke-width:1.25px;}.cls-16{stroke-dasharray:14.19 14.19;}.cls-17{letter-spacing:0.1em;}</style></defs><title>vertrag_1</title><g id="Ebene_2" data-name="Ebene 2"><g id="Ebene_3" data-name="Ebene 3"><rect class="cls-1" width="390.82" height="539.71"/><rect class="cls-1" x="413.26" width="390.82" height="539.71"/><polyline class="cls-2" points="744.27 450.88 744.27 457.11 738.04 457.11"/><line class="cls-3" x1="725.72" y1="457.11" x2="485.46" y2="457.11"/><polyline class="cls-2" points="479.3 457.11 473.07 457.11 473.07 450.88"/><line class="cls-4" x1="473.07" y1="438.39" x2="473.07" y2="95.07"/><polyline class="cls-2" points="473.07 88.83 473.07 82.6 479.3 82.6"/><line class="cls-3" x1="491.62" y1="82.6" x2="731.88" y2="82.6"/><polyline class="cls-2" points="738.04 82.6 744.27 82.6 744.27 88.83"/><line class="cls-4" x1="744.27" y1="101.31" x2="744.27" y2="444.64"/><polyline class="cls-2" points="331.01 450.88 331.01 457.11 324.78 457.11"/><line class="cls-3" x1="312.46" y1="457.11" x2="72.2" y2="457.11"/><polyline class="cls-2" points="66.04 457.11 59.81 457.11 59.81 450.88"/><line class="cls-4" x1="59.81" y1="438.39" x2="59.81" y2="95.07"/><polyline class="cls-2" points="59.81 88.83 59.81 82.6 66.04 82.6"/><line class="cls-3" x1="78.36" y1="82.6" x2="318.62" y2="82.6"/><polyline class="cls-2" points="324.78 82.6 331.01 82.6 331.01 88.83"/><line class="cls-4" x1="331.01" y1="101.31" x2="331.01" y2="444.64"/><rect class="cls-5" x="124.08" y="383.98" width="142.66" height="28.53"/><text class="cls-6" transform="translate(165.23 401.69)">CONTENT</text><rect class="cls-5" x="124.08" y="298.39" width="142.66" height="28.53"/><text class="cls-7" transform="translate(181.28 316.09)">WEB</text><rect class="cls-5" x="124.08" y="212.79" width="142.66" height="28.53"/><text class="cls-6" transform="translate(170.68 230.49)">DESIGN</text><text class="cls-8" transform="translate(133.16 36.16)">ANGEB<tspan class="cls-9" x="90.38" y="0">O</tspan><tspan class="cls-10" x="111.41" y="0">T</tspan></text><text class="cls-11" transform="translate(550.23 36.16)">VE<tspan class="cls-12" x="32.45" y="0">R</tspan><tspan class="cls-13" x="48.58" y="0">T</tspan><tspan class="cls-14" x="61.68" y="0">R</tspan><tspan class="cls-9" x="78.58" y="0">A</tspan><tspan class="cls-13" x="96.41" y="0">G</tspan></text><polyline class="cls-15" points="266.74 148.25 266.74 155.72 259.27 155.72"/><line class="cls-16" x1="245.08" y1="155.72" x2="138.65" y2="155.72"/><polyline class="cls-15" points="131.56 155.72 124.08 155.72 124.08 148.25"/><polyline class="cls-15" points="124.08 134.67 124.08 127.19 131.56 127.19"/><line class="cls-16" x1="145.75" y1="127.19" x2="252.17" y2="127.19"/><polyline class="cls-15" points="259.27 127.19 266.74 127.19 266.74 134.67"/><rect class="cls-5" x="537.34" y="127.19" width="142.66" height="28.53"/><text class="cls-6" transform="translate(573.11 144.9)">B<tspan class="cls-17" x="8.16" y="0">R</tspan><tspan x="16.61" y="0">ANDING</tspan></text><polyline class="cls-15" points="680 233.84 680 241.32 672.52 241.32"/><line class="cls-16" x1="658.33" y1="241.32" x2="551.91" y2="241.32"/><polyline class="cls-15" points="544.81 241.32 537.34 241.32 537.34 233.84"/><polyline class="cls-15" points="537.34 220.26 537.34 212.79 544.81 212.79"/><line class="cls-16" x1="559" y1="212.79" x2="665.43" y2="212.79"/><polyline class="cls-15" points="672.52 212.79 680 212.79 680 220.26"/><polyline class="cls-15" points="680 319.44 680 326.92 672.52 326.92"/><line class="cls-16" x1="658.33" y1="326.92" x2="551.91" y2="326.92"/><polyline class="cls-15" points="544.81 326.92 537.34 326.92 537.34 319.44"/><polyline class="cls-15" points="537.34 305.86 537.34 298.39 544.81 298.39"/><line class="cls-16" x1="559" y1="298.39" x2="665.43" y2="298.39"/><polyline class="cls-15" points="672.52 298.39 680 298.39 680 305.86"/><polyline class="cls-15" points="680 405.04 680 412.52 672.52 412.52"/><line class="cls-16" x1="658.33" y1="412.52" x2="551.91" y2="412.52"/><polyline class="cls-15" points="544.81 412.52 537.34 412.52 537.34 405.04"/><polyline class="cls-15" points="537.34 391.46 537.34 383.98 544.81 383.98"/><line class="cls-16" x1="559" y1="383.98" x2="665.43" y2="383.98"/><polyline class="cls-15" points="672.52 383.98 680 383.98 680 391.46"/></g></g></svg>