<svg xmlns="http://www.w3.org/2000/svg" viewBox="0 0 968.34 208.2"><defs><style>.cls-1{fill:#333;}.cls-2{fill:#fff;}</style></defs><title>brandingfirst</title><g id="Ebene_2" data-name="Ebene 2"><g id="Ebene_3" data-name="Ebene 3"><circle class="cls-1" cx="104.1" cy="104.1" r="104.1" transform="translate(-43.12 104.1) rotate(-45)"/><path class="cls-1" d="M864.24,0a104.1,104.1,0,0,0-104.1,104.08v-1.57H588.25a104.09,104.09,0,0,0-208.16,0H208.2v3.19H380.09a104.09,104.09,0,0,0,208.16,0H760.14v-1.58A104.1,104.1,0,1,0,864.24,0Z"/><path class="cls-2" d="M76.7,102.16h8.18v.15a10.83,10.83,0,0,1-2.94,8,9.28,9.28,0,0,1-6.76,2.53,8.64,8.64,0,0,1-6.75-2.7,10.41,10.41,0,0,1,7.41-17.89A10.74,10.74,0,0,1,81,93.53a9,9,0,0,1,3.22,3L81.82,98.2a8.27,8.27,0,0,0-2.44-2.26,6.72,6.72,0,0,0-3.51-.86,7.17,7.17,0,0,0-5.24,2,8.25,8.25,0,0,0-.06,11,6.44,6.44,0,0,0,5,2A6,6,0,0,0,80,108.32,5.33,5.33,0,0,0,81.64,105H76.7Z"/><path class="cls-2" d="M99.37,109.63a6.59,6.59,0,0,1-2.11,2.29,6.84,6.84,0,0,1-3.69,1,5.55,5.55,0,0,1-4.23-1.6,6.73,6.73,0,0,1-1.84-4.8,7.33,7.33,0,0,1,2-5.14,5.72,5.72,0,0,1,4.2-1.7,5.4,5.4,0,0,1,4,1.64,7.54,7.54,0,0,1,1.75,5.29v.36h-9a4.12,4.12,0,0,0,1.08,2.53,2.94,2.94,0,0,0,2.23.8,3,3,0,0,0,2-.62,4.49,4.49,0,0,0,1.16-1.37Zm-2.88-5.09a3.06,3.06,0,0,0-.9-1.7,3,3,0,0,0-4,.09,3.32,3.32,0,0,0-.9,1.61Z"/><path class="cls-2" d="M105.71,102.64v9.85h-2.92v-9.85h-1.25V100h1.25V95.61A5.55,5.55,0,0,1,104,91.69a3.92,3.92,0,0,1,3-1.22,4.77,4.77,0,0,1,1.87.35v2.89a2.48,2.48,0,0,0-1.39-.45,1.67,1.67,0,0,0-1.28.48,2.05,2.05,0,0,0-.48,1.49V100h3.15v2.68Z"/><path class="cls-2" d="M113.45,100v7.17a3.64,3.64,0,0,0,.53,2.26,2.54,2.54,0,0,0,3.81,0,3.58,3.58,0,0,0,.54-2.26V100h2.91v7.26a5.25,5.25,0,0,1-1.34,4.11,5.71,5.71,0,0,1-4.07,1.54,5.5,5.5,0,0,1-4-1.54,5.25,5.25,0,0,1-1.34-4.11V100Zm-.24-6.25a1.85,1.85,0,1,1-1.85,1.85A1.81,1.81,0,0,1,113.21,93.71Zm5.35,0a1.85,1.85,0,1,1-1.84,1.85A1.81,1.81,0,0,1,118.56,93.71Z"/><path class="cls-2" d="M124.93,90.79h2.92V101a4.5,4.5,0,0,1,3.36-1.4,4.26,4.26,0,0,1,3.69,1.7,6.19,6.19,0,0,1,.8,3.48v7.68h-2.91v-7.41a3,3,0,0,0-.57-2.18,2.23,2.23,0,0,0-1.64-.65,2.6,2.6,0,0,0-2.14,1,5.71,5.71,0,0,0-.59,3.16v6h-2.92Z"/><path class="cls-2" d="M142.31,90.79v21.7h-2.92V90.79Z"/><path class="cls-2" d="M452.48,97a3.06,3.06,0,0,0-3-2c-1.85,0-2.8,1.1-2.8,2.38,0,.59.21,1.64,2.14,2.41l2,.8c3.66,1.49,4.67,3.57,4.67,5.84a6.12,6.12,0,0,1-6.4,6.36,5.8,5.8,0,0,1-4.67-2,6.44,6.44,0,0,1-1.67-3.87l3-.65a4.35,4.35,0,0,0,.83,2.53,3.15,3.15,0,0,0,2.59,1.19,3.19,3.19,0,0,0,3.27-3.34c0-2-1.54-2.85-2.85-3.39l-1.91-.8c-1.63-.69-4-2.06-4-5,0-2.68,2.08-5.24,5.8-5.24a5.85,5.85,0,0,1,4,1.34,6.66,6.66,0,0,1,1.52,2Z"/><path class="cls-2" d="M461.74,102.64v9.85h-2.92v-9.85H457.6V100h1.22V95.38h2.92V100H464v2.68Z"/><path class="cls-2" d="M467.39,92.91a1.88,1.88,0,1,1-1.87,1.87A1.82,1.82,0,0,1,467.39,92.91Zm1.46,7v12.53h-2.92V100Z"/><path class="cls-2" d="M472.54,100h2.91v1.16a3.89,3.89,0,0,1,3.1-1.49,3.67,3.67,0,0,1,3.24,1.85,4.44,4.44,0,0,1,3.72-1.85,4,4,0,0,1,3.57,2,6.07,6.07,0,0,1,.66,3.15v7.74h-2.92v-6.91a5.76,5.76,0,0,0-.27-2.23,1.64,1.64,0,0,0-1.66-1.1,2.17,2.17,0,0,0-1.73.92,5.07,5.07,0,0,0-.56,2.86v6.46h-2.92v-6.91a5.76,5.76,0,0,0-.27-2.23,1.64,1.64,0,0,0-1.67-1.1,2.17,2.17,0,0,0-1.72.92,5.07,5.07,0,0,0-.57,2.86v6.46h-2.91Z"/><path class="cls-2" d="M493.43,100h2.91v1.16a3.86,3.86,0,0,1,3.1-1.49,3.68,3.68,0,0,1,3.24,1.85,4.44,4.44,0,0,1,3.72-1.85,4,4,0,0,1,3.57,2,6.11,6.11,0,0,1,.65,3.15v7.74h-2.91v-6.91a5.76,5.76,0,0,0-.27-2.23,1.64,1.64,0,0,0-1.67-1.1,2.15,2.15,0,0,0-1.72.92,5.07,5.07,0,0,0-.57,2.86v6.46h-2.91v-6.91a5.76,5.76,0,0,0-.27-2.23,1.65,1.65,0,0,0-1.67-1.1,2.15,2.15,0,0,0-1.72.92,5.07,5.07,0,0,0-.57,2.86v6.46h-2.91Z"/><path class="cls-2" d="M525.53,109.63a6.59,6.59,0,0,1-2.11,2.29,6.84,6.84,0,0,1-3.69,1,5.55,5.55,0,0,1-4.23-1.6,6.73,6.73,0,0,1-1.84-4.8,7.33,7.33,0,0,1,2-5.14,5.72,5.72,0,0,1,4.2-1.7,5.4,5.4,0,0,1,4,1.64,7.54,7.54,0,0,1,1.75,5.29v.36h-9a4.12,4.12,0,0,0,1.08,2.53,2.94,2.94,0,0,0,2.23.8,3,3,0,0,0,2-.62,4.49,4.49,0,0,0,1.16-1.37Zm-2.88-5.09a3.06,3.06,0,0,0-.9-1.7,3,3,0,0,0-4,.09,3.32,3.32,0,0,0-.9,1.61Z"/><path class="cls-2" d="M810.64,92.64l5.53,13.83,5.54-13.83H825l-8.81,21.13-8.81-21.13Z"/><path class="cls-2" d="M837.27,109.63a6.69,6.69,0,0,1-2.11,2.29,6.86,6.86,0,0,1-3.69,1,5.55,5.55,0,0,1-4.23-1.6,6.73,6.73,0,0,1-1.84-4.8,7.33,7.33,0,0,1,2-5.14,5.72,5.72,0,0,1,4.2-1.7,5.35,5.35,0,0,1,4,1.64,7.5,7.5,0,0,1,1.76,5.29v.36h-9a4.17,4.17,0,0,0,1.07,2.53,3,3,0,0,0,2.23.8,3.06,3.06,0,0,0,2-.62,4.64,4.64,0,0,0,1.16-1.37Zm-2.89-5.09a3,3,0,0,0-.89-1.7,3.06,3.06,0,0,0-4,.09,3.39,3.39,0,0,0-.89,1.61Z"/><path class="cls-2" d="M840.39,100h2.92v1.13a5,5,0,0,1,1.22-1,3.33,3.33,0,0,1,1.78-.42,4.33,4.33,0,0,1,2.3.6l-1.19,2.64a2.71,2.71,0,0,0-1.49-.44,2.29,2.29,0,0,0-1.82.68,4.07,4.07,0,0,0-.8,2.89v6.49h-2.92Z"/><path class="cls-2" d="M850.27,90.79h2.92V101a4.5,4.5,0,0,1,3.36-1.4,4.26,4.26,0,0,1,3.69,1.7,6.19,6.19,0,0,1,.8,3.48v7.68h-2.91v-7.41a3,3,0,0,0-.57-2.18,2.23,2.23,0,0,0-1.64-.65,2.6,2.6,0,0,0-2.14,1,5.71,5.71,0,0,0-.59,3.16v6h-2.92Z"/><path class="cls-2" d="M873.9,100h2.91v12.53H873.9v-1.31a4.83,4.83,0,0,1-3.75,1.69c-3.87,0-6.07-3.21-6.07-6.66,0-4.08,2.79-6.58,6.1-6.58a4.57,4.57,0,0,1,3.72,1.79Zm-6.85,6.31c0,2.17,1.37,4,3.49,4,1.84,0,3.54-1.34,3.54-4s-1.7-4-3.54-4C868.42,102.25,867.05,104,867.05,106.27Z"/><path class="cls-2" d="M883.42,90.79v21.7H880.5V90.79Z"/><path class="cls-2" d="M890.11,102.64v9.85H887.2v-9.85H886V100h1.22V95.38h2.91V100h2.24v2.68Z"/><path class="cls-2" d="M905.53,109.63a6.62,6.62,0,0,1-2.12,2.29,6.84,6.84,0,0,1-3.69,1,5.55,5.55,0,0,1-4.22-1.6,6.74,6.74,0,0,1-1.85-4.8,7.34,7.34,0,0,1,2-5.14,5.71,5.71,0,0,1,4.19-1.7,5.36,5.36,0,0,1,4,1.64,7.5,7.5,0,0,1,1.76,5.29v.36h-9a4.17,4.17,0,0,0,1.07,2.53,3,3,0,0,0,2.23.8,3.06,3.06,0,0,0,2-.62,4.64,4.64,0,0,0,1.16-1.37Zm-2.89-5.09a3.11,3.11,0,0,0-.89-1.7,3.06,3.06,0,0,0-4,.09,3.31,3.31,0,0,0-.89,1.61Z"/><path class="cls-2" d="M908.62,100h2.92v1.16a4.32,4.32,0,0,1,3.39-1.49,4.18,4.18,0,0,1,3.69,1.7,5.62,5.62,0,0,1,.77,3.48v7.68h-2.91v-7c0-3.18-1.19-3.27-2.29-3.27-1.31,0-2.65.18-2.65,4.22v6h-2.92Z"/></g></g></svg>