<svg xmlns="http://www.w3.org/2000/svg" viewBox="0 0 697.09 86.92"><defs><style>.cls-1{fill:#333;}.cls-2{fill:#fff;}</style></defs><title>preispanne_333</title><g id="Ebene_2" data-name="Ebene 2"><g id="Ebene_3" data-name="Ebene 3"><path class="cls-1" d="M15.89,53.14a15.89,15.89,0,1,1,15.9-15.89A15.91,15.91,0,0,1,15.89,53.14Zm0-26.78a10.89,10.89,0,1,0,10.9,10.89A10.9,10.9,0,0,0,15.89,26.36Z"/><path class="cls-1" d="M659.84,74.5a37.25,37.25,0,1,1,37.25-37.25A37.29,37.29,0,0,1,659.84,74.5Zm0-73.13a35.89,35.89,0,1,0,35.88,35.88A35.92,35.92,0,0,0,659.84,1.37Z"/><rect class="cls-1" x="29.29" y="35.14" width="444.25" height="5"/><rect class="cls-1" x="472.53" y="31.14" width="2" height="13"/><rect class="cls-1" x="470.95" y="36.75" width="152.32" height="1"/><path class="cls-1" d="M463.94,13.32a3.35,3.35,0,0,1,2.34.73,2.77,2.77,0,0,1,.87,2.17,2.91,2.91,0,0,1-.76,2.11,3.06,3.06,0,0,1-2.28.79h-1.26v3.13h-2.06V13.32Zm-1.09,4.11h.74a1.54,1.54,0,0,0,1.11-.34,1.21,1.21,0,0,0,.34-.88,1.18,1.18,0,0,0-.34-.87,1.59,1.59,0,0,0-1.15-.34h-.7Z"/><path class="cls-1" d="M468.22,16.28h1.93v.93a2.31,2.31,0,0,1,.75-.83,1.89,1.89,0,0,1,1-.25,2.18,2.18,0,0,1,.63.09L472.46,18a1.89,1.89,0,0,0-.87-.21,1.24,1.24,0,0,0-1,.4,2.26,2.26,0,0,0-.47,1.61v2.42h-1.93Z"/><path class="cls-1" d="M479.29,19.6h-4.46a1.65,1.65,0,0,0,.36,1,1.3,1.3,0,0,0,1,.37,1.6,1.6,0,0,0,.78-.17,1.25,1.25,0,0,0,.42-.5l1.82.19A2.68,2.68,0,0,1,478,22a3.49,3.49,0,0,1-1.88.44,3.12,3.12,0,0,1-2.39-.85,3.25,3.25,0,0,1-.9-2.31,3.42,3.42,0,0,1,.91-2.36,3.57,3.57,0,0,1,4.67,0,3.41,3.41,0,0,1,.84,2.43Zm-1.78-1.15a1.49,1.49,0,0,0-.39-.7,1.29,1.29,0,0,0-.91-.33,1.34,1.34,0,0,0-1,.38,1.3,1.3,0,0,0-.33.65Z"/><path class="cls-1" d="M481.6,12.6a1.13,1.13,0,1,1-1.13,1.13A1.11,1.11,0,0,1,481.6,12.6Zm1,3.68v6h-1.93v-6Z"/><path class="cls-1" d="M487.85,17.8a2.21,2.21,0,0,0-1.06-.33.84.84,0,0,0-.55.17.47.47,0,0,0-.12.27.33.33,0,0,0,.19.27,3.8,3.8,0,0,0,.58.2l.51.16a2.63,2.63,0,0,1,1,.52,1.43,1.43,0,0,1,.47,1.14,2.17,2.17,0,0,1-.62,1.57,2.57,2.57,0,0,1-1.94.68,3.53,3.53,0,0,1-2.45-.85l.81-1.3a3.79,3.79,0,0,0,.66.44,1.87,1.87,0,0,0,.8.19,1.07,1.07,0,0,0,.61-.14.5.5,0,0,0,.2-.39.4.4,0,0,0-.22-.35,2.37,2.37,0,0,0-.59-.21l-.48-.15a2.2,2.2,0,0,1-1-.55,1.47,1.47,0,0,1-.43-1.08,1.87,1.87,0,0,1,.57-1.38,2.62,2.62,0,0,1,1.81-.6,3.82,3.82,0,0,1,2,.5Z"/><rect class="cls-1" x="29.29" y="51.25" width="445.25" height="34.8"/><path class="cls-1" d="M475.4,86.92h-447V50.38h447ZM30.15,85.19H473.67V52.12H30.15Z"/><path class="cls-2" d="M222.48,70.57h-3l-.61,1.51H217l3.21-8h1.69l3.15,8h-1.92Zm-.5-1.41-1-2.68-1,2.68Z"/><path class="cls-2" d="M233.41,68.83a3.37,3.37,0,0,1-.88,2.52,3.86,3.86,0,0,1-5,0,3.37,3.37,0,0,1-.88-2.52V64.1h1.84v4.68a1.86,1.86,0,0,0,.42,1.34,1.68,1.68,0,0,0,2.22,0,1.86,1.86,0,0,0,.42-1.34V64.1h1.84Z"/><path class="cls-2" d="M240.61,65.66H238V67.2h2.39v1.56H238v3.32h-1.84v-8h4.42Z"/><path class="cls-2" d="M246.83,67.73h4v.08a5.2,5.2,0,0,1-1.23,3.36,3.67,3.67,0,0,1-2.85,1.09,3.73,3.73,0,0,1-2.92-1.11,4.23,4.23,0,0,1-1.17-3,4.29,4.29,0,0,1,1.15-3,4.13,4.13,0,0,1,3.13-1.16,4,4,0,0,1,2.24.6A4.37,4.37,0,0,1,250.43,66l-1.66.89a2.52,2.52,0,0,0-.71-.86,2,2,0,0,0-1.22-.38,2.17,2.17,0,0,0-1.65.64,2.76,2.76,0,0,0-.68,1.9,2.51,2.51,0,0,0,.67,1.83,2.12,2.12,0,0,0,1.61.62,2.08,2.08,0,0,0,1.39-.43,1.9,1.9,0,0,0,.58-1h-1.93Z"/><path class="cls-2" d="M257.63,70.57h-3L254,72.08h-1.91l3.22-8H257l3.15,8h-1.91Zm-.5-1.41-1-2.68-1,2.68Z"/><path class="cls-2" d="M264.5,64.1a3.07,3.07,0,0,1,2,.61,2.07,2.07,0,0,1,.57,1.51,1.94,1.94,0,0,1-.26,1,1.49,1.49,0,0,1-.67.58,2.08,2.08,0,0,1,1.1.54,2,2,0,0,1,.51,1.43,2.17,2.17,0,0,1-.62,1.61,3,3,0,0,1-2.1.68h-3v-8Zm-.62,3.25h.3a1.71,1.71,0,0,0,.93-.23.85.85,0,0,0,.33-.71.82.82,0,0,0-.31-.67,1.58,1.58,0,0,0-1-.2h-.29Zm0,3.3h.44a2,2,0,0,0,1.37-.33,1,1,0,0,0,0-1.31,2.07,2.07,0,0,0-1.32-.3h-.5Z"/><path class="cls-2" d="M274.71,65.66H272V67.2h2.53v1.56H272v1.77h2.67v1.55h-4.52v-8h4.52Z"/><path class="cls-2" d="M277.23,72.08v-8h1.6l4.33,5.15V64.1H285v8h-1.6l-4.33-5.17v5.17Z"/></g></g></svg>