<svg xmlns="http://www.w3.org/2000/svg" viewBox="0 0 1268.74 385.6"><defs><style>.cls-1{fill:#ffda49;}.cls-2,.cls-8{fill:#333;}.cls-3{font-size:12px;fill:#fff;}.cls-3,.cls-8{font-family:FuturaPT-Medium, Futura PT;font-weight:500;}.cls-4{fill:none;stroke:#333;stroke-miterlimit:10;stroke-width:3px;}.cls-5{font-size:24px;fill:#033333;font-family:FuturaPT-Heavy, Futura PT;font-weight:800;}.cls-6{letter-spacing:-0.02em;}.cls-7{letter-spacing:0.02em;}.cls-8{font-size:22px;}</style></defs><title>projektmanagement</title><g id="Ebene_2" data-name="Ebene 2"><g id="Ebene_3" data-name="Ebene 3"><rect class="cls-1" x="5.98" width="392.31" height="196.34" rx="5"/><rect class="cls-2" x="26.14" y="20.21" width="110.67" height="45.33" rx="14.61"/><rect class="cls-2" x="26.14" y="75.54" width="110.67" height="45.33" rx="14.61"/><rect class="cls-2" x="26.14" y="130.88" width="110.67" height="45.33" rx="14.61"/><rect class="cls-2" x="146.8" y="20.21" width="110.67" height="45.33" rx="14.61"/><rect class="cls-2" x="146.8" y="75.54" width="110.67" height="45.33" rx="14.61"/><rect class="cls-2" x="146.8" y="130.88" width="110.67" height="45.33" rx="14.61"/><rect class="cls-2" x="267.47" y="20.21" width="110.67" height="45.33" rx="14.61"/><rect class="cls-2" x="267.47" y="75.54" width="110.67" height="45.33" rx="14.61"/><rect class="cls-2" x="267.47" y="130.88" width="110.67" height="45.33" rx="14.61"/><text class="cls-3" transform="translate(60.58 46.26)">Aufgabe</text><text class="cls-3" transform="translate(181.25 46.26)">Aufgabe</text><text class="cls-3" transform="translate(301.91 46.26)">Aufgabe</text><text class="cls-3" transform="translate(60.58 101.59)">Aufgabe</text><text class="cls-3" transform="translate(181.25 101.59)">Aufgabe</text><text class="cls-3" transform="translate(301.91 101.51)">Aufgabe</text><text class="cls-3" transform="translate(60.58 156.75)">Aufgabe</text><text class="cls-3" transform="translate(181.25 156.92)">Aufgabe</text><text class="cls-3" transform="translate(301.91 156.75)">Aufgabe</text><rect class="cls-1" x="428.29" width="392.31" height="196.34" rx="5"/><rect class="cls-2" x="448.45" y="20.21" width="110.67" height="45.33" rx="14.61"/><rect class="cls-2" x="448.45" y="75.54" width="110.67" height="45.33" rx="14.61"/><rect class="cls-2" x="448.45" y="130.88" width="110.67" height="45.33" rx="14.61"/><rect class="cls-2" x="569.11" y="20.21" width="110.67" height="45.33" rx="14.61"/><rect class="cls-2" x="569.11" y="75.54" width="110.67" height="45.33" rx="14.61"/><rect class="cls-2" x="569.11" y="130.88" width="110.67" height="45.33" rx="14.61"/><rect class="cls-2" x="689.78" y="20.21" width="110.67" height="45.33" rx="14.61"/><rect class="cls-2" x="689.78" y="75.54" width="110.67" height="45.33" rx="14.61"/><rect class="cls-2" x="689.78" y="130.88" width="110.67" height="45.33" rx="14.61"/><text class="cls-3" transform="translate(482.89 46.26)">Aufgabe</text><text class="cls-3" transform="translate(603.55 46.26)">Aufgabe</text><text class="cls-3" transform="translate(724.22 46.26)">Aufgabe</text><text class="cls-3" transform="translate(482.89 101.59)">Aufgabe</text><text class="cls-3" transform="translate(603.55 101.59)">Aufgabe</text><text class="cls-3" transform="translate(724.22 101.51)">Aufgabe</text><text class="cls-3" transform="translate(482.89 156.75)">Aufgabe</text><text class="cls-3" transform="translate(603.55 156.92)">Aufgabe</text><text class="cls-3" transform="translate(724.22 156.75)">Aufgabe</text><rect class="cls-1" x="850.6" width="392.31" height="196.34" rx="5"/><rect class="cls-2" x="870.75" y="20.21" width="110.67" height="45.33" rx="14.61"/><rect class="cls-2" x="870.75" y="75.54" width="110.67" height="45.33" rx="14.61"/><rect class="cls-2" x="870.75" y="130.88" width="110.67" height="45.33" rx="14.61"/><rect class="cls-2" x="991.42" y="20.21" width="110.67" height="45.33" rx="14.61"/><rect class="cls-2" x="991.42" y="75.54" width="110.67" height="45.33" rx="14.61"/><rect class="cls-2" x="991.42" y="130.88" width="110.67" height="45.33" rx="14.61"/><rect class="cls-2" x="1112.09" y="20.21" width="110.67" height="45.33" rx="14.61"/><rect class="cls-2" x="1112.09" y="75.54" width="110.67" height="45.33" rx="14.61"/><rect class="cls-2" x="1112.09" y="130.88" width="110.67" height="45.33" rx="14.61"/><text class="cls-3" transform="translate(905.19 46.26)">Aufgabe</text><text class="cls-3" transform="translate(1025.86 46.26)">Aufgabe</text><text class="cls-3" transform="translate(1146.53 46.26)">Aufgabe</text><text class="cls-3" transform="translate(905.19 101.59)">Aufgabe</text><text class="cls-3" transform="translate(1025.86 101.59)">Aufgabe</text><text class="cls-3" transform="translate(1146.53 101.51)">Aufgabe</text><text class="cls-3" transform="translate(905.19 156.75)">Aufgabe</text><text class="cls-3" transform="translate(1025.86 156.92)">Aufgabe</text><text class="cls-3" transform="translate(1146.53 156.75)">Aufgabe</text><polyline class="cls-4" points="5.98 217.61 5.98 253.82 1242.91 253.82 1242.91 217.61"/><polygon class="cls-2" points="0 219.36 5.98 209 11.97 219.36 0 219.36"/><polygon class="cls-2" points="1248.89 219.36 1242.91 209 1236.92 219.36 1248.89 219.36"/><text class="cls-5" transform="translate(585.54 240.86)">P<tspan class="cls-6" x="13.73" y="0">r</tspan><tspan x="22.58" y="0">oje</tspan><tspan class="cls-7" x="56.54" y="0">k</tspan><tspan x="70.63" y="0">t</tspan></text><line class="cls-4" x1="27.26" y1="316.06" x2="135.68" y2="316.06"/><rect class="cls-2" x="26.14" y="308.75" width="2.25" height="14.63"/><rect class="cls-2" x="134.55" y="308.75" width="2.25" height="14.63"/><line class="cls-4" x1="147.93" y1="316.06" x2="256.35" y2="316.06"/><rect class="cls-2" x="146.8" y="308.75" width="2.25" height="14.63"/><rect class="cls-2" x="255.22" y="308.75" width="2.25" height="14.63"/><line class="cls-4" x1="268.6" y1="316.06" x2="377.01" y2="316.06"/><rect class="cls-2" x="267.47" y="308.75" width="2.25" height="14.63"/><rect class="cls-2" x="375.89" y="308.75" width="2.25" height="14.63"/><line class="cls-4" x1="449.57" y1="316.06" x2="557.99" y2="316.06"/><rect class="cls-2" x="448.44" y="308.75" width="2.25" height="14.63"/><rect class="cls-2" x="556.86" y="308.75" width="2.25" height="14.63"/><line class="cls-4" x1="570.24" y1="316.06" x2="678.65" y2="316.06"/><rect class="cls-2" x="569.11" y="308.75" width="2.25" height="14.63"/><rect class="cls-2" x="677.53" y="308.75" width="2.25" height="14.63"/><line class="cls-4" x1="690.9" y1="316.06" x2="799.32" y2="316.06"/><rect class="cls-2" x="689.78" y="308.75" width="2.25" height="14.63"/><rect class="cls-2" x="798.19" y="308.75" width="2.25" height="14.63"/><line class="cls-4" x1="871.88" y1="316.06" x2="980.29" y2="316.06"/><rect class="cls-2" x="870.75" y="308.75" width="2.25" height="14.63"/><rect class="cls-2" x="979.17" y="308.75" width="2.25" height="14.63"/><line class="cls-4" x1="992.54" y1="316.06" x2="1100.96" y2="316.06"/><rect class="cls-2" x="991.42" y="308.75" width="2.25" height="14.63"/><rect class="cls-2" x="1099.84" y="308.75" width="2.25" height="14.63"/><line class="cls-4" x1="1113.21" y1="316.06" x2="1221.63" y2="316.06"/><rect class="cls-2" x="1112.09" y="308.75" width="2.25" height="14.63"/><rect class="cls-2" x="1220.5" y="308.75" width="2.25" height="14.63"/><rect class="cls-2" x="131.66" y="274.94" width="20" height="20" transform="translate(-159.99 183.62) rotate(-45)"/><rect class="cls-2" x="252.51" y="274.94" width="20" height="20" transform="translate(-124.59 269.08) rotate(-45)"/><rect class="cls-1" x="403.26" y="274.94" width="20" height="20"/><rect class="cls-1" x="825.6" y="274.94" width="20" height="20"/><rect class="cls-1" x="1222.91" y="274.94" width="20" height="20" rx="10"/><rect class="cls-2" x="554.02" y="274.94" width="20" height="20" transform="translate(-36.28 482.28) rotate(-45)"/><rect class="cls-2" x="674.87" y="274.94" width="20" height="20" transform="translate(-0.89 567.73) rotate(-45)"/><rect class="cls-2" x="976.33" y="274.94" width="20" height="20" transform="translate(87.41 780.89) rotate(-45)"/><rect class="cls-2" x="1097.18" y="274.94" width="20" height="20" transform="translate(122.8 866.35) rotate(-45)"/><text class="cls-8" transform="translate(105.41 353.26)">Meeting</text><text class="cls-8" transform="translate(226.26 353.26)">Meeting</text><text class="cls-8" transform="translate(387.55 353.26)">Phase<tspan x="-37.83" y="26.4">abgeschlossen</tspan></text><text class="cls-8" transform="translate(809.88 353.26)">Phase<tspan x="-37.83" y="26.4">abgeschlossen</tspan></text><text class="cls-8" transform="translate(527.78 353.26)">Meeting</text><text class="cls-8" transform="translate(648.63 353.26)">Meeting</text><text class="cls-8" transform="translate(950.08 353.26)">Meeting</text><text class="cls-8" transform="translate(1070.93 353.26)">Meeting</text><text class="cls-8" transform="translate(1197.07 353.26)">Abgabe</text></g></g></svg>