<svg xmlns="http://www.w3.org/2000/svg" viewBox="0 0 1267.87 384.72"><defs><style>.cls-1{fill:#ffda49;}.cls-2{fill:#333;}.cls-3{fill:#fff;}.cls-4{fill:#033333;}</style></defs><title>projektmanagement_1</title><g id="Ebene_2" data-name="Ebene 2"><g id="Ebene_3" data-name="Ebene 3"><rect class="cls-1" x="5.98" width="392.31" height="196.34" rx="5"/><rect class="cls-2" x="26.14" y="20.21" width="110.67" height="45.33" rx="14.61"/><rect class="cls-2" x="26.14" y="75.54" width="110.67" height="45.33" rx="14.61"/><rect class="cls-2" x="26.14" y="130.88" width="110.67" height="45.33" rx="14.61"/><rect class="cls-2" x="146.8" y="20.21" width="110.67" height="45.33" rx="14.61"/><rect class="cls-2" x="146.8" y="75.54" width="110.67" height="45.33" rx="14.61"/><rect class="cls-2" x="146.8" y="130.88" width="110.67" height="45.33" rx="14.61"/><rect class="cls-2" x="267.47" y="20.21" width="110.67" height="45.33" rx="14.61"/><rect class="cls-2" x="267.47" y="75.54" width="110.67" height="45.33" rx="14.61"/><rect class="cls-2" x="267.47" y="130.88" width="110.67" height="45.33" rx="14.61"/><path class="cls-3" d="M66.24,44.33H62.82L62,46.26H60.63l4-8.47,3.79,8.47H67.08Zm-.49-1.15-1.19-2.71-1.23,2.71Z"/><path class="cls-3" d="M70.37,41.21V44.1a1.41,1.41,0,0,0,.22.91.92.92,0,0,0,.76.35.94.94,0,0,0,.77-.35,1.41,1.41,0,0,0,.22-.91V41.21h1.17v2.93A2.1,2.1,0,0,1,73,45.79a2.27,2.27,0,0,1-1.64.62,2.22,2.22,0,0,1-1.6-.62,2.14,2.14,0,0,1-.54-1.65V41.21Z"/><path class="cls-3" d="M76.3,42.29v4H75.12v-4h-.5V41.21h.5V39.46a2.26,2.26,0,0,1,.49-1.58,1.59,1.59,0,0,1,1.2-.5,1.84,1.84,0,0,1,.76.15v1.16a1.06,1.06,0,0,0-.57-.18.67.67,0,0,0-.51.19.84.84,0,0,0-.19.6v1.91h1.27v1.08Z"/><path class="cls-3" d="M81.94,41.21h1.17v4.64a3.12,3.12,0,0,1-.83,2.63,2.57,2.57,0,0,1-1.67.54A2.24,2.24,0,0,1,79,48.39a2.82,2.82,0,0,1-.74-1.57h1.14a1.57,1.57,0,0,0,.37.79,1.18,1.18,0,0,0,.91.35,1.27,1.27,0,0,0,.92-.33,1.66,1.66,0,0,0,.39-1.28V45.7a1.83,1.83,0,0,1-1.54.71,2.15,2.15,0,0,1-1.67-.68,2.87,2.87,0,0,1-.75-2,2.71,2.71,0,0,1,.74-2,2.33,2.33,0,0,1,1.72-.69,1.93,1.93,0,0,1,1.5.68Zm-2.25,1.26a1.73,1.73,0,0,0-.51,1.28,1.71,1.71,0,0,0,.5,1.27,1.35,1.35,0,0,0,.9.34,1.27,1.27,0,0,0,1-.41A1.67,1.67,0,0,0,82,43.76a1.69,1.69,0,0,0-.48-1.27,1.38,1.38,0,0,0-1.84,0Z"/><path class="cls-3" d="M88.3,41.21h1.17v5H88.3v-.53a1.93,1.93,0,0,1-1.51.68,2.5,2.5,0,0,1-2.45-2.68,2.47,2.47,0,0,1,2.46-2.65,1.83,1.83,0,0,1,1.5.72Zm-2.76,2.54a1.47,1.47,0,0,0,1.4,1.61,1.63,1.63,0,0,0,0-3.23A1.47,1.47,0,0,0,85.54,43.75Z"/><path class="cls-3" d="M92.14,41.8a1.83,1.83,0,0,1,1.5-.72,2.47,2.47,0,0,1,2.46,2.65,2.5,2.5,0,0,1-2.45,2.68,1.92,1.92,0,0,1-1.51-.68v.53H91V37.52h1.18Zm-.07,2a1.44,1.44,0,0,0,1.42,1.6,1.63,1.63,0,0,0,0-3.23A1.45,1.45,0,0,0,92.07,43.76Z"/><path class="cls-3" d="M101.84,45.11A2.52,2.52,0,0,1,101,46a2.77,2.77,0,0,1-1.48.38,2.24,2.24,0,0,1-1.71-.64,2.71,2.71,0,0,1-.74-1.93,3,3,0,0,1,.8-2.08,2.29,2.29,0,0,1,1.69-.68,2.17,2.17,0,0,1,1.62.66,3,3,0,0,1,.71,2.13V44H98.26a1.68,1.68,0,0,0,.43,1,1.42,1.42,0,0,0,1.7.07,1.84,1.84,0,0,0,.47-.55Zm-1.16-2a1.24,1.24,0,0,0-.36-.69,1.21,1.21,0,0,0-1.62,0,1.33,1.33,0,0,0-.36.65Z"/><path class="cls-3" d="M186.91,44.33h-3.42l-.88,1.93h-1.32l4-8.47,3.79,8.47h-1.32Zm-.49-1.15-1.19-2.71L184,43.18Z"/><path class="cls-3" d="M191,41.21V44.1a1.46,1.46,0,0,0,.21.91,1,1,0,0,0,1.54,0,1.46,1.46,0,0,0,.21-.91V41.21h1.18v2.93a2.1,2.1,0,0,1-.54,1.65,2.29,2.29,0,0,1-1.64.62,2.22,2.22,0,0,1-1.6-.62,2.1,2.1,0,0,1-.54-1.65V41.21Z"/><path class="cls-3" d="M197,42.29v4h-1.17v-4h-.5V41.21h.5V39.46a2.26,2.26,0,0,1,.49-1.59,1.62,1.62,0,0,1,1.2-.49,1.91,1.91,0,0,1,.76.15v1.16a1.06,1.06,0,0,0-.57-.18.66.66,0,0,0-.51.19.83.83,0,0,0-.2.6v1.91h1.28v1.08Z"/><path class="cls-3" d="M202.6,41.21h1.18v4.64a3.12,3.12,0,0,1-.83,2.63,2.58,2.58,0,0,1-1.68.54,2.22,2.22,0,0,1-1.65-.63,2.9,2.9,0,0,1-.75-1.57H200a1.75,1.75,0,0,0,.37.79,1.22,1.22,0,0,0,.92.35,1.27,1.27,0,0,0,.92-.33,1.69,1.69,0,0,0,.38-1.28v-.66a1.81,1.81,0,0,1-1.53.72,2.15,2.15,0,0,1-1.67-.68,2.87,2.87,0,0,1-.75-2,2.67,2.67,0,0,1,.74-2,2.3,2.3,0,0,1,1.71-.69,1.87,1.87,0,0,1,1.5.68Zm-2.24,1.26a1.74,1.74,0,0,0-.52,1.28,1.72,1.72,0,0,0,.51,1.27,1.38,1.38,0,0,0,.9.34,1.28,1.28,0,0,0,1-.41,1.67,1.67,0,0,0,.45-1.19,1.69,1.69,0,0,0-.48-1.27,1.26,1.26,0,0,0-.95-.36A1.23,1.23,0,0,0,200.36,42.47Z"/><path class="cls-3" d="M209,41.21h1.18v5H209v-.53a1.92,1.92,0,0,1-1.51.68A2.49,2.49,0,0,1,205,43.73a2.46,2.46,0,0,1,2.45-2.65,1.82,1.82,0,0,1,1.5.72Zm-2.75,2.54a1.47,1.47,0,0,0,1.4,1.61,1.63,1.63,0,0,0,0-3.23A1.47,1.47,0,0,0,206.21,43.75Z"/><path class="cls-3" d="M212.81,41.8a1.81,1.81,0,0,1,1.49-.72,2.46,2.46,0,0,1,2.46,2.65,2.49,2.49,0,0,1-2.44,2.68,1.92,1.92,0,0,1-1.51-.68v.53h-1.18V37.51h1.18Zm-.08,2a1.45,1.45,0,0,0,1.43,1.6,1.63,1.63,0,0,0,0-3.23A1.45,1.45,0,0,0,212.73,43.76Z"/><path class="cls-3" d="M222.51,45.11a2.61,2.61,0,0,1-.85.92,2.83,2.83,0,0,1-1.49.38,2.23,2.23,0,0,1-1.7-.64,2.71,2.71,0,0,1-.74-1.93,3,3,0,0,1,.8-2.08,2.29,2.29,0,0,1,1.69-.68,2.14,2.14,0,0,1,1.62.66,3,3,0,0,1,.71,2.13V44h-3.62a1.62,1.62,0,0,0,.43,1,1.18,1.18,0,0,0,.9.33,1.23,1.23,0,0,0,.8-.25,1.9,1.9,0,0,0,.47-.56Zm-1.16-2a1.24,1.24,0,0,0-.36-.69,1.16,1.16,0,0,0-.79-.29,1.13,1.13,0,0,0-.83.33,1.26,1.26,0,0,0-.36.65Z"/><path class="cls-3" d="M307.57,44.33h-3.41l-.88,1.93H302l4-8.47,3.79,8.47h-1.32Zm-.49-1.15-1.19-2.71-1.23,2.71Z"/><path class="cls-3" d="M311.7,41.21V44.1a1.41,1.41,0,0,0,.22.91.94.94,0,0,0,.77.35.92.92,0,0,0,.76-.35,1.41,1.41,0,0,0,.22-.91V41.21h1.18v2.93a2.14,2.14,0,0,1-.54,1.65,2.29,2.29,0,0,1-1.65.62,2.19,2.19,0,0,1-1.59-.62,2.1,2.1,0,0,1-.54-1.65V41.21Z"/><path class="cls-3" d="M317.63,42.29v4h-1.17v-4H316V41.21h.51V39.46a2.21,2.21,0,0,1,.49-1.58,1.57,1.57,0,0,1,1.2-.5,1.83,1.83,0,0,1,.75.15v1.16a1,1,0,0,0-.56-.18.68.68,0,0,0-.52.19.84.84,0,0,0-.19.6v1.91h1.27v1.08Z"/><path class="cls-3" d="M323.27,41.21h1.18v4.64a3.15,3.15,0,0,1-.83,2.63,2.6,2.6,0,0,1-1.68.54,2.24,2.24,0,0,1-1.66-.63,2.82,2.82,0,0,1-.74-1.57h1.14a1.66,1.66,0,0,0,.37.79A1.18,1.18,0,0,0,322,48a1.31,1.31,0,0,0,.93-.33,1.69,1.69,0,0,0,.38-1.28V45.7a1.83,1.83,0,0,1-1.54.71,2.15,2.15,0,0,1-1.66-.68,2.83,2.83,0,0,1-.76-2,2.68,2.68,0,0,1,.75-2,2.3,2.3,0,0,1,1.71-.69,1.92,1.92,0,0,1,1.5.68ZM321,42.47a1.74,1.74,0,0,0-.52,1.28A1.71,1.71,0,0,0,321,45a1.35,1.35,0,0,0,.9.34,1.29,1.29,0,0,0,1-.41,1.66,1.66,0,0,0,.44-1.19,1.69,1.69,0,0,0-.48-1.27,1.24,1.24,0,0,0-.95-.36A1.21,1.21,0,0,0,321,42.47Z"/><path class="cls-3" d="M329.63,41.21h1.18v5h-1.18v-.53a1.93,1.93,0,0,1-1.51.68,2.5,2.5,0,0,1-2.45-2.68,2.47,2.47,0,0,1,2.46-2.65,1.83,1.83,0,0,1,1.5.72Zm-2.76,2.54a1.47,1.47,0,0,0,1.4,1.61,1.63,1.63,0,0,0,0-3.23A1.47,1.47,0,0,0,326.87,43.75Z"/><path class="cls-3" d="M333.47,41.8a1.83,1.83,0,0,1,1.5-.72,2.47,2.47,0,0,1,2.46,2.65A2.5,2.5,0,0,1,335,46.41a1.93,1.93,0,0,1-1.51-.68v.53H332.3V37.52h1.17Zm-.07,2a1.44,1.44,0,0,0,1.43,1.6,1.63,1.63,0,0,0,0-3.23A1.45,1.45,0,0,0,333.4,43.76Z"/><path class="cls-3" d="M343.18,45.11a2.71,2.71,0,0,1-.85.92,2.83,2.83,0,0,1-1.49.38,2.23,2.23,0,0,1-1.7-.64,2.72,2.72,0,0,1-.75-1.93,3,3,0,0,1,.81-2.08,2.29,2.29,0,0,1,1.69-.68,2.19,2.19,0,0,1,1.62.66,3,3,0,0,1,.7,2.13V44h-3.62a1.74,1.74,0,0,0,.43,1,1.43,1.43,0,0,0,1.71.07,1.8,1.8,0,0,0,.46-.55Zm-1.17-2a1.23,1.23,0,0,0-.35-.69,1.17,1.17,0,0,0-.8-.29,1.1,1.1,0,0,0-.82.33,1.26,1.26,0,0,0-.36.65Z"/><path class="cls-3" d="M66.24,99.66H62.82L62,101.59H60.63l4-8.47,3.79,8.47H67.08Zm-.49-1.15L64.56,95.8l-1.23,2.71Z"/><path class="cls-3" d="M70.37,96.54v2.89a1.41,1.41,0,0,0,.22.91,1,1,0,0,0,1.53,0,1.41,1.41,0,0,0,.22-.91V96.54h1.17v2.93a2.08,2.08,0,0,1-.54,1.65,2.28,2.28,0,0,1-1.64.63,2.19,2.19,0,0,1-1.59-.63,2.08,2.08,0,0,1-.54-1.65V96.54Z"/><path class="cls-3" d="M76.3,97.62v4H75.12v-4h-.5V96.54h.5V94.79a2.21,2.21,0,0,1,.5-1.58,1.54,1.54,0,0,1,1.19-.49,1.83,1.83,0,0,1,.76.14V94a1.06,1.06,0,0,0-.56-.18.69.69,0,0,0-.52.2.84.84,0,0,0-.19.6v1.9h1.27v1.08Z"/><path class="cls-3" d="M81.94,96.54h1.17v4.64a3.15,3.15,0,0,1-.82,2.63,2.62,2.62,0,0,1-1.68.54,2.23,2.23,0,0,1-1.66-.62,2.85,2.85,0,0,1-.74-1.57h1.14a1.61,1.61,0,0,0,.37.79,1.21,1.21,0,0,0,.91.34,1.27,1.27,0,0,0,.92-.33,1.64,1.64,0,0,0,.39-1.27V101a1.84,1.84,0,0,1-1.54.72,2.1,2.1,0,0,1-1.66-.69,2.83,2.83,0,0,1-.76-2,2.69,2.69,0,0,1,.74-2,2.31,2.31,0,0,1,1.72-.7,1.92,1.92,0,0,1,1.5.68ZM79.69,97.8a1.87,1.87,0,0,0,0,2.56,1.39,1.39,0,0,0,.9.33,1.3,1.3,0,0,0,1-.41A1.7,1.7,0,0,0,82,99.1a1.66,1.66,0,0,0-.48-1.27,1.4,1.4,0,0,0-1.84,0Z"/><path class="cls-3" d="M88.3,96.54h1.17v5H88.3v-.53a2,2,0,0,1-1.51.69,2.5,2.5,0,0,1-2.45-2.69,2.47,2.47,0,0,1,2.46-2.65,1.86,1.86,0,0,1,1.5.72Zm-2.76,2.54a1.47,1.47,0,0,0,1.4,1.61,1.62,1.62,0,0,0,0-3.22A1.47,1.47,0,0,0,85.54,99.08Z"/><path class="cls-3" d="M92.14,97.13a1.86,1.86,0,0,1,1.5-.72,2.47,2.47,0,0,1,2.46,2.65,2.5,2.5,0,0,1-2.45,2.69,2,2,0,0,1-1.51-.69v.53H91V92.85h1.18Zm-.07,2a1.44,1.44,0,0,0,1.43,1.59,1.63,1.63,0,0,0,0-3.22A1.44,1.44,0,0,0,92.07,99.1Z"/><path class="cls-3" d="M101.85,100.44a2.71,2.71,0,0,1-.85.92,2.74,2.74,0,0,1-1.49.39,2.26,2.26,0,0,1-1.71-.65,2.71,2.71,0,0,1-.74-1.93,3,3,0,0,1,.8-2.08,2.32,2.32,0,0,1,1.7-.68,2.15,2.15,0,0,1,1.61.66,3,3,0,0,1,.71,2.13v.15H98.26a1.65,1.65,0,0,0,.43,1,1.22,1.22,0,0,0,.9.32,1.2,1.2,0,0,0,.8-.25,1.84,1.84,0,0,0,.47-.55Zm-1.17-2a1.18,1.18,0,0,0-.36-.68,1.07,1.07,0,0,0-.79-.29,1.17,1.17,0,0,0-.83.32,1.43,1.43,0,0,0-.36.65Z"/><path class="cls-3" d="M186.91,99.66h-3.42l-.88,1.93h-1.32l4-8.47,3.79,8.47h-1.32Zm-.49-1.15-1.19-2.71L184,98.51Z"/><path class="cls-3" d="M191,96.54v2.89a1.46,1.46,0,0,0,.21.91,1,1,0,0,0,1.54,0,1.46,1.46,0,0,0,.21-.91V96.54h1.18v2.93a2.08,2.08,0,0,1-.54,1.65,2.3,2.3,0,0,1-1.64.63,2.23,2.23,0,0,1-1.6-.63,2.08,2.08,0,0,1-.54-1.65V96.54Z"/><path class="cls-3" d="M197,97.62v4h-1.17v-4h-.5V96.54h.5V94.79a2.21,2.21,0,0,1,.49-1.58,1.59,1.59,0,0,1,1.2-.49,1.89,1.89,0,0,1,.76.14V94a1.06,1.06,0,0,0-.57-.18.67.67,0,0,0-.51.2.83.83,0,0,0-.2.6v1.9h1.28v1.08Z"/><path class="cls-3" d="M202.6,96.54h1.18v4.64a3.12,3.12,0,0,1-.83,2.63,2.58,2.58,0,0,1-1.68.54,2.21,2.21,0,0,1-1.65-.62,2.93,2.93,0,0,1-.75-1.57H200a1.8,1.8,0,0,0,.37.79,1.43,1.43,0,0,0,1.84,0,1.67,1.67,0,0,0,.38-1.27V101a1.84,1.84,0,0,1-1.53.72,2.13,2.13,0,0,1-1.67-.69,2.87,2.87,0,0,1-.75-2,2.65,2.65,0,0,1,.74-2,2.27,2.27,0,0,1,1.71-.7,1.9,1.9,0,0,1,1.5.68Zm-2.24,1.26a1.85,1.85,0,0,0,0,2.56,1.37,1.37,0,0,0,.9.33,1.28,1.28,0,0,0,1-.41,1.85,1.85,0,0,0,0-2.45,1.26,1.26,0,0,0-.95-.36A1.22,1.22,0,0,0,200.36,97.8Z"/><path class="cls-3" d="M209,96.54h1.18v5H209v-.53a1.94,1.94,0,0,1-1.51.69A2.5,2.5,0,0,1,205,99.06a2.46,2.46,0,0,1,2.45-2.65,1.84,1.84,0,0,1,1.5.72Zm-2.75,2.54a1.47,1.47,0,0,0,1.4,1.61,1.62,1.62,0,0,0,0-3.22A1.47,1.47,0,0,0,206.21,99.08Z"/><path class="cls-3" d="M212.81,97.13a1.84,1.84,0,0,1,1.49-.72,2.47,2.47,0,0,1,2.46,2.65,2.5,2.5,0,0,1-2.44,2.69,1.94,1.94,0,0,1-1.51-.69v.53h-1.18V92.85h1.18Zm-.08,2a1.44,1.44,0,0,0,1.43,1.59,1.63,1.63,0,0,0,0-3.22A1.45,1.45,0,0,0,212.73,99.1Z"/><path class="cls-3" d="M222.51,100.44a2.61,2.61,0,0,1-.85.92,2.74,2.74,0,0,1-1.49.39,2.24,2.24,0,0,1-1.7-.65,2.71,2.71,0,0,1-.74-1.93,3,3,0,0,1,.8-2.08,2.29,2.29,0,0,1,1.69-.68,2.17,2.17,0,0,1,1.62.66,3,3,0,0,1,.71,2.13v.15h-3.62a1.65,1.65,0,0,0,.43,1,1.21,1.21,0,0,0,.9.32,1.23,1.23,0,0,0,.8-.25,2,2,0,0,0,.47-.55Zm-1.16-2a1.18,1.18,0,0,0-.36-.68,1.11,1.11,0,0,0-.79-.29,1.17,1.17,0,0,0-.83.32,1.34,1.34,0,0,0-.36.65Z"/><path class="cls-3" d="M307.57,99.57h-3.41l-.88,1.94H302l4-8.47,3.79,8.47h-1.32Zm-.49-1.15-1.19-2.71-1.23,2.71Z"/><path class="cls-3" d="M311.7,96.46v2.89a1.42,1.42,0,0,0,.22.91,1,1,0,0,0,.77.35,1,1,0,0,0,.76-.35,1.42,1.42,0,0,0,.22-.91V96.46h1.18v2.92a2.15,2.15,0,0,1-.54,1.66,2.34,2.34,0,0,1-1.65.62,2.19,2.19,0,0,1-1.59-.62,2.11,2.11,0,0,1-.54-1.66V96.46Z"/><path class="cls-3" d="M317.63,97.54v4h-1.17v-4H316V96.46h.51V94.71a2.24,2.24,0,0,1,.49-1.59,1.57,1.57,0,0,1,1.2-.49,2,2,0,0,1,.75.14v1.17a1,1,0,0,0-.56-.18.68.68,0,0,0-.52.19.84.84,0,0,0-.19.6v1.91h1.27v1.08Z"/><path class="cls-3" d="M323.27,96.46h1.18v4.64a3.12,3.12,0,0,1-.83,2.62,2.54,2.54,0,0,1-1.68.54,2.23,2.23,0,0,1-1.66-.62,2.82,2.82,0,0,1-.74-1.57h1.14a1.66,1.66,0,0,0,.37.79,1.18,1.18,0,0,0,.91.35,1.27,1.27,0,0,0,.93-.34,1.67,1.67,0,0,0,.38-1.27v-.66a1.82,1.82,0,0,1-1.54.72,2.15,2.15,0,0,1-1.66-.68,2.83,2.83,0,0,1-.76-2,2.68,2.68,0,0,1,.75-2,2.27,2.27,0,0,1,1.71-.7,1.9,1.9,0,0,1,1.5.69ZM321,97.72a1.85,1.85,0,0,0,0,2.55,1.4,1.4,0,0,0,.9.34,1.29,1.29,0,0,0,1-.41,1.66,1.66,0,0,0,.44-1.19,1.69,1.69,0,0,0-.48-1.27,1.24,1.24,0,0,0-.95-.36A1.17,1.17,0,0,0,321,97.72Z"/><path class="cls-3" d="M329.63,96.46h1.18v5.05h-1.18V101a1.93,1.93,0,0,1-1.51.68,2.68,2.68,0,0,1,0-5.34,1.86,1.86,0,0,1,1.5.72ZM326.87,99a1.47,1.47,0,0,0,1.4,1.61,1.63,1.63,0,0,0,0-3.23A1.47,1.47,0,0,0,326.87,99Z"/><path class="cls-3" d="M333.47,97a1.86,1.86,0,0,1,1.5-.72,2.68,2.68,0,0,1,0,5.34,1.93,1.93,0,0,1-1.51-.68v.53H332.3V92.76h1.17Zm-.07,2a1.44,1.44,0,0,0,1.43,1.6,1.63,1.63,0,0,0,0-3.23A1.45,1.45,0,0,0,333.4,99Z"/><path class="cls-3" d="M343.18,100.35a2.74,2.74,0,0,1-.85.93,2.83,2.83,0,0,1-1.49.38,2.24,2.24,0,0,1-1.7-.65,2.7,2.7,0,0,1-.75-1.93A2.94,2.94,0,0,1,339.2,97a2.3,2.3,0,0,1,1.69-.69,2.19,2.19,0,0,1,1.62.66,3.08,3.08,0,0,1,.7,2.14v.14h-3.62a1.71,1.71,0,0,0,.43,1,1.21,1.21,0,0,0,.9.33,1.25,1.25,0,0,0,.81-.26,1.69,1.69,0,0,0,.46-.55Zm-1.17-2a1.24,1.24,0,0,0-.35-.68,1.17,1.17,0,0,0-.8-.29,1.1,1.1,0,0,0-.82.33,1.27,1.27,0,0,0-.36.64Z"/><path class="cls-3" d="M66.24,154.82H62.82L62,156.75H60.63l4-8.46,3.79,8.46H67.08Zm-.49-1.15L64.56,151l-1.23,2.71Z"/><path class="cls-3" d="M70.37,151.7v2.9a1.44,1.44,0,0,0,.22.91,1,1,0,0,0,.76.34,1,1,0,0,0,.77-.34,1.44,1.44,0,0,0,.22-.91v-2.9h1.17v2.93a2.11,2.11,0,0,1-.54,1.66,2.31,2.31,0,0,1-1.64.62,2.26,2.26,0,0,1-1.6-.62,2.15,2.15,0,0,1-.54-1.66V151.7Z"/><path class="cls-3" d="M76.3,152.78v4H75.12v-4h-.5V151.7h.5V150a2.26,2.26,0,0,1,.49-1.58,1.59,1.59,0,0,1,1.2-.49,1.83,1.83,0,0,1,.76.14v1.17A1,1,0,0,0,77,149a.67.67,0,0,0-.51.19.84.84,0,0,0-.19.6v1.9h1.27v1.08Z"/><path class="cls-3" d="M81.94,151.7h1.17v4.65a3.11,3.11,0,0,1-.83,2.62,2.51,2.51,0,0,1-1.67.54,2.23,2.23,0,0,1-1.66-.62,2.82,2.82,0,0,1-.74-1.57h1.14a1.61,1.61,0,0,0,.37.79,1.21,1.21,0,0,0,.91.35,1.26,1.26,0,0,0,.92-.34,1.64,1.64,0,0,0,.39-1.27v-.66a1.84,1.84,0,0,1-1.54.72,2.15,2.15,0,0,1-1.67-.68,2.89,2.89,0,0,1-.75-2,2.69,2.69,0,0,1,.74-1.95,2.31,2.31,0,0,1,1.72-.7,1.91,1.91,0,0,1,1.5.69ZM79.69,153a1.77,1.77,0,0,0-.51,1.29,1.75,1.75,0,0,0,.5,1.27,1.39,1.39,0,0,0,.9.33,1.26,1.26,0,0,0,1-.4,1.86,1.86,0,0,0,0-2.46,1.4,1.4,0,0,0-1.84,0Z"/><path class="cls-3" d="M88.3,151.7h1.17v5.05H88.3v-.52a1.93,1.93,0,0,1-1.51.68,2.5,2.5,0,0,1-2.45-2.69,2.47,2.47,0,0,1,2.46-2.65,1.86,1.86,0,0,1,1.5.72Zm-2.76,2.55a1.47,1.47,0,0,0,1.4,1.6,1.62,1.62,0,0,0,0-3.22A1.47,1.47,0,0,0,85.54,154.25Z"/><path class="cls-3" d="M92.14,152.29a1.86,1.86,0,0,1,1.5-.72,2.47,2.47,0,0,1,2.46,2.65,2.5,2.5,0,0,1-2.45,2.69,1.92,1.92,0,0,1-1.51-.68v.52H91V148h1.18Zm-.07,2a1.44,1.44,0,0,0,1.42,1.59,1.62,1.62,0,0,0,0-3.22A1.45,1.45,0,0,0,92.07,154.26Z"/><path class="cls-3" d="M101.84,155.6a2.56,2.56,0,0,1-.85.93,2.77,2.77,0,0,1-1.48.38,2.24,2.24,0,0,1-1.71-.65,2.7,2.7,0,0,1-.74-1.93,3,3,0,0,1,.8-2.07,2.3,2.3,0,0,1,1.69-.69,2.17,2.17,0,0,1,1.62.66,3,3,0,0,1,.71,2.14v.14H98.26a1.65,1.65,0,0,0,.43,1,1.18,1.18,0,0,0,.9.32,1.23,1.23,0,0,0,.8-.25,1.73,1.73,0,0,0,.47-.55Zm-1.16-2a1.25,1.25,0,0,0-.36-.68,1.09,1.09,0,0,0-.79-.29,1.17,1.17,0,0,0-.83.32,1.43,1.43,0,0,0-.36.65Z"/><path class="cls-3" d="M186.91,155h-3.42l-.88,1.94h-1.32l4-8.47,3.79,8.47h-1.32Zm-.49-1.15-1.19-2.71L184,153.84Z"/><path class="cls-3" d="M191,151.88v2.89a1.48,1.48,0,0,0,.21.91,1,1,0,0,0,1.54,0,1.48,1.48,0,0,0,.21-.91v-2.89h1.18v2.92a2.11,2.11,0,0,1-.54,1.66,2.33,2.33,0,0,1-1.64.62,2.22,2.22,0,0,1-1.6-.62,2.11,2.11,0,0,1-.54-1.66v-2.92Z"/><path class="cls-3" d="M197,153v4h-1.17v-4h-.5v-1.08h.5v-1.76a2.23,2.23,0,0,1,.49-1.58,1.59,1.59,0,0,1,1.2-.49,2.08,2.08,0,0,1,.76.14v1.17a1,1,0,0,0-.57-.18.66.66,0,0,0-.51.19.83.83,0,0,0-.2.6v1.91h1.28V153Z"/><path class="cls-3" d="M202.6,151.88h1.18v4.64a3.1,3.1,0,0,1-.83,2.62,2.52,2.52,0,0,1-1.68.54,2.21,2.21,0,0,1-1.65-.62,2.9,2.9,0,0,1-.75-1.57H200a1.8,1.8,0,0,0,.37.79,1.4,1.4,0,0,0,1.84,0,1.67,1.67,0,0,0,.38-1.27v-.66a1.81,1.81,0,0,1-1.53.72,2.15,2.15,0,0,1-1.67-.68,2.89,2.89,0,0,1-.75-2,2.66,2.66,0,0,1,.74-1.95,2.27,2.27,0,0,1,1.71-.7,1.88,1.88,0,0,1,1.5.69Zm-2.24,1.26a1.84,1.84,0,0,0,0,2.55,1.38,1.38,0,0,0,.9.34,1.28,1.28,0,0,0,1-.41,1.86,1.86,0,0,0,0-2.46,1.26,1.26,0,0,0-.95-.36A1.19,1.19,0,0,0,200.36,153.14Z"/><path class="cls-3" d="M209,151.88h1.18v5.05H209v-.53a1.92,1.92,0,0,1-1.51.68,2.49,2.49,0,0,1-2.44-2.69,2.46,2.46,0,0,1,2.45-2.65,1.84,1.84,0,0,1,1.5.72Zm-2.75,2.54a1.48,1.48,0,0,0,1.4,1.61,1.63,1.63,0,0,0,0-3.23A1.47,1.47,0,0,0,206.21,154.42Z"/><path class="cls-3" d="M212.81,152.46a1.84,1.84,0,0,1,1.49-.72,2.47,2.47,0,0,1,2.46,2.65,2.49,2.49,0,0,1-2.44,2.69,1.92,1.92,0,0,1-1.51-.68v.53h-1.18v-8.75h1.18Zm-.08,2a1.45,1.45,0,0,0,1.43,1.6,1.63,1.63,0,0,0,0-3.23A1.45,1.45,0,0,0,212.73,154.43Z"/><path class="cls-3" d="M222.51,155.77a2.65,2.65,0,0,1-.85.93,2.83,2.83,0,0,1-1.49.38,2.24,2.24,0,0,1-1.7-.65,2.7,2.7,0,0,1-.74-1.93,2.93,2.93,0,0,1,.8-2.07,2.3,2.3,0,0,1,1.69-.69,2.17,2.17,0,0,1,1.62.66,3,3,0,0,1,.71,2.14v.14h-3.62a1.65,1.65,0,0,0,.43,1,1.18,1.18,0,0,0,.9.33,1.24,1.24,0,0,0,.8-.26,1.86,1.86,0,0,0,.47-.55Zm-1.16-2.05A1.25,1.25,0,0,0,221,153a1.23,1.23,0,0,0-1.62,0,1.34,1.34,0,0,0-.36.65Z"/><path class="cls-3" d="M307.57,154.82h-3.41l-.88,1.93H302l4-8.46,3.79,8.46h-1.32Zm-.49-1.15L305.89,151l-1.23,2.71Z"/><path class="cls-3" d="M311.7,151.7v2.9a1.44,1.44,0,0,0,.22.91,1,1,0,0,0,.77.34,1,1,0,0,0,.76-.34,1.44,1.44,0,0,0,.22-.91v-2.9h1.18v2.93a2.15,2.15,0,0,1-.54,1.66,2.34,2.34,0,0,1-1.65.62,2.24,2.24,0,0,1-1.59-.62,2.11,2.11,0,0,1-.54-1.66V151.7Z"/><path class="cls-3" d="M317.63,152.78v4h-1.17v-4H316V151.7h.51V150a2.21,2.21,0,0,1,.49-1.58,1.57,1.57,0,0,1,1.2-.49,1.81,1.81,0,0,1,.75.14v1.17a1,1,0,0,0-.56-.18.68.68,0,0,0-.52.19.84.84,0,0,0-.19.6v1.9h1.27v1.08Z"/><path class="cls-3" d="M323.27,151.7h1.18v4.65a3.14,3.14,0,0,1-.83,2.62,2.54,2.54,0,0,1-1.68.54,2.23,2.23,0,0,1-1.66-.62,2.82,2.82,0,0,1-.74-1.57h1.14a1.7,1.7,0,0,0,.37.79,1.21,1.21,0,0,0,.91.35,1.31,1.31,0,0,0,.93-.34,1.67,1.67,0,0,0,.38-1.27v-.66a1.84,1.84,0,0,1-1.54.72,2.15,2.15,0,0,1-1.66-.68,2.86,2.86,0,0,1-.76-2,2.65,2.65,0,0,1,.75-1.95,2.27,2.27,0,0,1,1.71-.7,1.9,1.9,0,0,1,1.5.69ZM321,153a1.78,1.78,0,0,0-.52,1.29,1.75,1.75,0,0,0,.5,1.27,1.39,1.39,0,0,0,.9.33,1.28,1.28,0,0,0,1-.4,1.88,1.88,0,0,0,0-2.46,1.24,1.24,0,0,0-.95-.36A1.2,1.2,0,0,0,321,153Z"/><path class="cls-3" d="M329.63,151.7h1.18v5.05h-1.18v-.52a1.93,1.93,0,0,1-1.51.68,2.5,2.5,0,0,1-2.45-2.69,2.47,2.47,0,0,1,2.46-2.65,1.86,1.86,0,0,1,1.5.72Zm-2.76,2.55a1.47,1.47,0,0,0,1.4,1.6,1.62,1.62,0,0,0,0-3.22A1.47,1.47,0,0,0,326.87,154.25Z"/><path class="cls-3" d="M333.47,152.29a1.86,1.86,0,0,1,1.5-.72,2.47,2.47,0,0,1,2.46,2.65,2.5,2.5,0,0,1-2.45,2.69,1.93,1.93,0,0,1-1.51-.68v.52H332.3V148h1.17Zm-.07,2a1.44,1.44,0,0,0,1.43,1.59,1.63,1.63,0,0,0,0-3.22A1.45,1.45,0,0,0,333.4,154.26Z"/><path class="cls-3" d="M343.18,155.6a2.74,2.74,0,0,1-.85.93,2.83,2.83,0,0,1-1.49.38,2.24,2.24,0,0,1-1.7-.65,2.7,2.7,0,0,1-.75-1.93,2.94,2.94,0,0,1,.81-2.07,2.3,2.3,0,0,1,1.69-.69,2.19,2.19,0,0,1,1.62.66,3.06,3.06,0,0,1,.7,2.14v.14h-3.62a1.71,1.71,0,0,0,.43,1,1.2,1.2,0,0,0,.9.32,1.24,1.24,0,0,0,.81-.25,1.69,1.69,0,0,0,.46-.55Zm-1.17-2a1.24,1.24,0,0,0-.35-.68,1.12,1.12,0,0,0-.8-.29,1.14,1.14,0,0,0-.82.32,1.34,1.34,0,0,0-.36.65Z"/><rect class="cls-1" x="428.29" width="392.31" height="196.34" rx="5"/><rect class="cls-2" x="448.45" y="20.21" width="110.67" height="45.33" rx="14.61"/><rect class="cls-2" x="448.45" y="75.54" width="110.67" height="45.33" rx="14.61"/><rect class="cls-2" x="448.45" y="130.88" width="110.67" height="45.33" rx="14.61"/><rect class="cls-2" x="569.11" y="20.21" width="110.67" height="45.33" rx="14.61"/><rect class="cls-2" x="569.11" y="75.54" width="110.67" height="45.33" rx="14.61"/><rect class="cls-2" x="569.11" y="130.88" width="110.67" height="45.33" rx="14.61"/><rect class="cls-2" x="689.78" y="20.21" width="110.67" height="45.33" rx="14.61"/><rect class="cls-2" x="689.78" y="75.54" width="110.67" height="45.33" rx="14.61"/><rect class="cls-2" x="689.78" y="130.88" width="110.67" height="45.33" rx="14.61"/><path class="cls-3" d="M488.55,44.33h-3.42l-.88,1.93h-1.32l4-8.47,3.79,8.47h-1.32Zm-.49-1.15-1.19-2.71-1.24,2.71Z"/><path class="cls-3" d="M492.68,41.21V44.1a1.46,1.46,0,0,0,.21.91,1,1,0,0,0,.77.35.94.94,0,0,0,.77-.35,1.46,1.46,0,0,0,.21-.91V41.21h1.18v2.93a2.1,2.1,0,0,1-.54,1.65,2.29,2.29,0,0,1-1.64.62,2.22,2.22,0,0,1-1.6-.62,2.1,2.1,0,0,1-.54-1.65V41.21Z"/><path class="cls-3" d="M498.61,42.29v4h-1.18v-4h-.5V41.21h.5V39.46a2.21,2.21,0,0,1,.49-1.58,1.59,1.59,0,0,1,1.2-.5,1.87,1.87,0,0,1,.76.15v1.16a1.06,1.06,0,0,0-.57-.18.66.66,0,0,0-.51.19.84.84,0,0,0-.19.6v1.91h1.27v1.08Z"/><path class="cls-3" d="M504.24,41.21h1.18v4.64a3.12,3.12,0,0,1-.83,2.63,2.58,2.58,0,0,1-1.68.54,2.24,2.24,0,0,1-1.65-.63,2.9,2.9,0,0,1-.75-1.57h1.14a1.67,1.67,0,0,0,.38.79,1.18,1.18,0,0,0,.91.35,1.27,1.27,0,0,0,.92-.33,1.69,1.69,0,0,0,.38-1.28V45.7a1.82,1.82,0,0,1-1.53.71,2.15,2.15,0,0,1-1.67-.68,2.87,2.87,0,0,1-.75-2,2.67,2.67,0,0,1,.74-2,2.31,2.31,0,0,1,1.72-.69,1.9,1.9,0,0,1,1.49.68ZM502,42.47a1.73,1.73,0,0,0-.51,1.28A1.71,1.71,0,0,0,502,45a1.35,1.35,0,0,0,.9.34,1.28,1.28,0,0,0,1-.41,1.67,1.67,0,0,0,.45-1.19,1.69,1.69,0,0,0-.48-1.27,1.38,1.38,0,0,0-1.84,0Z"/><path class="cls-3" d="M510.6,41.21h1.18v5H510.6v-.53a1.92,1.92,0,0,1-1.51.68,2.49,2.49,0,0,1-2.44-2.68,2.46,2.46,0,0,1,2.46-2.65,1.8,1.8,0,0,1,1.49.72Zm-2.75,2.54a1.47,1.47,0,0,0,1.4,1.61,1.63,1.63,0,0,0,0-3.23A1.47,1.47,0,0,0,507.85,43.75Z"/><path class="cls-3" d="M514.45,41.8a1.82,1.82,0,0,1,1.5-.72,2.46,2.46,0,0,1,2.45,2.65A2.49,2.49,0,0,1,516,46.41a1.92,1.92,0,0,1-1.51-.68v.53h-1.18V37.52h1.18Zm-.08,2a1.45,1.45,0,0,0,1.43,1.6,1.63,1.63,0,0,0,0-3.23A1.45,1.45,0,0,0,514.37,43.76Z"/><path class="cls-3" d="M524.15,45.11a2.52,2.52,0,0,1-.85.92,2.83,2.83,0,0,1-1.49.38,2.23,2.23,0,0,1-1.7-.64,2.71,2.71,0,0,1-.74-1.93,3,3,0,0,1,.8-2.08,2.29,2.29,0,0,1,1.69-.68,2.17,2.17,0,0,1,1.62.66,3,3,0,0,1,.71,2.13V44h-3.62a1.68,1.68,0,0,0,.43,1,1.21,1.21,0,0,0,.9.32,1.23,1.23,0,0,0,.8-.25,1.84,1.84,0,0,0,.47-.55Zm-1.16-2a1.24,1.24,0,0,0-.36-.69,1.16,1.16,0,0,0-.79-.29,1.13,1.13,0,0,0-.83.33,1.26,1.26,0,0,0-.36.65Z"/><path class="cls-3" d="M609.21,44.33H605.8l-.88,1.93H603.6l4-8.47,3.79,8.47h-1.32Zm-.49-1.15-1.18-2.71-1.24,2.71Z"/><path class="cls-3" d="M613.34,41.21V44.1a1.47,1.47,0,0,0,.22.91,1,1,0,0,0,.77.35,1,1,0,0,0,.77-.35,1.46,1.46,0,0,0,.21-.91V41.21h1.18v2.93a2.1,2.1,0,0,1-.54,1.65,2.29,2.29,0,0,1-1.65.62,2.21,2.21,0,0,1-1.59-.62,2.1,2.1,0,0,1-.54-1.65V41.21Z"/><path class="cls-3" d="M619.27,42.29v4H618.1v-4h-.51V41.21h.51V39.46a2.26,2.26,0,0,1,.49-1.59,1.6,1.6,0,0,1,1.2-.49,1.83,1.83,0,0,1,.75.15v1.16a1,1,0,0,0-.56-.18.69.69,0,0,0-.52.19.84.84,0,0,0-.19.6v1.91h1.27v1.08Z"/><path class="cls-3" d="M624.91,41.21h1.18v4.64a3.12,3.12,0,0,1-.83,2.63,2.58,2.58,0,0,1-1.68.54,2.24,2.24,0,0,1-1.66-.63,2.89,2.89,0,0,1-.74-1.57h1.14a1.66,1.66,0,0,0,.37.79,1.19,1.19,0,0,0,.91.35,1.29,1.29,0,0,0,.93-.33,1.69,1.69,0,0,0,.38-1.28v-.66a1.81,1.81,0,0,1-1.53.72,2.15,2.15,0,0,1-1.67-.68,2.83,2.83,0,0,1-.76-2,2.68,2.68,0,0,1,.75-2,2.3,2.3,0,0,1,1.71-.69,1.87,1.87,0,0,1,1.5.68Zm-2.24,1.26a1.74,1.74,0,0,0-.52,1.28,1.68,1.68,0,0,0,.51,1.27,1.38,1.38,0,0,0,.9.34,1.28,1.28,0,0,0,1-.41,1.66,1.66,0,0,0,.44-1.19,1.69,1.69,0,0,0-.48-1.27,1.37,1.37,0,0,0-1.83,0Z"/><path class="cls-3" d="M631.27,41.21h1.18v5h-1.18v-.53a1.92,1.92,0,0,1-1.51.68,2.5,2.5,0,0,1-2.45-2.68,2.47,2.47,0,0,1,2.46-2.65,1.83,1.83,0,0,1,1.5.72Zm-2.76,2.54a1.47,1.47,0,0,0,1.41,1.61,1.63,1.63,0,0,0,0-3.23A1.47,1.47,0,0,0,628.51,43.75Z"/><path class="cls-3" d="M635.11,41.8a1.83,1.83,0,0,1,1.5-.72,2.47,2.47,0,0,1,2.46,2.65,2.5,2.5,0,0,1-2.45,2.68,1.93,1.93,0,0,1-1.51-.68v.53h-1.17V37.51h1.17Zm-.07,2a1.44,1.44,0,0,0,1.43,1.6,1.63,1.63,0,0,0,0-3.23A1.45,1.45,0,0,0,635,43.76Z"/><path class="cls-3" d="M644.82,45.11A2.71,2.71,0,0,1,644,46a2.83,2.83,0,0,1-1.49.38,2.23,2.23,0,0,1-1.7-.64,2.72,2.72,0,0,1-.75-1.93,3,3,0,0,1,.81-2.08,2.29,2.29,0,0,1,1.69-.68,2.15,2.15,0,0,1,1.62.66,3,3,0,0,1,.71,2.13V44h-3.63a1.64,1.64,0,0,0,.44,1,1.18,1.18,0,0,0,.9.33,1.23,1.23,0,0,0,.8-.25,1.9,1.9,0,0,0,.47-.56Zm-1.16-2a1.24,1.24,0,0,0-.36-.69,1.17,1.17,0,0,0-.8-.29,1.1,1.1,0,0,0-.82.33,1.26,1.26,0,0,0-.36.65Z"/><path class="cls-3" d="M729.88,44.33h-3.42l-.87,1.93h-1.32l4-8.47L732,46.26h-1.32Zm-.49-1.15-1.19-2.71L727,43.18Z"/><path class="cls-3" d="M734,41.21V44.1a1.41,1.41,0,0,0,.22.91.92.92,0,0,0,.76.35.94.94,0,0,0,.77-.35,1.47,1.47,0,0,0,.22-.91V41.21h1.17v2.93a2.1,2.1,0,0,1-.54,1.65,2.27,2.27,0,0,1-1.64.62,2.22,2.22,0,0,1-1.6-.62,2.14,2.14,0,0,1-.54-1.65V41.21Z"/><path class="cls-3" d="M739.94,42.29v4h-1.18v-4h-.5V41.21h.5V39.46a2.26,2.26,0,0,1,.49-1.58,1.59,1.59,0,0,1,1.2-.5,1.84,1.84,0,0,1,.76.15v1.16a1.06,1.06,0,0,0-.57-.18.67.67,0,0,0-.51.19.84.84,0,0,0-.19.6v1.91h1.27v1.08Z"/><path class="cls-3" d="M745.58,41.21h1.17v4.64a3.12,3.12,0,0,1-.83,2.63,2.57,2.57,0,0,1-1.67.54,2.24,2.24,0,0,1-1.66-.63,2.82,2.82,0,0,1-.74-1.57H743a1.57,1.57,0,0,0,.37.79,1.18,1.18,0,0,0,.91.35,1.27,1.27,0,0,0,.92-.33,1.66,1.66,0,0,0,.39-1.28V45.7a1.83,1.83,0,0,1-1.54.71,2.15,2.15,0,0,1-1.67-.68,2.87,2.87,0,0,1-.75-2,2.71,2.71,0,0,1,.74-2,2.33,2.33,0,0,1,1.72-.69,1.93,1.93,0,0,1,1.5.68Zm-2.25,1.26a1.73,1.73,0,0,0-.51,1.28,1.71,1.71,0,0,0,.5,1.27,1.35,1.35,0,0,0,.9.34,1.27,1.27,0,0,0,1-.41,1.67,1.67,0,0,0,.45-1.19,1.69,1.69,0,0,0-.48-1.27,1.38,1.38,0,0,0-1.84,0Z"/><path class="cls-3" d="M751.94,41.21h1.17v5h-1.17v-.53a1.93,1.93,0,0,1-1.51.68A2.5,2.5,0,0,1,748,43.73a2.47,2.47,0,0,1,2.46-2.65,1.83,1.83,0,0,1,1.5.72Zm-2.76,2.54a1.47,1.47,0,0,0,1.4,1.61,1.63,1.63,0,0,0,0-3.23A1.47,1.47,0,0,0,749.18,43.75Z"/><path class="cls-3" d="M755.78,41.8a1.83,1.83,0,0,1,1.5-.72,2.47,2.47,0,0,1,2.46,2.65,2.5,2.5,0,0,1-2.45,2.68,1.92,1.92,0,0,1-1.51-.68v.53H754.6V37.52h1.18Zm-.07,2a1.44,1.44,0,0,0,1.42,1.6,1.63,1.63,0,0,0,0-3.23A1.45,1.45,0,0,0,755.71,43.76Z"/><path class="cls-3" d="M765.48,45.11a2.52,2.52,0,0,1-.85.92,2.77,2.77,0,0,1-1.48.38,2.24,2.24,0,0,1-1.71-.64,2.71,2.71,0,0,1-.74-1.93,3,3,0,0,1,.8-2.08,2.29,2.29,0,0,1,1.69-.68,2.17,2.17,0,0,1,1.62.66,3,3,0,0,1,.71,2.13V44H761.9a1.68,1.68,0,0,0,.43,1,1.42,1.42,0,0,0,1.7.07,1.84,1.84,0,0,0,.47-.55Zm-1.16-2a1.24,1.24,0,0,0-.36-.69,1.21,1.21,0,0,0-1.62,0,1.26,1.26,0,0,0-.36.65Z"/><path class="cls-3" d="M488.55,99.66h-3.42l-.88,1.93h-1.31l4-8.47,3.79,8.47h-1.32Zm-.49-1.15-1.19-2.71-1.24,2.71Z"/><path class="cls-3" d="M492.68,96.54v2.89a1.46,1.46,0,0,0,.21.91,1,1,0,0,0,.77.35.94.94,0,0,0,.77-.35,1.47,1.47,0,0,0,.22-.91V96.54h1.17v2.93a2.08,2.08,0,0,1-.54,1.65,2.28,2.28,0,0,1-1.64.63,2.23,2.23,0,0,1-1.6-.63,2.12,2.12,0,0,1-.54-1.65V96.54Z"/><path class="cls-3" d="M498.61,97.62v4h-1.18v-4h-.5V96.54h.5V94.79a2.21,2.21,0,0,1,.49-1.58,1.59,1.59,0,0,1,1.2-.49,1.86,1.86,0,0,1,.76.14V94a1.06,1.06,0,0,0-.57-.18.67.67,0,0,0-.51.2.84.84,0,0,0-.19.6v1.9h1.27v1.08Z"/><path class="cls-3" d="M504.25,96.54h1.17v4.64a3.12,3.12,0,0,1-.83,2.63,2.58,2.58,0,0,1-1.68.54,2.23,2.23,0,0,1-1.65-.62,2.85,2.85,0,0,1-.74-1.57h1.13a1.72,1.72,0,0,0,.38.79,1.21,1.21,0,0,0,.91.34,1.27,1.27,0,0,0,.92-.33,1.64,1.64,0,0,0,.39-1.27V101a1.84,1.84,0,0,1-1.54.72,2.13,2.13,0,0,1-1.67-.69,2.87,2.87,0,0,1-.75-2,2.65,2.65,0,0,1,.74-2,2.29,2.29,0,0,1,1.72-.7,1.93,1.93,0,0,1,1.5.68ZM502,97.8a1.87,1.87,0,0,0,0,2.56,1.39,1.39,0,0,0,.9.33,1.27,1.27,0,0,0,1-.41,1.85,1.85,0,0,0,0-2.45,1.4,1.4,0,0,0-1.84,0Z"/><path class="cls-3" d="M510.61,96.54h1.17v5h-1.17v-.53a2,2,0,0,1-1.52.69,2.5,2.5,0,0,1-2.44-2.69,2.47,2.47,0,0,1,2.46-2.65,1.86,1.86,0,0,1,1.5.72Zm-2.76,2.54a1.47,1.47,0,0,0,1.4,1.61,1.62,1.62,0,0,0,0-3.22A1.47,1.47,0,0,0,507.85,99.08Z"/><path class="cls-3" d="M514.45,97.13a1.84,1.84,0,0,1,1.5-.72,2.47,2.47,0,0,1,2.46,2.65,2.5,2.5,0,0,1-2.45,2.69,1.94,1.94,0,0,1-1.51-.69v.53h-1.18V92.85h1.18Zm-.07,2a1.44,1.44,0,0,0,1.42,1.59,1.62,1.62,0,0,0,0-3.22A1.44,1.44,0,0,0,514.38,99.1Z"/><path class="cls-3" d="M524.15,100.44a2.52,2.52,0,0,1-.85.92,2.73,2.73,0,0,1-1.48.39,2.24,2.24,0,0,1-1.71-.65,2.71,2.71,0,0,1-.74-1.93,3,3,0,0,1,.8-2.08,2.29,2.29,0,0,1,1.69-.68,2.17,2.17,0,0,1,1.62.66,3,3,0,0,1,.71,2.13v.15h-3.62a1.65,1.65,0,0,0,.43,1,1.42,1.42,0,0,0,1.7.07,1.84,1.84,0,0,0,.47-.55Zm-1.16-2a1.18,1.18,0,0,0-.36-.68,1.11,1.11,0,0,0-.79-.29,1.17,1.17,0,0,0-.83.32,1.34,1.34,0,0,0-.36.65Z"/><path class="cls-3" d="M609.21,99.66H605.8l-.88,1.93H603.6l4-8.47,3.79,8.47h-1.32Zm-.49-1.15-1.18-2.71-1.24,2.71Z"/><path class="cls-3" d="M613.34,96.54v2.89a1.47,1.47,0,0,0,.22.91.94.94,0,0,0,.77.35,1,1,0,0,0,.77-.35,1.46,1.46,0,0,0,.21-.91V96.54h1.18v2.93a2.08,2.08,0,0,1-.54,1.65,2.3,2.3,0,0,1-1.65.63,2.22,2.22,0,0,1-1.59-.63,2.08,2.08,0,0,1-.54-1.65V96.54Z"/><path class="cls-3" d="M619.27,97.62v4H618.1v-4h-.51V96.54h.51V94.79a2.21,2.21,0,0,1,.49-1.58,1.57,1.57,0,0,1,1.2-.49,1.81,1.81,0,0,1,.75.14V94a1,1,0,0,0-.56-.18.7.7,0,0,0-.52.2.84.84,0,0,0-.19.6v1.9h1.27v1.08Z"/><path class="cls-3" d="M624.91,96.54h1.18v4.64a3.12,3.12,0,0,1-.83,2.63,2.58,2.58,0,0,1-1.68.54,2.23,2.23,0,0,1-1.66-.62,2.92,2.92,0,0,1-.74-1.57h1.14a1.7,1.7,0,0,0,.37.79,1.23,1.23,0,0,0,.91.34,1.29,1.29,0,0,0,.93-.33,1.67,1.67,0,0,0,.38-1.27V101a1.84,1.84,0,0,1-1.53.72,2.13,2.13,0,0,1-1.67-.69,2.83,2.83,0,0,1-.76-2,2.65,2.65,0,0,1,.75-2,2.27,2.27,0,0,1,1.71-.7,1.9,1.9,0,0,1,1.5.68Zm-2.24,1.26a1.77,1.77,0,0,0-.52,1.28,1.72,1.72,0,0,0,.51,1.28,1.37,1.37,0,0,0,.9.33,1.28,1.28,0,0,0,1-.41,1.86,1.86,0,0,0,0-2.45,1.22,1.22,0,0,0-.94-.36A1.21,1.21,0,0,0,622.67,97.8Z"/><path class="cls-3" d="M631.27,96.54h1.18v5h-1.18v-.53a1.94,1.94,0,0,1-1.51.69,2.5,2.5,0,0,1-2.45-2.69,2.47,2.47,0,0,1,2.46-2.65,1.86,1.86,0,0,1,1.5.72Zm-2.76,2.54a1.47,1.47,0,0,0,1.41,1.61,1.62,1.62,0,0,0,0-3.22A1.47,1.47,0,0,0,628.51,99.08Z"/><path class="cls-3" d="M635.11,97.13a1.86,1.86,0,0,1,1.5-.72,2.47,2.47,0,0,1,2.46,2.65,2.5,2.5,0,0,1-2.45,2.69,2,2,0,0,1-1.51-.69v.53h-1.17V92.85h1.17Zm-.07,2a1.44,1.44,0,0,0,1.43,1.59,1.63,1.63,0,0,0,0-3.22A1.44,1.44,0,0,0,635,99.1Z"/><path class="cls-3" d="M644.82,100.44a2.71,2.71,0,0,1-.85.92,2.74,2.74,0,0,1-1.49.39,2.24,2.24,0,0,1-1.7-.65,2.72,2.72,0,0,1-.75-1.93,3,3,0,0,1,.81-2.08,2.29,2.29,0,0,1,1.69-.68,2.19,2.19,0,0,1,1.62.66,3,3,0,0,1,.71,2.13v.15h-3.63a1.66,1.66,0,0,0,.44,1,1.21,1.21,0,0,0,.9.32,1.23,1.23,0,0,0,.8-.25,2,2,0,0,0,.47-.55Zm-1.16-2a1.18,1.18,0,0,0-.36-.68,1.12,1.12,0,0,0-.8-.29,1.14,1.14,0,0,0-.82.32,1.34,1.34,0,0,0-.36.65Z"/><path class="cls-3" d="M729.88,99.57h-3.42l-.87,1.94h-1.32l4-8.47,3.79,8.47h-1.32Zm-.49-1.15-1.19-2.71L727,98.42Z"/><path class="cls-3" d="M734,96.46v2.89a1.42,1.42,0,0,0,.22.91,1,1,0,0,0,.76.35,1,1,0,0,0,.77-.35,1.49,1.49,0,0,0,.22-.91V96.46h1.17v2.92a2.11,2.11,0,0,1-.54,1.66,2.31,2.31,0,0,1-1.64.62,2.22,2.22,0,0,1-1.6-.62,2.15,2.15,0,0,1-.54-1.66V96.46Z"/><path class="cls-3" d="M739.94,97.54v4h-1.18v-4h-.5V96.46h.5V94.71a2.29,2.29,0,0,1,.49-1.59,1.59,1.59,0,0,1,1.2-.49,2,2,0,0,1,.76.14v1.17a1,1,0,0,0-.57-.18.67.67,0,0,0-.51.19.84.84,0,0,0-.19.6v1.91h1.27v1.08Z"/><path class="cls-3" d="M745.58,96.46h1.17v4.64a3.09,3.09,0,0,1-.83,2.62,2.51,2.51,0,0,1-1.67.54,2.23,2.23,0,0,1-1.66-.62,2.82,2.82,0,0,1-.74-1.57H743a1.57,1.57,0,0,0,.37.79,1.18,1.18,0,0,0,.91.35,1.22,1.22,0,0,0,.92-.34,1.64,1.64,0,0,0,.39-1.27v-.66a1.82,1.82,0,0,1-1.54.72,2.15,2.15,0,0,1-1.67-.68,2.87,2.87,0,0,1-.75-2,2.71,2.71,0,0,1,.74-2,2.31,2.31,0,0,1,1.72-.7,1.91,1.91,0,0,1,1.5.69Zm-2.25,1.26a1.86,1.86,0,0,0,0,2.55,1.4,1.4,0,0,0,.9.34,1.27,1.27,0,0,0,1-.41,1.67,1.67,0,0,0,.45-1.19,1.69,1.69,0,0,0-.48-1.27,1.24,1.24,0,0,0-.95-.36A1.21,1.21,0,0,0,743.33,97.72Z"/><path class="cls-3" d="M751.94,96.46h1.17v5.05h-1.17V101a1.93,1.93,0,0,1-1.51.68,2.68,2.68,0,0,1,0-5.34,1.86,1.86,0,0,1,1.5.72ZM749.18,99a1.47,1.47,0,0,0,1.4,1.61,1.63,1.63,0,0,0,0-3.23A1.47,1.47,0,0,0,749.18,99Z"/><path class="cls-3" d="M755.78,97a1.86,1.86,0,0,1,1.5-.72,2.68,2.68,0,0,1,0,5.34,1.92,1.92,0,0,1-1.51-.68v.53H754.6V92.76h1.18Zm-.07,2a1.44,1.44,0,0,0,1.42,1.6,1.63,1.63,0,0,0,0-3.23A1.45,1.45,0,0,0,755.71,99Z"/><path class="cls-3" d="M765.48,100.35a2.56,2.56,0,0,1-.85.93,2.77,2.77,0,0,1-1.48.38,2.24,2.24,0,0,1-1.71-.65,2.7,2.7,0,0,1-.74-1.93,3,3,0,0,1,.8-2.07,2.3,2.3,0,0,1,1.69-.69,2.17,2.17,0,0,1,1.62.66,3,3,0,0,1,.71,2.14v.14H761.9a1.65,1.65,0,0,0,.43,1,1.2,1.2,0,0,0,.9.33,1.24,1.24,0,0,0,.8-.26,1.73,1.73,0,0,0,.47-.55Zm-1.16-2a1.25,1.25,0,0,0-.36-.68,1.21,1.21,0,0,0-1.62,0,1.27,1.27,0,0,0-.36.64Z"/><path class="cls-3" d="M488.55,154.82h-3.42l-.88,1.93h-1.32l4-8.46,3.79,8.46h-1.32Zm-.49-1.15L486.87,151l-1.24,2.71Z"/><path class="cls-3" d="M492.68,151.7v2.9a1.5,1.5,0,0,0,.21.91,1,1,0,0,0,.77.34,1,1,0,0,0,.77-.34,1.5,1.5,0,0,0,.21-.91v-2.9h1.18v2.93a2.11,2.11,0,0,1-.54,1.66,2.33,2.33,0,0,1-1.64.62,2.26,2.26,0,0,1-1.6-.62,2.11,2.11,0,0,1-.54-1.66V151.7Z"/><path class="cls-3" d="M498.61,152.78v4h-1.18v-4h-.5V151.7h.5V150a2.21,2.21,0,0,1,.49-1.58,1.59,1.59,0,0,1,1.2-.49,1.86,1.86,0,0,1,.76.14v1.17a1,1,0,0,0-.57-.18.66.66,0,0,0-.51.19.84.84,0,0,0-.19.6v1.9h1.27v1.08Z"/><path class="cls-3" d="M504.24,151.7h1.18v4.65a3.11,3.11,0,0,1-.83,2.62,2.52,2.52,0,0,1-1.68.54,2.23,2.23,0,0,1-1.65-.62,2.9,2.9,0,0,1-.75-1.57h1.14a1.72,1.72,0,0,0,.38.79,1.21,1.21,0,0,0,.91.35,1.26,1.26,0,0,0,.92-.34,1.67,1.67,0,0,0,.38-1.27v-.66a1.84,1.84,0,0,1-1.53.72,2.15,2.15,0,0,1-1.67-.68,2.89,2.89,0,0,1-.75-2,2.65,2.65,0,0,1,.74-1.95,2.28,2.28,0,0,1,1.72-.7,1.88,1.88,0,0,1,1.49.69ZM502,153a1.77,1.77,0,0,0-.51,1.29,1.75,1.75,0,0,0,.5,1.27,1.39,1.39,0,0,0,.9.33,1.27,1.27,0,0,0,1-.4,1.86,1.86,0,0,0,0-2.46,1.26,1.26,0,0,0-.95-.36A1.24,1.24,0,0,0,502,153Z"/><path class="cls-3" d="M510.6,151.7h1.18v5.05H510.6v-.52a1.92,1.92,0,0,1-1.51.68,2.5,2.5,0,0,1-2.44-2.69,2.47,2.47,0,0,1,2.46-2.65,1.83,1.83,0,0,1,1.49.72Zm-2.75,2.55a1.47,1.47,0,0,0,1.4,1.6,1.62,1.62,0,0,0,0-3.22A1.47,1.47,0,0,0,507.85,154.25Z"/><path class="cls-3" d="M514.45,152.29a1.84,1.84,0,0,1,1.5-.72,2.46,2.46,0,0,1,2.45,2.65,2.5,2.5,0,0,1-2.44,2.69,1.92,1.92,0,0,1-1.51-.68v.52h-1.18V148h1.18Zm-.08,2a1.44,1.44,0,0,0,1.43,1.59,1.62,1.62,0,0,0,0-3.22A1.45,1.45,0,0,0,514.37,154.26Z"/><path class="cls-3" d="M524.15,155.6a2.56,2.56,0,0,1-.85.93,2.83,2.83,0,0,1-1.49.38,2.24,2.24,0,0,1-1.7-.65,2.7,2.7,0,0,1-.74-1.93,2.93,2.93,0,0,1,.8-2.07,2.3,2.3,0,0,1,1.69-.69,2.17,2.17,0,0,1,1.62.66,3,3,0,0,1,.71,2.14v.14h-3.62a1.65,1.65,0,0,0,.43,1,1.17,1.17,0,0,0,.9.32,1.23,1.23,0,0,0,.8-.25,1.73,1.73,0,0,0,.47-.55Zm-1.16-2a1.25,1.25,0,0,0-.36-.68,1.11,1.11,0,0,0-.79-.29,1.17,1.17,0,0,0-.83.32,1.34,1.34,0,0,0-.36.65Z"/><path class="cls-3" d="M609.21,155H605.8l-.88,1.94H603.6l4-8.47,3.79,8.47h-1.32Zm-.49-1.15-1.18-2.71-1.24,2.71Z"/><path class="cls-3" d="M613.34,151.88v2.89a1.49,1.49,0,0,0,.22.91,1,1,0,0,0,.77.35,1,1,0,0,0,.77-.35,1.48,1.48,0,0,0,.21-.91v-2.89h1.18v2.92a2.11,2.11,0,0,1-.54,1.66,2.34,2.34,0,0,1-1.65.62,2.21,2.21,0,0,1-1.59-.62,2.11,2.11,0,0,1-.54-1.66v-2.92Z"/><path class="cls-3" d="M619.27,153v4H618.1v-4h-.51v-1.08h.51v-1.76a2.23,2.23,0,0,1,.49-1.58,1.57,1.57,0,0,1,1.2-.49,2,2,0,0,1,.75.14v1.17a1,1,0,0,0-.56-.18.69.69,0,0,0-.52.19.84.84,0,0,0-.19.6v1.91h1.27V153Z"/><path class="cls-3" d="M624.91,151.88h1.18v4.64a3.1,3.1,0,0,1-.83,2.62,2.52,2.52,0,0,1-1.68.54,2.23,2.23,0,0,1-1.66-.62,2.89,2.89,0,0,1-.74-1.57h1.14a1.7,1.7,0,0,0,.37.79,1.19,1.19,0,0,0,.91.35,1.25,1.25,0,0,0,.93-.34,1.67,1.67,0,0,0,.38-1.27v-.66a1.81,1.81,0,0,1-1.53.72,2.15,2.15,0,0,1-1.67-.68,2.86,2.86,0,0,1-.76-2,2.67,2.67,0,0,1,.75-1.95,2.27,2.27,0,0,1,1.71-.7,1.88,1.88,0,0,1,1.5.69Zm-2.24,1.26a1.74,1.74,0,0,0-.52,1.28,1.72,1.72,0,0,0,.51,1.27,1.38,1.38,0,0,0,.9.34,1.28,1.28,0,0,0,1-.41,1.67,1.67,0,0,0,.44-1.19,1.69,1.69,0,0,0-.48-1.27,1.22,1.22,0,0,0-.94-.36A1.18,1.18,0,0,0,622.67,153.14Z"/><path class="cls-3" d="M631.27,151.88h1.18v5.05h-1.18v-.53a1.92,1.92,0,0,1-1.51.68,2.5,2.5,0,0,1-2.45-2.69,2.47,2.47,0,0,1,2.46-2.65,1.86,1.86,0,0,1,1.5.72Zm-2.76,2.54a1.48,1.48,0,0,0,1.41,1.61,1.63,1.63,0,0,0,0-3.23A1.47,1.47,0,0,0,628.51,154.42Z"/><path class="cls-3" d="M635.11,152.46a1.86,1.86,0,0,1,1.5-.72,2.47,2.47,0,0,1,2.46,2.65,2.5,2.5,0,0,1-2.45,2.69,1.93,1.93,0,0,1-1.51-.68v.53h-1.17v-8.75h1.17Zm-.07,2a1.44,1.44,0,0,0,1.43,1.6,1.63,1.63,0,0,0,0-3.23A1.45,1.45,0,0,0,635,154.43Z"/><path class="cls-3" d="M644.82,155.77a2.74,2.74,0,0,1-.85.93,2.83,2.83,0,0,1-1.49.38,2.24,2.24,0,0,1-1.7-.65,2.7,2.7,0,0,1-.75-1.93,2.94,2.94,0,0,1,.81-2.07,2.3,2.3,0,0,1,1.69-.69,2.19,2.19,0,0,1,1.62.66,3,3,0,0,1,.71,2.14v.14h-3.63a1.66,1.66,0,0,0,.44,1,1.18,1.18,0,0,0,.9.33,1.24,1.24,0,0,0,.8-.26,1.86,1.86,0,0,0,.47-.55Zm-1.16-2.05a1.25,1.25,0,0,0-.36-.68,1.17,1.17,0,0,0-.8-.29,1.14,1.14,0,0,0-.82.32,1.34,1.34,0,0,0-.36.65Z"/><path class="cls-3" d="M729.88,154.82h-3.42l-.87,1.93h-1.32l4-8.46,3.79,8.46h-1.32Zm-.49-1.15L728.2,151,727,153.67Z"/><path class="cls-3" d="M734,151.7v2.9a1.44,1.44,0,0,0,.22.91,1,1,0,0,0,.76.34,1,1,0,0,0,.77-.34,1.5,1.5,0,0,0,.22-.91v-2.9h1.17v2.93a2.11,2.11,0,0,1-.54,1.66,2.31,2.31,0,0,1-1.64.62,2.26,2.26,0,0,1-1.6-.62,2.15,2.15,0,0,1-.54-1.66V151.7Z"/><path class="cls-3" d="M739.94,152.78v4h-1.18v-4h-.5V151.7h.5V150a2.26,2.26,0,0,1,.49-1.58,1.59,1.59,0,0,1,1.2-.49,1.83,1.83,0,0,1,.76.14v1.17a1,1,0,0,0-.57-.18.67.67,0,0,0-.51.19.84.84,0,0,0-.19.6v1.9h1.27v1.08Z"/><path class="cls-3" d="M745.58,151.7h1.17v4.65a3.11,3.11,0,0,1-.83,2.62,2.51,2.51,0,0,1-1.67.54,2.23,2.23,0,0,1-1.66-.62,2.82,2.82,0,0,1-.74-1.57H743a1.61,1.61,0,0,0,.37.79,1.21,1.21,0,0,0,.91.35,1.26,1.26,0,0,0,.92-.34,1.64,1.64,0,0,0,.39-1.27v-.66a1.84,1.84,0,0,1-1.54.72,2.15,2.15,0,0,1-1.67-.68,2.89,2.89,0,0,1-.75-2,2.69,2.69,0,0,1,.74-1.95,2.31,2.31,0,0,1,1.72-.7,1.91,1.91,0,0,1,1.5.69ZM743.33,153a1.77,1.77,0,0,0-.51,1.29,1.75,1.75,0,0,0,.5,1.27,1.39,1.39,0,0,0,.9.33,1.26,1.26,0,0,0,1-.4,1.86,1.86,0,0,0,0-2.46,1.4,1.4,0,0,0-1.84,0Z"/><path class="cls-3" d="M751.94,151.7h1.17v5.05h-1.17v-.52a1.93,1.93,0,0,1-1.51.68,2.5,2.5,0,0,1-2.45-2.69,2.47,2.47,0,0,1,2.46-2.65,1.86,1.86,0,0,1,1.5.72Zm-2.76,2.55a1.47,1.47,0,0,0,1.4,1.6,1.62,1.62,0,0,0,0-3.22A1.47,1.47,0,0,0,749.18,154.25Z"/><path class="cls-3" d="M755.78,152.29a1.86,1.86,0,0,1,1.5-.72,2.47,2.47,0,0,1,2.46,2.65,2.5,2.5,0,0,1-2.45,2.69,1.92,1.92,0,0,1-1.51-.68v.52H754.6V148h1.18Zm-.07,2a1.44,1.44,0,0,0,1.42,1.59,1.62,1.62,0,0,0,0-3.22A1.45,1.45,0,0,0,755.71,154.26Z"/><path class="cls-3" d="M765.48,155.6a2.56,2.56,0,0,1-.85.93,2.77,2.77,0,0,1-1.48.38,2.24,2.24,0,0,1-1.71-.65,2.7,2.7,0,0,1-.74-1.93,3,3,0,0,1,.8-2.07,2.3,2.3,0,0,1,1.69-.69,2.17,2.17,0,0,1,1.62.66,3,3,0,0,1,.71,2.14v.14H761.9a1.65,1.65,0,0,0,.43,1,1.18,1.18,0,0,0,.9.32,1.23,1.23,0,0,0,.8-.25,1.73,1.73,0,0,0,.47-.55Zm-1.16-2a1.25,1.25,0,0,0-.36-.68,1.09,1.09,0,0,0-.79-.29,1.17,1.17,0,0,0-.83.32,1.34,1.34,0,0,0-.36.65Z"/><rect class="cls-1" x="850.6" width="392.31" height="196.34" rx="5"/><rect class="cls-2" x="870.75" y="20.21" width="110.67" height="45.33" rx="14.61"/><rect class="cls-2" x="870.75" y="75.54" width="110.67" height="45.33" rx="14.61"/><rect class="cls-2" x="870.75" y="130.88" width="110.67" height="45.33" rx="14.61"/><rect class="cls-2" x="991.42" y="20.21" width="110.67" height="45.33" rx="14.61"/><rect class="cls-2" x="991.42" y="75.54" width="110.67" height="45.33" rx="14.61"/><rect class="cls-2" x="991.42" y="130.88" width="110.67" height="45.33" rx="14.61"/><rect class="cls-2" x="1112.09" y="20.21" width="110.67" height="45.33" rx="14.61"/><rect class="cls-2" x="1112.09" y="75.54" width="110.67" height="45.33" rx="14.61"/><rect class="cls-2" x="1112.09" y="130.88" width="110.67" height="45.33" rx="14.61"/><path class="cls-3" d="M910.85,44.33h-3.41l-.88,1.93h-1.32l4-8.47L913,46.26h-1.32Zm-.49-1.15-1.19-2.71-1.23,2.71Z"/><path class="cls-3" d="M915,41.21V44.1a1.47,1.47,0,0,0,.22.91.94.94,0,0,0,.77.35,1,1,0,0,0,.77-.35,1.46,1.46,0,0,0,.21-.91V41.21h1.18v2.93a2.14,2.14,0,0,1-.54,1.65,2.29,2.29,0,0,1-1.65.62,2.19,2.19,0,0,1-1.59-.62,2.1,2.1,0,0,1-.54-1.65V41.21Z"/><path class="cls-3" d="M920.91,42.29v4h-1.17v-4h-.51V41.21h.51V39.46a2.21,2.21,0,0,1,.49-1.58,1.57,1.57,0,0,1,1.2-.5,1.83,1.83,0,0,1,.75.15v1.16a1,1,0,0,0-.56-.18.69.69,0,0,0-.52.19.84.84,0,0,0-.19.6v1.91h1.27v1.08Z"/><path class="cls-3" d="M926.55,41.21h1.18v4.64a3.15,3.15,0,0,1-.83,2.63,2.58,2.58,0,0,1-1.68.54,2.24,2.24,0,0,1-1.66-.63,2.89,2.89,0,0,1-.74-1.57H924a1.66,1.66,0,0,0,.37.79,1.19,1.19,0,0,0,.91.35,1.29,1.29,0,0,0,.93-.33,1.69,1.69,0,0,0,.38-1.28V45.7a1.82,1.82,0,0,1-1.53.71,2.15,2.15,0,0,1-1.67-.68,2.83,2.83,0,0,1-.76-2,2.68,2.68,0,0,1,.75-2,2.3,2.3,0,0,1,1.71-.69,1.9,1.9,0,0,1,1.5.68Zm-2.24,1.26a1.74,1.74,0,0,0-.52,1.28A1.68,1.68,0,0,0,924.3,45a1.33,1.33,0,0,0,.9.34,1.28,1.28,0,0,0,1-.41,1.66,1.66,0,0,0,.44-1.19,1.69,1.69,0,0,0-.48-1.27,1.37,1.37,0,0,0-1.83,0Z"/><path class="cls-3" d="M932.91,41.21h1.18v5h-1.18v-.53a1.92,1.92,0,0,1-1.51.68A2.5,2.5,0,0,1,929,43.73a2.47,2.47,0,0,1,2.46-2.65,1.83,1.83,0,0,1,1.5.72Zm-2.76,2.54a1.47,1.47,0,0,0,1.41,1.61,1.63,1.63,0,0,0,0-3.23A1.47,1.47,0,0,0,930.15,43.75Z"/><path class="cls-3" d="M936.75,41.8a1.83,1.83,0,0,1,1.5-.72,2.47,2.47,0,0,1,2.46,2.65,2.5,2.5,0,0,1-2.45,2.68,1.93,1.93,0,0,1-1.51-.68v.53h-1.17V37.52h1.17Zm-.07,2a1.44,1.44,0,0,0,1.43,1.6,1.63,1.63,0,0,0,0-3.23A1.45,1.45,0,0,0,936.68,43.76Z"/><path class="cls-3" d="M946.46,45.11a2.71,2.71,0,0,1-.85.92,2.83,2.83,0,0,1-1.49.38,2.23,2.23,0,0,1-1.7-.64,2.72,2.72,0,0,1-.75-1.93,3,3,0,0,1,.81-2.08,2.29,2.29,0,0,1,1.69-.68,2.19,2.19,0,0,1,1.62.66,3,3,0,0,1,.71,2.13V44h-3.63a1.69,1.69,0,0,0,.44,1,1.21,1.21,0,0,0,.9.32,1.23,1.23,0,0,0,.8-.25,2,2,0,0,0,.47-.55Zm-1.16-2a1.24,1.24,0,0,0-.36-.69,1.17,1.17,0,0,0-.8-.29,1.1,1.1,0,0,0-.82.33,1.26,1.26,0,0,0-.36.65Z"/><path class="cls-3" d="M1031.52,44.33h-3.42l-.87,1.93h-1.32l4-8.47,3.79,8.47h-1.32Zm-.49-1.15-1.19-2.71-1.23,2.71Z"/><path class="cls-3" d="M1035.65,41.21V44.1a1.41,1.41,0,0,0,.22.91,1,1,0,0,0,1.53,0,1.41,1.41,0,0,0,.22-.91V41.21h1.17v2.93a2.1,2.1,0,0,1-.54,1.65,2.27,2.27,0,0,1-1.64.62,2.18,2.18,0,0,1-1.59-.62,2.1,2.1,0,0,1-.54-1.65V41.21Z"/><path class="cls-3" d="M1041.58,42.29v4h-1.18v-4h-.5V41.21h.5V39.46a2.26,2.26,0,0,1,.5-1.59,1.58,1.58,0,0,1,1.19-.49,1.84,1.84,0,0,1,.76.15v1.16a1.06,1.06,0,0,0-.56-.18.68.68,0,0,0-.52.19.84.84,0,0,0-.19.6v1.91h1.27v1.08Z"/><path class="cls-3" d="M1047.22,41.21h1.17v4.64a3.15,3.15,0,0,1-.82,2.63,2.62,2.62,0,0,1-1.68.54,2.24,2.24,0,0,1-1.66-.63,2.82,2.82,0,0,1-.74-1.57h1.14a1.57,1.57,0,0,0,.37.79,1.18,1.18,0,0,0,.91.35,1.27,1.27,0,0,0,.92-.33,1.66,1.66,0,0,0,.39-1.28v-.66a1.82,1.82,0,0,1-1.54.72,2.15,2.15,0,0,1-1.66-.68,2.83,2.83,0,0,1-.76-2,2.71,2.71,0,0,1,.74-2,2.33,2.33,0,0,1,1.72-.69,1.89,1.89,0,0,1,1.5.68ZM1045,42.47a1.73,1.73,0,0,0-.51,1.28A1.71,1.71,0,0,0,1045,45a1.4,1.4,0,0,0,.9.34,1.3,1.3,0,0,0,1-.41,1.88,1.88,0,0,0,0-2.46,1.38,1.38,0,0,0-1.84,0Z"/><path class="cls-3" d="M1053.58,41.21h1.17v5h-1.17v-.53a1.93,1.93,0,0,1-1.51.68,2.5,2.5,0,0,1-2.45-2.68,2.47,2.47,0,0,1,2.46-2.65,1.83,1.83,0,0,1,1.5.72Zm-2.76,2.54a1.47,1.47,0,0,0,1.4,1.61,1.63,1.63,0,0,0,0-3.23A1.47,1.47,0,0,0,1050.82,43.75Z"/><path class="cls-3" d="M1057.42,41.8a1.83,1.83,0,0,1,1.5-.72,2.47,2.47,0,0,1,2.46,2.65,2.5,2.5,0,0,1-2.45,2.68,1.93,1.93,0,0,1-1.51-.68v.53h-1.18V37.51h1.18Zm-.07,2a1.44,1.44,0,0,0,1.43,1.6,1.63,1.63,0,0,0,0-3.23A1.45,1.45,0,0,0,1057.35,43.76Z"/><path class="cls-3" d="M1067.13,45.11a2.71,2.71,0,0,1-.85.92,2.83,2.83,0,0,1-1.49.38,2.25,2.25,0,0,1-1.71-.64,2.71,2.71,0,0,1-.74-1.93,3,3,0,0,1,.8-2.08,2.32,2.32,0,0,1,1.7-.68,2.15,2.15,0,0,1,1.62.66,3,3,0,0,1,.7,2.13V44h-3.62a1.62,1.62,0,0,0,.43,1,1.4,1.4,0,0,0,1.7.08,1.64,1.64,0,0,0,.47-.56Zm-1.17-2a1.19,1.19,0,0,0-.36-.69,1.21,1.21,0,0,0-1.62,0,1.33,1.33,0,0,0-.36.65Z"/><path class="cls-3" d="M1152.19,44.33h-3.42l-.88,1.93h-1.32l4-8.47,3.79,8.47H1153Zm-.49-1.15-1.19-2.71-1.24,2.71Z"/><path class="cls-3" d="M1156.32,41.21V44.1a1.46,1.46,0,0,0,.21.91,1,1,0,0,0,1.54,0,1.46,1.46,0,0,0,.21-.91V41.21h1.18v2.93a2.1,2.1,0,0,1-.54,1.65,2.29,2.29,0,0,1-1.64.62,2.22,2.22,0,0,1-1.6-.62,2.1,2.1,0,0,1-.54-1.65V41.21Z"/><path class="cls-3" d="M1162.25,42.29v4h-1.18v-4h-.5V41.21h.5V39.46a2.21,2.21,0,0,1,.49-1.58,1.59,1.59,0,0,1,1.2-.5,1.91,1.91,0,0,1,.76.15v1.16a1.06,1.06,0,0,0-.57-.18.66.66,0,0,0-.51.19.84.84,0,0,0-.19.6v1.91h1.27v1.08Z"/><path class="cls-3" d="M1167.88,41.21h1.18v4.64a3.12,3.12,0,0,1-.83,2.63,2.58,2.58,0,0,1-1.68.54,2.22,2.22,0,0,1-1.65-.63,2.9,2.9,0,0,1-.75-1.57h1.14a1.67,1.67,0,0,0,.38.79,1.18,1.18,0,0,0,.91.35,1.27,1.27,0,0,0,.92-.33,1.69,1.69,0,0,0,.38-1.28V45.7a1.82,1.82,0,0,1-1.53.71,2.15,2.15,0,0,1-1.67-.68,2.87,2.87,0,0,1-.75-2,2.67,2.67,0,0,1,.74-2,2.3,2.3,0,0,1,1.71-.69,1.9,1.9,0,0,1,1.5.68Zm-2.24,1.26a1.73,1.73,0,0,0-.51,1.28,1.71,1.71,0,0,0,.5,1.27,1.33,1.33,0,0,0,.9.34,1.28,1.28,0,0,0,1-.41,1.67,1.67,0,0,0,.45-1.19,1.69,1.69,0,0,0-.48-1.27,1.38,1.38,0,0,0-1.84,0Z"/><path class="cls-3" d="M1174.24,41.21h1.18v5h-1.18v-.53a1.92,1.92,0,0,1-1.51.68,2.49,2.49,0,0,1-2.44-2.68,2.46,2.46,0,0,1,2.46-2.65,1.81,1.81,0,0,1,1.49.72Zm-2.75,2.54a1.47,1.47,0,0,0,1.4,1.61,1.63,1.63,0,0,0,0-3.23A1.47,1.47,0,0,0,1171.49,43.75Z"/><path class="cls-3" d="M1178.09,41.8a1.81,1.81,0,0,1,1.49-.72,2.46,2.46,0,0,1,2.46,2.65,2.49,2.49,0,0,1-2.44,2.68,1.92,1.92,0,0,1-1.51-.68v.53h-1.18V37.52h1.18Zm-.08,2a1.45,1.45,0,0,0,1.43,1.6,1.63,1.63,0,0,0,0-3.23A1.45,1.45,0,0,0,1178,43.76Z"/><path class="cls-3" d="M1187.79,45.11a2.61,2.61,0,0,1-.85.92,2.83,2.83,0,0,1-1.49.38,2.23,2.23,0,0,1-1.7-.64,2.71,2.71,0,0,1-.74-1.93,3,3,0,0,1,.8-2.08,2.29,2.29,0,0,1,1.69-.68,2.17,2.17,0,0,1,1.62.66,3,3,0,0,1,.71,2.13V44h-3.62a1.68,1.68,0,0,0,.43,1,1.21,1.21,0,0,0,.9.32,1.23,1.23,0,0,0,.8-.25,2,2,0,0,0,.47-.55Zm-1.16-2a1.24,1.24,0,0,0-.36-.69,1.16,1.16,0,0,0-.79-.29,1.13,1.13,0,0,0-.83.33,1.26,1.26,0,0,0-.36.65Z"/><path class="cls-3" d="M910.86,99.66h-3.42l-.88,1.93h-1.32l4-8.47,3.79,8.47h-1.32Zm-.5-1.15-1.18-2.71-1.24,2.71Z"/><path class="cls-3" d="M915,96.54v2.89a1.46,1.46,0,0,0,.21.91.94.94,0,0,0,.77.35,1,1,0,0,0,.77-.35,1.46,1.46,0,0,0,.21-.91V96.54h1.18v2.93a2.08,2.08,0,0,1-.54,1.65,2.3,2.3,0,0,1-1.64.63,2.23,2.23,0,0,1-1.6-.63,2.08,2.08,0,0,1-.54-1.65V96.54Z"/><path class="cls-3" d="M920.91,97.62v4h-1.17v-4h-.51V96.54h.51V94.79a2.21,2.21,0,0,1,.49-1.58,1.59,1.59,0,0,1,1.2-.49,1.81,1.81,0,0,1,.75.14V94a1,1,0,0,0-.56-.18.7.7,0,0,0-.52.2.84.84,0,0,0-.19.6v1.9h1.27v1.08Z"/><path class="cls-3" d="M926.55,96.54h1.18v4.64a3.12,3.12,0,0,1-.83,2.63,2.58,2.58,0,0,1-1.68.54,2.2,2.2,0,0,1-1.65-.62,2.86,2.86,0,0,1-.75-1.57H924a1.7,1.7,0,0,0,.37.79,1.23,1.23,0,0,0,.91.34,1.29,1.29,0,0,0,.93-.33,1.67,1.67,0,0,0,.38-1.27V101a1.84,1.84,0,0,1-1.53.72,2.13,2.13,0,0,1-1.67-.69,2.83,2.83,0,0,1-.76-2,2.65,2.65,0,0,1,.75-2,2.27,2.27,0,0,1,1.71-.7,1.9,1.9,0,0,1,1.5.68Zm-2.24,1.26a1.85,1.85,0,0,0,0,2.56,1.37,1.37,0,0,0,.9.33,1.28,1.28,0,0,0,1-.41,1.86,1.86,0,0,0,0-2.45,1.22,1.22,0,0,0-.94-.36A1.21,1.21,0,0,0,924.31,97.8Z"/><path class="cls-3" d="M932.91,96.54h1.18v5h-1.18v-.53a1.94,1.94,0,0,1-1.51.69A2.5,2.5,0,0,1,929,99.06a2.47,2.47,0,0,1,2.46-2.65,1.84,1.84,0,0,1,1.5.72Zm-2.76,2.54a1.48,1.48,0,0,0,1.41,1.61,1.62,1.62,0,0,0,0-3.22A1.47,1.47,0,0,0,930.15,99.08Z"/><path class="cls-3" d="M936.75,97.13a1.86,1.86,0,0,1,1.5-.72,2.47,2.47,0,0,1,2.46,2.65,2.5,2.5,0,0,1-2.45,2.69,2,2,0,0,1-1.51-.69v.53h-1.17V92.85h1.17Zm-.07,2a1.44,1.44,0,0,0,1.43,1.59,1.63,1.63,0,0,0,0-3.22A1.45,1.45,0,0,0,936.68,99.1Z"/><path class="cls-3" d="M946.46,100.44a2.71,2.71,0,0,1-.85.92,2.74,2.74,0,0,1-1.49.39,2.24,2.24,0,0,1-1.7-.65,2.72,2.72,0,0,1-.75-1.93,3,3,0,0,1,.81-2.08,2.29,2.29,0,0,1,1.69-.68,2.19,2.19,0,0,1,1.62.66,3,3,0,0,1,.71,2.13v.15h-3.63a1.66,1.66,0,0,0,.44,1,1.21,1.21,0,0,0,.9.32,1.23,1.23,0,0,0,.8-.25,2,2,0,0,0,.47-.55Zm-1.16-2a1.18,1.18,0,0,0-.36-.68,1.11,1.11,0,0,0-.79-.29,1.15,1.15,0,0,0-.83.32,1.34,1.34,0,0,0-.36.65Z"/><path class="cls-3" d="M1031.52,99.66h-3.42l-.87,1.93h-1.32l4-8.47,3.79,8.47h-1.32Zm-.49-1.15-1.19-2.71-1.23,2.71Z"/><path class="cls-3" d="M1035.65,96.54v2.89a1.41,1.41,0,0,0,.22.91,1,1,0,0,0,1.53,0,1.41,1.41,0,0,0,.22-.91V96.54h1.17v2.93a2.08,2.08,0,0,1-.54,1.65,2.28,2.28,0,0,1-1.64.63,2.19,2.19,0,0,1-1.59-.63,2.08,2.08,0,0,1-.54-1.65V96.54Z"/><path class="cls-3" d="M1041.58,97.62v4h-1.18v-4h-.5V96.54h.5V94.79a2.21,2.21,0,0,1,.5-1.58,1.54,1.54,0,0,1,1.19-.49,1.83,1.83,0,0,1,.76.14V94a1.06,1.06,0,0,0-.56-.18.69.69,0,0,0-.52.2.84.84,0,0,0-.19.6v1.9h1.27v1.08Z"/><path class="cls-3" d="M1047.22,96.54h1.17v4.64a3.15,3.15,0,0,1-.82,2.63,2.62,2.62,0,0,1-1.68.54,2.23,2.23,0,0,1-1.66-.62,2.85,2.85,0,0,1-.74-1.57h1.14a1.61,1.61,0,0,0,.37.79,1.21,1.21,0,0,0,.91.34,1.27,1.27,0,0,0,.92-.33,1.64,1.64,0,0,0,.39-1.27V101a1.84,1.84,0,0,1-1.54.72,2.12,2.12,0,0,1-1.66-.69,2.83,2.83,0,0,1-.76-2,2.69,2.69,0,0,1,.74-2,2.31,2.31,0,0,1,1.72-.7,1.92,1.92,0,0,1,1.5.68ZM1045,97.8a1.87,1.87,0,0,0,0,2.56,1.39,1.39,0,0,0,.9.33,1.3,1.3,0,0,0,1-.41,1.7,1.7,0,0,0,.44-1.18,1.66,1.66,0,0,0-.48-1.27,1.4,1.4,0,0,0-1.84,0Z"/><path class="cls-3" d="M1053.58,96.54h1.17v5h-1.17v-.53a2,2,0,0,1-1.51.69,2.5,2.5,0,0,1-2.45-2.69,2.47,2.47,0,0,1,2.46-2.65,1.86,1.86,0,0,1,1.5.72Zm-2.76,2.54a1.47,1.47,0,0,0,1.4,1.61,1.62,1.62,0,0,0,0-3.22A1.47,1.47,0,0,0,1050.82,99.08Z"/><path class="cls-3" d="M1057.42,97.13a1.86,1.86,0,0,1,1.5-.72,2.47,2.47,0,0,1,2.46,2.65,2.5,2.5,0,0,1-2.45,2.69,2,2,0,0,1-1.51-.69v.53h-1.18V92.85h1.18Zm-.07,2a1.44,1.44,0,0,0,1.43,1.59,1.63,1.63,0,0,0,0-3.22A1.44,1.44,0,0,0,1057.35,99.1Z"/><path class="cls-3" d="M1067.13,100.44a2.71,2.71,0,0,1-.85.92,2.74,2.74,0,0,1-1.49.39,2.26,2.26,0,0,1-1.71-.65,2.71,2.71,0,0,1-.74-1.93,3,3,0,0,1,.8-2.08,2.32,2.32,0,0,1,1.7-.68,2.19,2.19,0,0,1,1.62.66,3.05,3.05,0,0,1,.7,2.13v.15h-3.62a1.65,1.65,0,0,0,.43,1,1.22,1.22,0,0,0,.9.32,1.2,1.2,0,0,0,.8-.25,1.71,1.71,0,0,0,.47-.55Zm-1.17-2a1.13,1.13,0,0,0-.36-.68,1.07,1.07,0,0,0-.79-.29,1.17,1.17,0,0,0-.83.32,1.43,1.43,0,0,0-.36.65Z"/><path class="cls-3" d="M1152.19,99.57h-3.42l-.88,1.94h-1.32l4-8.47,3.79,8.47H1153Zm-.49-1.15-1.19-2.71-1.24,2.71Z"/><path class="cls-3" d="M1156.32,96.46v2.89a1.48,1.48,0,0,0,.21.91,1,1,0,0,0,1.54,0,1.48,1.48,0,0,0,.21-.91V96.46h1.18v2.92a2.11,2.11,0,0,1-.54,1.66,2.33,2.33,0,0,1-1.64.62,2.22,2.22,0,0,1-1.6-.62,2.11,2.11,0,0,1-.54-1.66V96.46Z"/><path class="cls-3" d="M1162.25,97.54v4h-1.18v-4h-.5V96.46h.5V94.71a2.24,2.24,0,0,1,.49-1.59,1.59,1.59,0,0,1,1.2-.49,2.08,2.08,0,0,1,.76.14v1.17a1,1,0,0,0-.57-.18.66.66,0,0,0-.51.19.84.84,0,0,0-.19.6v1.91h1.27v1.08Z"/><path class="cls-3" d="M1167.88,96.46h1.18v4.64a3.09,3.09,0,0,1-.83,2.62,2.52,2.52,0,0,1-1.68.54,2.21,2.21,0,0,1-1.65-.62,2.9,2.9,0,0,1-.75-1.57h1.14a1.67,1.67,0,0,0,.38.79,1.18,1.18,0,0,0,.91.35,1.22,1.22,0,0,0,.92-.34,1.67,1.67,0,0,0,.38-1.27v-.66a1.81,1.81,0,0,1-1.53.72,2.15,2.15,0,0,1-1.67-.68,2.87,2.87,0,0,1-.75-2,2.67,2.67,0,0,1,.74-2,2.27,2.27,0,0,1,1.71-.7,1.88,1.88,0,0,1,1.5.69Zm-2.24,1.26a1.86,1.86,0,0,0,0,2.55,1.38,1.38,0,0,0,.9.34,1.28,1.28,0,0,0,1-.41A1.67,1.67,0,0,0,1168,99a1.69,1.69,0,0,0-.48-1.27,1.26,1.26,0,0,0-1-.36A1.21,1.21,0,0,0,1165.64,97.72Z"/><path class="cls-3" d="M1174.24,96.46h1.18v5.05h-1.18V101a1.92,1.92,0,0,1-1.51.68,2.68,2.68,0,0,1,0-5.34,1.84,1.84,0,0,1,1.49.72ZM1171.49,99a1.47,1.47,0,0,0,1.4,1.61,1.63,1.63,0,0,0,0-3.23A1.47,1.47,0,0,0,1171.49,99Z"/><path class="cls-3" d="M1178.09,97a1.84,1.84,0,0,1,1.49-.72,2.68,2.68,0,0,1,0,5.34,1.92,1.92,0,0,1-1.51-.68v.53h-1.18V92.76h1.18Zm-.08,2a1.45,1.45,0,0,0,1.43,1.6,1.63,1.63,0,0,0,0-3.23A1.45,1.45,0,0,0,1178,99Z"/><path class="cls-3" d="M1187.79,100.35a2.65,2.65,0,0,1-.85.93,2.83,2.83,0,0,1-1.49.38,2.24,2.24,0,0,1-1.7-.65,2.7,2.7,0,0,1-.74-1.93,2.93,2.93,0,0,1,.8-2.07,2.3,2.3,0,0,1,1.69-.69,2.17,2.17,0,0,1,1.62.66,3,3,0,0,1,.71,2.14v.14h-3.62a1.65,1.65,0,0,0,.43,1,1.18,1.18,0,0,0,.9.33,1.24,1.24,0,0,0,.8-.26,1.86,1.86,0,0,0,.47-.55Zm-1.16-2a1.25,1.25,0,0,0-.36-.68,1.16,1.16,0,0,0-.79-.29,1.13,1.13,0,0,0-.83.33,1.27,1.27,0,0,0-.36.64Z"/><path class="cls-3" d="M910.85,154.82h-3.41l-.88,1.93h-1.32l4-8.46,3.79,8.46h-1.32Zm-.49-1.15L909.17,151l-1.23,2.71Z"/><path class="cls-3" d="M915,151.7v2.9a1.5,1.5,0,0,0,.22.91,1,1,0,0,0,.77.34,1,1,0,0,0,.77-.34,1.5,1.5,0,0,0,.21-.91v-2.9h1.18v2.93a2.15,2.15,0,0,1-.54,1.66,2.34,2.34,0,0,1-1.65.62,2.24,2.24,0,0,1-1.59-.62,2.11,2.11,0,0,1-.54-1.66V151.7Z"/><path class="cls-3" d="M920.91,152.78v4h-1.17v-4h-.51V151.7h.51V150a2.21,2.21,0,0,1,.49-1.58,1.57,1.57,0,0,1,1.2-.49,1.81,1.81,0,0,1,.75.14v1.17a1,1,0,0,0-.56-.18.69.69,0,0,0-.52.19.84.84,0,0,0-.19.6v1.9h1.27v1.08Z"/><path class="cls-3" d="M926.55,151.7h1.18v4.65a3.14,3.14,0,0,1-.83,2.62,2.52,2.52,0,0,1-1.68.54,2.23,2.23,0,0,1-1.66-.62,2.89,2.89,0,0,1-.74-1.57H924a1.7,1.7,0,0,0,.37.79,1.23,1.23,0,0,0,.91.35,1.29,1.29,0,0,0,.93-.34,1.67,1.67,0,0,0,.38-1.27v-.66a1.84,1.84,0,0,1-1.53.72,2.15,2.15,0,0,1-1.67-.68,2.86,2.86,0,0,1-.76-2,2.65,2.65,0,0,1,.75-1.95,2.27,2.27,0,0,1,1.71-.7,1.88,1.88,0,0,1,1.5.69ZM924.31,153a1.78,1.78,0,0,0-.52,1.29,1.72,1.72,0,0,0,.51,1.27,1.37,1.37,0,0,0,.9.33,1.27,1.27,0,0,0,1-.4,1.88,1.88,0,0,0,0-2.46,1.22,1.22,0,0,0-.94-.36A1.21,1.21,0,0,0,924.31,153Z"/><path class="cls-3" d="M932.91,151.7h1.18v5.05h-1.18v-.52a1.92,1.92,0,0,1-1.51.68,2.5,2.5,0,0,1-2.45-2.69,2.47,2.47,0,0,1,2.46-2.65,1.86,1.86,0,0,1,1.5.72Zm-2.76,2.55a1.47,1.47,0,0,0,1.41,1.6,1.62,1.62,0,0,0,0-3.22A1.47,1.47,0,0,0,930.15,154.25Z"/><path class="cls-3" d="M936.75,152.29a1.86,1.86,0,0,1,1.5-.72,2.47,2.47,0,0,1,2.46,2.65,2.5,2.5,0,0,1-2.45,2.69,1.93,1.93,0,0,1-1.51-.68v.52h-1.17V148h1.17Zm-.07,2a1.44,1.44,0,0,0,1.43,1.59,1.63,1.63,0,0,0,0-3.22A1.45,1.45,0,0,0,936.68,154.26Z"/><path class="cls-3" d="M946.46,155.6a2.74,2.74,0,0,1-.85.93,2.83,2.83,0,0,1-1.49.38,2.24,2.24,0,0,1-1.7-.65,2.7,2.7,0,0,1-.75-1.93,2.94,2.94,0,0,1,.81-2.07,2.3,2.3,0,0,1,1.69-.69,2.19,2.19,0,0,1,1.62.66,3,3,0,0,1,.71,2.14v.14h-3.63a1.66,1.66,0,0,0,.44,1,1.17,1.17,0,0,0,.9.32,1.23,1.23,0,0,0,.8-.25,1.86,1.86,0,0,0,.47-.55Zm-1.16-2a1.25,1.25,0,0,0-.36-.68,1.12,1.12,0,0,0-.8-.29,1.14,1.14,0,0,0-.82.32,1.34,1.34,0,0,0-.36.65Z"/><path class="cls-3" d="M1031.52,155h-3.42l-.87,1.94h-1.32l4-8.47,3.79,8.47h-1.32Zm-.49-1.15-1.19-2.71-1.23,2.71Z"/><path class="cls-3" d="M1035.65,151.88v2.89a1.42,1.42,0,0,0,.22.91,1,1,0,0,0,1.53,0,1.42,1.42,0,0,0,.22-.91v-2.89h1.17v2.92a2.11,2.11,0,0,1-.54,1.66,2.31,2.31,0,0,1-1.64.62,2.18,2.18,0,0,1-1.59-.62,2.11,2.11,0,0,1-.54-1.66v-2.92Z"/><path class="cls-3" d="M1041.58,153v4h-1.18v-4h-.5v-1.08h.5v-1.76a2.23,2.23,0,0,1,.5-1.58,1.54,1.54,0,0,1,1.19-.49,2,2,0,0,1,.76.14v1.17a1,1,0,0,0-.56-.18.68.68,0,0,0-.52.19.84.84,0,0,0-.19.6v1.91h1.27V153Z"/><path class="cls-3" d="M1047.22,151.88h1.17v4.64a3.13,3.13,0,0,1-.82,2.62,2.56,2.56,0,0,1-1.68.54,2.23,2.23,0,0,1-1.66-.62,2.82,2.82,0,0,1-.74-1.57h1.14a1.61,1.61,0,0,0,.37.79,1.18,1.18,0,0,0,.91.35,1.22,1.22,0,0,0,.92-.34,1.64,1.64,0,0,0,.39-1.27v-.66a1.82,1.82,0,0,1-1.54.72,2.15,2.15,0,0,1-1.66-.68,2.86,2.86,0,0,1-.76-2,2.71,2.71,0,0,1,.74-1.95,2.31,2.31,0,0,1,1.72-.7,1.9,1.9,0,0,1,1.5.69Zm-2.25,1.26a1.86,1.86,0,0,0,0,2.55,1.4,1.4,0,0,0,.9.34,1.3,1.3,0,0,0,1-.41,1.72,1.72,0,0,0,.44-1.19,1.69,1.69,0,0,0-.48-1.27,1.24,1.24,0,0,0-1-.36A1.21,1.21,0,0,0,1045,153.14Z"/><path class="cls-3" d="M1053.58,151.88h1.17v5.05h-1.17v-.53a1.93,1.93,0,0,1-1.51.68,2.5,2.5,0,0,1-2.45-2.69,2.47,2.47,0,0,1,2.46-2.65,1.86,1.86,0,0,1,1.5.72Zm-2.76,2.54a1.48,1.48,0,0,0,1.4,1.61,1.63,1.63,0,0,0,0-3.23A1.47,1.47,0,0,0,1050.82,154.42Z"/><path class="cls-3" d="M1057.42,152.46a1.86,1.86,0,0,1,1.5-.72,2.47,2.47,0,0,1,2.46,2.65,2.5,2.5,0,0,1-2.45,2.69,1.93,1.93,0,0,1-1.51-.68v.53h-1.18v-8.75h1.18Zm-.07,2a1.44,1.44,0,0,0,1.43,1.6,1.63,1.63,0,0,0,0-3.23A1.45,1.45,0,0,0,1057.35,154.43Z"/><path class="cls-3" d="M1067.13,155.77a2.74,2.74,0,0,1-.85.93,2.83,2.83,0,0,1-1.49.38,2.26,2.26,0,0,1-1.71-.65,2.7,2.7,0,0,1-.74-1.93,3,3,0,0,1,.8-2.07,2.32,2.32,0,0,1,1.7-.69,2.19,2.19,0,0,1,1.62.66,3.06,3.06,0,0,1,.7,2.14v.14h-3.62a1.65,1.65,0,0,0,.43,1,1.38,1.38,0,0,0,1.7.07,1.61,1.61,0,0,0,.47-.55Zm-1.17-2.05a1.19,1.19,0,0,0-.36-.68,1.12,1.12,0,0,0-.79-.29,1.17,1.17,0,0,0-.83.32,1.43,1.43,0,0,0-.36.65Z"/><path class="cls-3" d="M1152.19,154.82h-3.42l-.88,1.93h-1.32l4-8.46,3.79,8.46H1153Zm-.49-1.15-1.19-2.71-1.24,2.71Z"/><path class="cls-3" d="M1156.32,151.7v2.9a1.5,1.5,0,0,0,.21.91,1,1,0,0,0,1.54,0,1.5,1.5,0,0,0,.21-.91v-2.9h1.18v2.93a2.11,2.11,0,0,1-.54,1.66,2.33,2.33,0,0,1-1.64.62,2.26,2.26,0,0,1-1.6-.62,2.11,2.11,0,0,1-.54-1.66V151.7Z"/><path class="cls-3" d="M1162.25,152.78v4h-1.18v-4h-.5V151.7h.5V150a2.21,2.21,0,0,1,.49-1.58,1.59,1.59,0,0,1,1.2-.49,1.89,1.89,0,0,1,.76.14v1.17a1,1,0,0,0-.57-.18.66.66,0,0,0-.51.19.84.84,0,0,0-.19.6v1.9h1.27v1.08Z"/><path class="cls-3" d="M1167.88,151.7h1.18v4.65a3.11,3.11,0,0,1-.83,2.62,2.52,2.52,0,0,1-1.68.54,2.21,2.21,0,0,1-1.65-.62,2.9,2.9,0,0,1-.75-1.57h1.14a1.72,1.72,0,0,0,.38.79,1.21,1.21,0,0,0,.91.35,1.26,1.26,0,0,0,.92-.34,1.67,1.67,0,0,0,.38-1.27v-.66a1.84,1.84,0,0,1-1.53.72,2.15,2.15,0,0,1-1.67-.68,2.89,2.89,0,0,1-.75-2,2.65,2.65,0,0,1,.74-1.95,2.27,2.27,0,0,1,1.71-.7,1.88,1.88,0,0,1,1.5.69Zm-2.24,1.26a1.77,1.77,0,0,0-.51,1.29,1.75,1.75,0,0,0,.5,1.27,1.37,1.37,0,0,0,.9.33,1.27,1.27,0,0,0,1-.4,1.86,1.86,0,0,0,0-2.46,1.26,1.26,0,0,0-1-.36A1.24,1.24,0,0,0,1165.64,153Z"/><path class="cls-3" d="M1174.24,151.7h1.18v5.05h-1.18v-.52a1.92,1.92,0,0,1-1.51.68,2.5,2.5,0,0,1-2.44-2.69,2.47,2.47,0,0,1,2.46-2.65,1.84,1.84,0,0,1,1.49.72Zm-2.75,2.55a1.47,1.47,0,0,0,1.4,1.6,1.62,1.62,0,0,0,0-3.22A1.47,1.47,0,0,0,1171.49,154.25Z"/><path class="cls-3" d="M1178.09,152.29a1.84,1.84,0,0,1,1.49-.72,2.47,2.47,0,0,1,2.46,2.65,2.5,2.5,0,0,1-2.44,2.69,1.92,1.92,0,0,1-1.51-.68v.52h-1.18V148h1.18Zm-.08,2a1.44,1.44,0,0,0,1.43,1.59,1.63,1.63,0,0,0,0-3.22A1.45,1.45,0,0,0,1178,154.26Z"/><path class="cls-3" d="M1187.79,155.6a2.65,2.65,0,0,1-.85.93,2.83,2.83,0,0,1-1.49.38,2.24,2.24,0,0,1-1.7-.65,2.7,2.7,0,0,1-.74-1.93,2.93,2.93,0,0,1,.8-2.07,2.3,2.3,0,0,1,1.69-.69,2.17,2.17,0,0,1,1.62.66,3,3,0,0,1,.71,2.14v.14h-3.62a1.65,1.65,0,0,0,.43,1,1.17,1.17,0,0,0,.9.32,1.23,1.23,0,0,0,.8-.25,1.86,1.86,0,0,0,.47-.55Zm-1.16-2a1.25,1.25,0,0,0-.36-.68,1.11,1.11,0,0,0-.79-.29,1.17,1.17,0,0,0-.83.32,1.34,1.34,0,0,0-.36.65Z"/><polygon class="cls-2" points="1244.41 255.32 4.48 255.32 4.48 217.61 7.48 217.61 7.48 252.32 1241.41 252.32 1241.41 217.61 1244.41 217.61 1244.41 255.32"/><polygon class="cls-2" points="0 219.36 5.98 209 11.97 219.36 0 219.36"/><polygon class="cls-2" points="1248.89 219.36 1242.91 209 1236.92 219.36 1248.89 219.36"/><path class="cls-4" d="M592.93,224.85a6,6,0,0,1,4.2,1.32,4.94,4.94,0,0,1,1.57,3.89,5.14,5.14,0,0,1-1.37,3.77,5.45,5.45,0,0,1-4.08,1.42H591v5.61h-3.7v-16ZM591,232.22h1.32a2.81,2.81,0,0,0,2-.6,2.2,2.2,0,0,0,.6-1.58,2.11,2.11,0,0,0-.6-1.56,2.86,2.86,0,0,0-2.06-.6H591Z"/><path class="cls-4" d="M600.61,230.16h3.46v1.68a3.86,3.86,0,0,1,1.34-1.49,3.33,3.33,0,0,1,1.85-.46,3.47,3.47,0,0,1,1.13.17l-.19,3.24a3.27,3.27,0,0,0-1.56-.38,2.24,2.24,0,0,0-1.73.72,4.05,4.05,0,0,0-.84,2.88v4.34h-3.46Z"/><path class="cls-4" d="M619.91,239.49a7.2,7.2,0,0,1-9.36,0,5.72,5.72,0,0,1,0-8,7.2,7.2,0,0,1,9.36,0,5.72,5.72,0,0,1,0,8Zm-6.62-6a3,3,0,0,0,0,4,2.86,2.86,0,0,0,3.88,0,3,3,0,0,0,0-4,2.86,2.86,0,0,0-3.88,0Z"/><path class="cls-4" d="M625.65,223.58a2,2,0,1,1-2,2A2,2,0,0,1,625.65,223.58Zm1.72,6.58v16.2h-3.45v-16.2Z"/><path class="cls-4" d="M641.27,236.11h-8a2.86,2.86,0,0,0,.65,1.82,2.29,2.29,0,0,0,1.77.68,2.77,2.77,0,0,0,1.39-.32,2,2,0,0,0,.75-.88l3.26.33a4.76,4.76,0,0,1-2.06,2.69,6.41,6.41,0,0,1-3.39.79,5.58,5.58,0,0,1-4.27-1.53,5.8,5.8,0,0,1-1.61-4.13,6.12,6.12,0,0,1,1.64-4.23,6.34,6.34,0,0,1,8.35.08,6.1,6.1,0,0,1,1.51,4.34Zm-3.19-2.06a2.73,2.73,0,0,0-.7-1.25,2.31,2.31,0,0,0-1.63-.6,2.27,2.27,0,0,0-2.35,1.85Z"/><path class="cls-4" d="M647,223.37v10.72l3.89-3.93h4.54L650.32,235l5.45,5.85h-4.66L647,236.25v4.61h-3.45V223.37Z"/><path class="cls-4" d="M661.07,232.94v7.92h-3.46v-7.92h-1.2v-2.78h1.2V226.7h3.46v3.46h2.14v2.78Z"/><rect class="cls-2" x="27.26" y="314.56" width="108.42" height="3"/><rect class="cls-2" x="26.14" y="308.75" width="2.25" height="14.63"/><rect class="cls-2" x="134.55" y="308.75" width="2.25" height="14.63"/><rect class="cls-2" x="147.93" y="314.56" width="108.42" height="3"/><rect class="cls-2" x="146.8" y="308.75" width="2.25" height="14.63"/><rect class="cls-2" x="255.22" y="308.75" width="2.25" height="14.63"/><rect class="cls-2" x="268.6" y="314.56" width="108.42" height="3"/><rect class="cls-2" x="267.47" y="308.75" width="2.25" height="14.63"/><rect class="cls-2" x="375.89" y="308.75" width="2.25" height="14.63"/><rect class="cls-2" x="449.57" y="314.56" width="108.42" height="3"/><rect class="cls-2" x="448.44" y="308.75" width="2.25" height="14.63"/><rect class="cls-2" x="556.86" y="308.75" width="2.25" height="14.63"/><rect class="cls-2" x="570.24" y="314.56" width="108.42" height="3"/><rect class="cls-2" x="569.11" y="308.75" width="2.25" height="14.63"/><rect class="cls-2" x="677.53" y="308.75" width="2.25" height="14.63"/><rect class="cls-2" x="690.9" y="314.56" width="108.42" height="3"/><rect class="cls-2" x="689.78" y="308.75" width="2.25" height="14.63"/><rect class="cls-2" x="798.19" y="308.75" width="2.25" height="14.63"/><rect class="cls-2" x="871.88" y="314.56" width="108.42" height="3"/><rect class="cls-2" x="870.75" y="308.75" width="2.25" height="14.63"/><rect class="cls-2" x="979.17" y="308.75" width="2.25" height="14.63"/><rect class="cls-2" x="992.54" y="314.56" width="108.42" height="3"/><rect class="cls-2" x="991.42" y="308.75" width="2.25" height="14.63"/><rect class="cls-2" x="1099.84" y="308.75" width="2.25" height="14.63"/><rect class="cls-2" x="1113.21" y="314.56" width="108.42" height="3"/><rect class="cls-2" x="1112.09" y="308.75" width="2.25" height="14.63"/><rect class="cls-2" x="1220.5" y="308.75" width="2.25" height="14.63"/><rect class="cls-2" x="131.66" y="274.94" width="20" height="20" transform="translate(-159.99 183.62) rotate(-45)"/><rect class="cls-2" x="252.51" y="274.94" width="20" height="20" transform="translate(-124.59 269.08) rotate(-45)"/><rect class="cls-1" x="403.26" y="274.94" width="20" height="20"/><rect class="cls-1" x="825.6" y="274.94" width="20" height="20"/><rect class="cls-1" x="1222.91" y="274.94" width="20" height="20" rx="10"/><rect class="cls-2" x="554.02" y="274.94" width="20" height="20" transform="translate(-36.28 482.28) rotate(-45)"/><rect class="cls-2" x="674.87" y="274.94" width="20" height="20" transform="translate(-0.89 567.73) rotate(-45)"/><rect class="cls-2" x="976.33" y="274.94" width="20" height="20" transform="translate(87.41 780.89) rotate(-45)"/><rect class="cls-2" x="1097.18" y="274.94" width="20" height="20" transform="translate(122.8 866.35) rotate(-45)"/><path class="cls-2" d="M106.73,353.26l3.08-15.77,5.11,11.39,5.15-11.39,2.77,15.77h-2.29l-1.5-8.84-4.26,9.52-4.23-9.55L109,353.26Z"/><path class="cls-2" d="M133.82,351.15a4.84,4.84,0,0,1-1.57,1.69,5,5,0,0,1-2.72.71,4.11,4.11,0,0,1-3.13-1.19,5,5,0,0,1-1.36-3.54,5.43,5.43,0,0,1,1.47-3.81,4.21,4.21,0,0,1,3.1-1.25,4,4,0,0,1,3,1.21,5.54,5.54,0,0,1,1.3,3.91v.27h-6.64A3.07,3.07,0,0,0,128,351a2.22,2.22,0,0,0,1.65.59,2.26,2.26,0,0,0,1.47-.46,3.36,3.36,0,0,0,.86-1Zm-2.14-3.76a2.26,2.26,0,0,0-.66-1.26,2.24,2.24,0,0,0-3,.07,2.36,2.36,0,0,0-.66,1.19Z"/><path class="cls-2" d="M144.42,351.15a4.91,4.91,0,0,1-1.56,1.69,5.06,5.06,0,0,1-2.73.71,4.12,4.12,0,0,1-3.13-1.19,5,5,0,0,1-1.36-3.54,5.47,5.47,0,0,1,1.47-3.81,4.24,4.24,0,0,1,3.11-1.25,4,4,0,0,1,3,1.21,5.54,5.54,0,0,1,1.3,3.91v.27h-6.65a3.07,3.07,0,0,0,.79,1.87,2.22,2.22,0,0,0,1.65.59,2.27,2.27,0,0,0,1.48-.46,3.51,3.51,0,0,0,.86-1Zm-2.13-3.76a2.26,2.26,0,0,0-.66-1.26,2.1,2.1,0,0,0-1.46-.53,2.07,2.07,0,0,0-1.52.6,2.43,2.43,0,0,0-.66,1.19Z"/><path class="cls-2" d="M149,346v7.28h-2.16V346h-.9v-2h.9v-3.39H149V344h1.65v2Z"/><path class="cls-2" d="M153.13,338.78a1.39,1.39,0,1,1-1.39,1.39A1.36,1.36,0,0,1,153.13,338.78Zm1.08,5.22v9.26h-2.16V344Z"/><path class="cls-2" d="M156.91,344h2.16v.86a3.17,3.17,0,0,1,2.51-1.1,3.11,3.11,0,0,1,2.73,1.25,4.15,4.15,0,0,1,.57,2.57v5.68h-2.16v-5.15c0-2.35-.88-2.42-1.69-2.42-1,0-2,.13-2,3.13v4.44h-2.16Z"/><path class="cls-2" d="M174.38,344h2.16v8.51c0,2.18-.24,3.74-1.52,4.82a4.66,4.66,0,0,1-3.08,1,4.09,4.09,0,0,1-3-1.14,5.19,5.19,0,0,1-1.36-2.88h2.09a3.09,3.09,0,0,0,.68,1.45,2.23,2.23,0,0,0,1.67.64,2.34,2.34,0,0,0,1.7-.62,3.06,3.06,0,0,0,.7-2.33v-1.21a3.36,3.36,0,0,1-2.81,1.32,3.92,3.92,0,0,1-3.06-1.26,5.21,5.21,0,0,1-1.39-3.67,4.91,4.91,0,0,1,1.37-3.59,4.21,4.21,0,0,1,3.14-1.27,3.46,3.46,0,0,1,2.75,1.25Zm-4.11,2.31a3.2,3.2,0,0,0-1,2.35,3.17,3.17,0,0,0,.93,2.34,2.52,2.52,0,0,0,1.65.61,2.35,2.35,0,0,0,1.8-.75,3.06,3.06,0,0,0,.81-2.18,3.1,3.1,0,0,0-.88-2.33,2.26,2.26,0,0,0-1.73-.66A2.23,2.23,0,0,0,170.27,346.31Z"/><path class="cls-2" d="M227.58,353.26l3.09-15.77,5.1,11.39,5.15-11.39,2.77,15.77H241.4l-1.49-8.84-4.27,9.52-4.23-9.55-1.54,8.87Z"/><path class="cls-2" d="M254.67,351.15a4.91,4.91,0,0,1-1.56,1.69,5.06,5.06,0,0,1-2.73.71,4.12,4.12,0,0,1-3.13-1.19,5,5,0,0,1-1.36-3.54,5.43,5.43,0,0,1,1.47-3.81,4.24,4.24,0,0,1,3.11-1.25,4,4,0,0,1,3,1.21,5.57,5.57,0,0,1,1.29,3.91v.27h-6.64a3.07,3.07,0,0,0,.79,1.87,2.22,2.22,0,0,0,1.65.59,2.27,2.27,0,0,0,1.48-.46,3.32,3.32,0,0,0,.85-1Zm-2.14-3.76a2.2,2.2,0,0,0-.66-1.26,2.24,2.24,0,0,0-3,.07,2.43,2.43,0,0,0-.66,1.19Z"/><path class="cls-2" d="M265.27,351.15a4.82,4.82,0,0,1-1.56,1.69,5.06,5.06,0,0,1-2.73.71,4.1,4.1,0,0,1-3.12-1.19,5,5,0,0,1-1.37-3.54A5.44,5.44,0,0,1,258,345a4.21,4.21,0,0,1,3.1-1.25,4,4,0,0,1,3,1.21,5.54,5.54,0,0,1,1.3,3.91v.27h-6.65a3.08,3.08,0,0,0,.8,1.87,2.2,2.2,0,0,0,1.64.59,2.27,2.27,0,0,0,1.48-.46,3.51,3.51,0,0,0,.86-1Zm-2.13-3.76a2.26,2.26,0,0,0-.66-1.26,2.1,2.1,0,0,0-1.45-.53,2.05,2.05,0,0,0-1.52.6,2.36,2.36,0,0,0-.66,1.19Z"/><path class="cls-2" d="M269.8,346v7.28h-2.15V346h-.91v-2h.91v-3.39h2.15V344h1.65v2Z"/><path class="cls-2" d="M274,338.78a1.39,1.39,0,1,1-1.38,1.39A1.36,1.36,0,0,1,274,338.78Zm1.08,5.22v9.26H272.9V344Z"/><path class="cls-2" d="M277.77,344h2.15v.86a3.18,3.18,0,0,1,2.51-1.1,3.09,3.09,0,0,1,2.73,1.25,4.15,4.15,0,0,1,.57,2.57v5.68h-2.15v-5.15c0-2.35-.89-2.42-1.7-2.42-1,0-2,.13-2,3.13v4.44h-2.15Z"/><path class="cls-2" d="M295.24,344h2.15v8.51c0,2.18-.24,3.74-1.52,4.82a4.66,4.66,0,0,1-3.08,1,4.07,4.07,0,0,1-3-1.14,5.2,5.2,0,0,1-1.37-2.88h2.09a3.09,3.09,0,0,0,.68,1.45,2.26,2.26,0,0,0,1.68.64,2.31,2.31,0,0,0,1.69-.62,3,3,0,0,0,.71-2.33v-1.21a3.38,3.38,0,0,1-2.82,1.32,3.92,3.92,0,0,1-3.06-1.26,5.21,5.21,0,0,1-1.39-3.67,4.91,4.91,0,0,1,1.37-3.59,4.21,4.21,0,0,1,3.14-1.27,3.49,3.49,0,0,1,2.76,1.25Zm-4.12,2.31a3.4,3.4,0,0,0,0,4.69,2.52,2.52,0,0,0,1.65.61,2.35,2.35,0,0,0,1.8-.75,3.07,3.07,0,0,0,.82-2.18,3.1,3.1,0,0,0-.88-2.33,2.3,2.3,0,0,0-1.74-.66A2.23,2.23,0,0,0,291.12,346.31Z"/><path class="cls-2" d="M392.54,338.59a5.67,5.67,0,0,1,3.21.79,4.22,4.22,0,0,1,1.83,3.56,4.1,4.1,0,0,1-1.43,3.21,5.32,5.32,0,0,1-3.59,1.15h-1v6h-2.24V338.59Zm-1,6.64h1c1.94,0,2.86-1,2.86-2.31,0-.81-.33-2.27-2.88-2.27h-1Z"/><path class="cls-2" d="M399.47,337.22h2.16v7.57a3.29,3.29,0,0,1,2.48-1,3.15,3.15,0,0,1,2.73,1.25,4.56,4.56,0,0,1,.59,2.57v5.68h-2.15v-5.48a2.21,2.21,0,0,0-.42-1.6,1.6,1.6,0,0,0-1.21-.49,1.89,1.89,0,0,0-1.58.77,4.14,4.14,0,0,0-.44,2.33v4.47h-2.16Z"/><path class="cls-2" d="M416.94,344h2.15v9.26h-2.15v-1a3.57,3.57,0,0,1-2.77,1.26c-2.86,0-4.49-2.38-4.49-4.93a4.52,4.52,0,0,1,4.51-4.86,3.36,3.36,0,0,1,2.75,1.32Zm-5.06,4.66a2.7,2.7,0,0,0,2.57,2.95,2.64,2.64,0,0,0,2.62-2.93c0-2-1.25-3-2.62-3A2.7,2.7,0,0,0,411.88,348.66Z"/><path class="cls-2" d="M425.87,346.44a1.56,1.56,0,0,0-1.32-.79.91.91,0,0,0-.66.24.7.7,0,0,0-.2.48.58.58,0,0,0,.31.53c.13.09.26.13.73.38l1.1.55a4.45,4.45,0,0,1,1.29.85,2.29,2.29,0,0,1,.69,1.72,3,3,0,0,1-.82,2.11,3.28,3.28,0,0,1-2.59,1,3.18,3.18,0,0,1-2-.6,3.54,3.54,0,0,1-1.18-1.69l1.76-.84a2.34,2.34,0,0,0,.5.88,1.42,1.42,0,0,0,1.83.05,1.13,1.13,0,0,0,.31-.73,1,1,0,0,0-.29-.7,2.64,2.64,0,0,0-.92-.57l-.8-.38a4.72,4.72,0,0,1-1.27-.79,2,2,0,0,1-.66-1.56,2.85,2.85,0,0,1,.77-2,3,3,0,0,1,2.26-.88,2.93,2.93,0,0,1,1.72.48,3.2,3.2,0,0,1,1.06,1.14Z"/><path class="cls-2" d="M438,351.15a4.84,4.84,0,0,1-1.57,1.69,5,5,0,0,1-2.72.71,4.11,4.11,0,0,1-3.13-1.19,5,5,0,0,1-1.36-3.54,5.43,5.43,0,0,1,1.47-3.81,4.21,4.21,0,0,1,3.1-1.25,4,4,0,0,1,3,1.21,5.54,5.54,0,0,1,1.3,3.91v.27h-6.64a3.07,3.07,0,0,0,.79,1.87,2.22,2.22,0,0,0,1.65.59,2.26,2.26,0,0,0,1.47-.46,3.36,3.36,0,0,0,.86-1Zm-2.14-3.76a2.26,2.26,0,0,0-.66-1.26,2.24,2.24,0,0,0-3,.07,2.36,2.36,0,0,0-.66,1.19Z"/><path class="cls-2" d="M357.86,370.4H360v9.26h-2.16v-1a3.57,3.57,0,0,1-2.77,1.26c-2.86,0-4.49-2.38-4.49-4.93a4.52,4.52,0,0,1,4.51-4.86,3.36,3.36,0,0,1,2.75,1.32Zm-5.06,4.66a2.7,2.7,0,0,0,2.57,2.95,2.64,2.64,0,0,0,2.62-2.93c0-2-1.25-3-2.62-3A2.7,2.7,0,0,0,352.8,375.06Z"/><path class="cls-2" d="M364.9,371.48a3.36,3.36,0,0,1,2.75-1.32,4.52,4.52,0,0,1,4.51,4.86c0,2.55-1.63,4.93-4.49,4.93a3.56,3.56,0,0,1-2.77-1.26v1h-2.16v-16h2.16Zm-.13,3.6a2.64,2.64,0,0,0,2.61,2.93,3,3,0,0,0,0-5.92C366,372.09,364.77,373.06,364.77,375.08Z"/><path class="cls-2" d="M381.18,370.4h2.16v8.51c0,2.18-.25,3.74-1.52,4.82a4.7,4.7,0,0,1-3.08,1,4.09,4.09,0,0,1-3-1.14,5.19,5.19,0,0,1-1.36-2.88h2.09a3,3,0,0,0,.68,1.45,2.21,2.21,0,0,0,1.67.64,2.36,2.36,0,0,0,1.7-.62,3.06,3.06,0,0,0,.7-2.33v-1.21a3.37,3.37,0,0,1-2.82,1.32,3.92,3.92,0,0,1-3.06-1.26,5.25,5.25,0,0,1-1.38-3.67,5,5,0,0,1,1.36-3.59,4.25,4.25,0,0,1,3.15-1.27,3.47,3.47,0,0,1,2.75,1.25Zm-4.12,2.31a3.42,3.42,0,0,0,0,4.69,2.54,2.54,0,0,0,1.65.61,2.35,2.35,0,0,0,1.81-.75,3.43,3.43,0,0,0-.07-4.51,2.54,2.54,0,0,0-3.37,0Z"/><path class="cls-2" d="M394.36,377.55a4.84,4.84,0,0,1-1.57,1.69,5,5,0,0,1-2.72.71,4.11,4.11,0,0,1-3.13-1.19,5,5,0,0,1-1.36-3.54,5.43,5.43,0,0,1,1.47-3.81,4.22,4.22,0,0,1,3.11-1.25,4,4,0,0,1,3,1.21,5.57,5.57,0,0,1,1.29,3.91v.27h-6.64a3.07,3.07,0,0,0,.79,1.87,2.22,2.22,0,0,0,1.65.59,2.29,2.29,0,0,0,1.48-.46,3.32,3.32,0,0,0,.85-1Zm-2.14-3.76a2.2,2.2,0,0,0-.66-1.26,2.24,2.24,0,0,0-3,.07,2.43,2.43,0,0,0-.66,1.19Z"/><path class="cls-2" d="M400.71,372.84a1.54,1.54,0,0,0-1.32-.79,1,1,0,0,0-.66.24.7.7,0,0,0-.19.48.59.59,0,0,0,.3.53c.14.09.27.13.73.38l1.1.55a4.5,4.5,0,0,1,1.3.85,2.32,2.32,0,0,1,.68,1.72,3.09,3.09,0,0,1-.81,2.11,3.3,3.3,0,0,1-2.6,1,3.17,3.17,0,0,1-2-.6,3.56,3.56,0,0,1-1.19-1.69l1.76-.84a2.35,2.35,0,0,0,.51.88,1.44,1.44,0,0,0,1.82.05,1.1,1.1,0,0,0,.31-.73,1,1,0,0,0-.29-.7,2.82,2.82,0,0,0-.92-.58l-.79-.37a4.62,4.62,0,0,1-1.28-.79,2,2,0,0,1-.66-1.56,2.9,2.9,0,0,1,.77-2,3,3,0,0,1,2.27-.88,2.87,2.87,0,0,1,1.71.48,3.2,3.2,0,0,1,1.06,1.14Z"/><path class="cls-2" d="M411.76,373.24a3.64,3.64,0,0,0-2.62-1.15,2.78,2.78,0,0,0-2.05.82,3,3,0,0,0-.79,2.13,3,3,0,0,0,.84,2.22,2.79,2.79,0,0,0,2,.75,3.6,3.6,0,0,0,2.66-1.19v2.4a5.09,5.09,0,0,1-2.82.73,4.5,4.5,0,0,1-3.52-1.37,4.8,4.8,0,0,1-1.32-3.47,5,5,0,0,1,1.41-3.59,5.52,5.52,0,0,1,6.25-.7Z"/><path class="cls-2" d="M413.83,363.62H416v7.57a3.32,3.32,0,0,1,2.49-1,3.18,3.18,0,0,1,2.73,1.25,4.56,4.56,0,0,1,.59,2.57v5.68h-2.16v-5.48a2.25,2.25,0,0,0-.41-1.6,1.62,1.62,0,0,0-1.21-.49,1.92,1.92,0,0,0-1.59.77,4.14,4.14,0,0,0-.44,2.33v4.47h-2.15Z"/><path class="cls-2" d="M426.67,363.62v16h-2.15v-16Z"/><path class="cls-2" d="M438.82,375a5,5,0,1,1-4.95-4.88A4.82,4.82,0,0,1,438.82,375Zm-2.2,0a2.76,2.76,0,1,0-2.75,2.95A2.68,2.68,0,0,0,436.62,375.06Z"/><path class="cls-2" d="M445.11,372.84a1.56,1.56,0,0,0-1.32-.79.91.91,0,0,0-.66.24.7.7,0,0,0-.2.48.58.58,0,0,0,.31.53c.13.09.26.13.73.38l1.1.55a4.45,4.45,0,0,1,1.29.85,2.29,2.29,0,0,1,.69,1.72,3,3,0,0,1-.82,2.11,3.28,3.28,0,0,1-2.59,1,3.18,3.18,0,0,1-2-.6,3.61,3.61,0,0,1-1.18-1.69l1.76-.84a2.34,2.34,0,0,0,.5.88,1.45,1.45,0,0,0,1.83.05,1.15,1.15,0,0,0,.31-.73,1,1,0,0,0-.29-.7,2.82,2.82,0,0,0-.92-.58l-.8-.37a4.72,4.72,0,0,1-1.27-.79,2,2,0,0,1-.66-1.56,2.85,2.85,0,0,1,.77-2,3,3,0,0,1,2.26-.88,2.93,2.93,0,0,1,1.72.48,3.2,3.2,0,0,1,1.06,1.14Z"/><path class="cls-2" d="M453,372.84a1.56,1.56,0,0,0-1.32-.79.91.91,0,0,0-.66.24.7.7,0,0,0-.2.48.58.58,0,0,0,.31.53c.13.09.26.13.73.38l1.1.55a4.45,4.45,0,0,1,1.29.85,2.29,2.29,0,0,1,.69,1.72,3,3,0,0,1-.82,2.11,3.28,3.28,0,0,1-2.59,1,3.18,3.18,0,0,1-2-.6,3.54,3.54,0,0,1-1.18-1.69l1.76-.84a2.34,2.34,0,0,0,.5.88,1.45,1.45,0,0,0,1.83.05,1.15,1.15,0,0,0,.31-.73,1,1,0,0,0-.29-.7,2.82,2.82,0,0,0-.92-.58l-.8-.37a4.72,4.72,0,0,1-1.27-.79,2,2,0,0,1-.66-1.56,2.85,2.85,0,0,1,.77-2,3,3,0,0,1,2.26-.88,2.93,2.93,0,0,1,1.72.48,3.2,3.2,0,0,1,1.06,1.14Z"/><path class="cls-2" d="M465.2,377.55a4.84,4.84,0,0,1-1.57,1.69,5,5,0,0,1-2.72.71,4.11,4.11,0,0,1-3.13-1.19,5,5,0,0,1-1.36-3.54,5.43,5.43,0,0,1,1.47-3.81,4.21,4.21,0,0,1,3.1-1.25,4,4,0,0,1,3,1.21,5.54,5.54,0,0,1,1.3,3.91v.27h-6.64a3.07,3.07,0,0,0,.79,1.87,2.22,2.22,0,0,0,1.65.59,2.26,2.26,0,0,0,1.47-.46,3.36,3.36,0,0,0,.86-1Zm-2.14-3.76a2.26,2.26,0,0,0-.66-1.26,2.24,2.24,0,0,0-3,.07,2.36,2.36,0,0,0-.66,1.19Z"/><path class="cls-2" d="M467.48,370.4h2.16v.86a3.17,3.17,0,0,1,2.51-1.1,3.11,3.11,0,0,1,2.73,1.25,4.15,4.15,0,0,1,.57,2.57v5.68h-2.16v-5.15c0-2.35-.88-2.42-1.69-2.42-1,0-2,.13-2,3.13v4.44h-2.16Z"/><path class="cls-2" d="M814.88,338.59a5.69,5.69,0,0,1,3.21.79,4.24,4.24,0,0,1,1.82,3.56,4.1,4.1,0,0,1-1.43,3.21,5.28,5.28,0,0,1-3.58,1.15h-1v6h-2.25V338.59Zm-1,6.64h1c1.93,0,2.86-1,2.86-2.31,0-.81-.33-2.27-2.88-2.27h-1Z"/><path class="cls-2" d="M821.8,337.22H824v7.57a3.31,3.31,0,0,1,2.49-1,3.18,3.18,0,0,1,2.73,1.25,4.56,4.56,0,0,1,.59,2.57v5.68h-2.16v-5.48a2.25,2.25,0,0,0-.41-1.6,1.62,1.62,0,0,0-1.21-.49,1.92,1.92,0,0,0-1.59.77,4.14,4.14,0,0,0-.44,2.33v4.47H821.8Z"/><path class="cls-2" d="M839.27,344h2.16v9.26h-2.16v-1a3.56,3.56,0,0,1-2.77,1.26c-2.86,0-4.49-2.38-4.49-4.93a4.52,4.52,0,0,1,4.51-4.86,3.35,3.35,0,0,1,2.75,1.32Zm-5.06,4.66a2.7,2.7,0,0,0,2.58,2.95,2.65,2.65,0,0,0,2.62-2.93c0-2-1.26-3-2.62-3A2.7,2.7,0,0,0,834.21,348.66Z"/><path class="cls-2" d="M848.21,346.44a1.57,1.57,0,0,0-1.33-.79,1,1,0,0,0-.66.24.7.7,0,0,0-.19.48.59.59,0,0,0,.3.53c.14.09.27.13.73.38l1.1.55a4.5,4.5,0,0,1,1.3.85,2.32,2.32,0,0,1,.68,1.72,3.09,3.09,0,0,1-.81,2.11,3.3,3.3,0,0,1-2.6,1,3.17,3.17,0,0,1-2-.6,3.56,3.56,0,0,1-1.19-1.69l1.76-.84a2.35,2.35,0,0,0,.51.88,1.28,1.28,0,0,0,.94.36,1.29,1.29,0,0,0,.88-.31,1.08,1.08,0,0,0,.31-.73,1,1,0,0,0-.29-.7,2.64,2.64,0,0,0-.92-.57l-.79-.38a4.62,4.62,0,0,1-1.28-.79,2,2,0,0,1-.66-1.56,2.9,2.9,0,0,1,.77-2,3,3,0,0,1,2.27-.88,2.87,2.87,0,0,1,1.71.48,3.2,3.2,0,0,1,1.06,1.14Z"/><path class="cls-2" d="M860.37,351.15a4.82,4.82,0,0,1-1.56,1.69,5.06,5.06,0,0,1-2.73.71,4.1,4.1,0,0,1-3.12-1.19,5,5,0,0,1-1.37-3.54,5.44,5.44,0,0,1,1.48-3.81,4.21,4.21,0,0,1,3.1-1.25,4,4,0,0,1,3,1.21,5.54,5.54,0,0,1,1.3,3.91v.27h-6.65a3.13,3.13,0,0,0,.79,1.87,2.24,2.24,0,0,0,1.65.59,2.27,2.27,0,0,0,1.48-.46,3.51,3.51,0,0,0,.86-1Zm-2.13-3.76a2.26,2.26,0,0,0-.66-1.26,2.1,2.1,0,0,0-1.45-.53,2.05,2.05,0,0,0-1.52.6,2.36,2.36,0,0,0-.66,1.19Z"/><path class="cls-2" d="M780.19,370.4h2.16v9.26h-2.16v-1a3.56,3.56,0,0,1-2.77,1.26c-2.86,0-4.49-2.38-4.49-4.93a4.52,4.52,0,0,1,4.51-4.86,3.35,3.35,0,0,1,2.75,1.32Zm-5.06,4.66a2.71,2.71,0,0,0,2.58,2.95,2.65,2.65,0,0,0,2.62-2.93c0-2-1.26-3-2.62-3A2.7,2.7,0,0,0,775.13,375.06Z"/><path class="cls-2" d="M787.23,371.48a3.36,3.36,0,0,1,2.75-1.32,4.52,4.52,0,0,1,4.51,4.86c0,2.55-1.62,4.93-4.48,4.93a3.59,3.59,0,0,1-2.78-1.26v1h-2.15v-16h2.15Zm-.13,3.6a2.65,2.65,0,0,0,2.62,2.93,3,3,0,0,0,0-5.92C788.36,372.09,787.1,373.06,787.1,375.08Z"/><path class="cls-2" d="M803.51,370.4h2.16v8.51c0,2.18-.24,3.74-1.52,4.82a4.66,4.66,0,0,1-3.08,1,4.07,4.07,0,0,1-3-1.14,5.2,5.2,0,0,1-1.37-2.88h2.09a3.09,3.09,0,0,0,.68,1.45,2.26,2.26,0,0,0,1.68.64,2.31,2.31,0,0,0,1.69-.62,3.06,3.06,0,0,0,.7-2.33v-1.21A3.36,3.36,0,0,1,800.7,380a3.92,3.92,0,0,1-3.06-1.26,5.21,5.21,0,0,1-1.39-3.67,4.91,4.91,0,0,1,1.37-3.59,4.21,4.21,0,0,1,3.14-1.27,3.46,3.46,0,0,1,2.75,1.25Zm-4.11,2.31a3.4,3.4,0,0,0,0,4.69A2.52,2.52,0,0,0,801,378a2.35,2.35,0,0,0,1.8-.75,3.07,3.07,0,0,0,.82-2.18,3.1,3.1,0,0,0-.88-2.33,2.3,2.3,0,0,0-1.74-.66A2.23,2.23,0,0,0,799.4,372.71Z"/><path class="cls-2" d="M816.69,377.55a4.82,4.82,0,0,1-1.56,1.69,5.06,5.06,0,0,1-2.73.71,4.1,4.1,0,0,1-3.12-1.19,5,5,0,0,1-1.37-3.54,5.44,5.44,0,0,1,1.48-3.81,4.21,4.21,0,0,1,3.1-1.25,4,4,0,0,1,3,1.21,5.54,5.54,0,0,1,1.3,3.91v.27h-6.65a3.08,3.08,0,0,0,.8,1.87,2.21,2.21,0,0,0,1.65.59,2.26,2.26,0,0,0,1.47-.46,3.51,3.51,0,0,0,.86-1Zm-2.13-3.76a2.26,2.26,0,0,0-.66-1.26,2.1,2.1,0,0,0-1.45-.53,2.05,2.05,0,0,0-1.52.6,2.36,2.36,0,0,0-.66,1.19Z"/><path class="cls-2" d="M823.05,372.84a1.56,1.56,0,0,0-1.32-.79.91.91,0,0,0-.66.24.7.7,0,0,0-.2.48.58.58,0,0,0,.31.53c.13.09.26.13.73.38l1.1.55a4.45,4.45,0,0,1,1.29.85,2.29,2.29,0,0,1,.69,1.72,3,3,0,0,1-.82,2.11,3.28,3.28,0,0,1-2.59,1,3.18,3.18,0,0,1-2-.6,3.56,3.56,0,0,1-1.19-1.69l1.77-.84a2.21,2.21,0,0,0,.5.88,1.45,1.45,0,0,0,1.83.05,1.15,1.15,0,0,0,.31-.73,1,1,0,0,0-.29-.7,2.82,2.82,0,0,0-.92-.58l-.8-.37a4.72,4.72,0,0,1-1.27-.79,2,2,0,0,1-.66-1.56,2.85,2.85,0,0,1,.77-2,3,3,0,0,1,2.26-.88,2.93,2.93,0,0,1,1.72.48,3.2,3.2,0,0,1,1.06,1.14Z"/><path class="cls-2" d="M834.09,373.24a3.62,3.62,0,0,0-2.61-1.15,2.76,2.76,0,0,0-2.05.82,2.93,2.93,0,0,0-.79,2.13,3,3,0,0,0,.83,2.22,2.83,2.83,0,0,0,2,.75,3.58,3.58,0,0,0,2.66-1.19v2.4a5,5,0,0,1-2.81.73,4.5,4.5,0,0,1-3.52-1.37,4.8,4.8,0,0,1-1.32-3.47,5,5,0,0,1,1.4-3.59,5,5,0,0,1,3.72-1.36,5,5,0,0,1,2.53.66Z"/><path class="cls-2" d="M836.16,363.62h2.16v7.57a3.29,3.29,0,0,1,2.48-1,3.15,3.15,0,0,1,2.73,1.25,4.58,4.58,0,0,1,.6,2.57v5.68H842v-5.48a2.21,2.21,0,0,0-.42-1.6,1.6,1.6,0,0,0-1.21-.49,1.9,1.9,0,0,0-1.58.77,4.14,4.14,0,0,0-.44,2.33v4.47h-2.16Z"/><path class="cls-2" d="M849,363.62v16h-2.16v-16Z"/><path class="cls-2" d="M861.15,375a5,5,0,1,1-4.95-4.88A4.81,4.81,0,0,1,861.15,375Zm-2.2,0A2.76,2.76,0,1,0,856.2,378,2.68,2.68,0,0,0,859,375.06Z"/><path class="cls-2" d="M867.45,372.84a1.57,1.57,0,0,0-1.32-.79,1,1,0,0,0-.67.24.7.7,0,0,0-.19.48.58.58,0,0,0,.31.53c.13.09.26.13.72.38l1.1.55a4.5,4.5,0,0,1,1.3.85,2.28,2.28,0,0,1,.68,1.72,3.09,3.09,0,0,1-.81,2.11,3.3,3.3,0,0,1-2.6,1,3.17,3.17,0,0,1-2-.6,3.56,3.56,0,0,1-1.19-1.69l1.76-.84a2.35,2.35,0,0,0,.51.88,1.44,1.44,0,0,0,1.82.05,1.1,1.1,0,0,0,.31-.73,1,1,0,0,0-.29-.7,2.82,2.82,0,0,0-.92-.58l-.79-.37a4.62,4.62,0,0,1-1.28-.79,2,2,0,0,1-.66-1.56,2.9,2.9,0,0,1,.77-2,3,3,0,0,1,2.27-.88,2.93,2.93,0,0,1,1.72.48,3.28,3.28,0,0,1,1,1.14Z"/><path class="cls-2" d="M875.37,372.84a1.57,1.57,0,0,0-1.33-.79,1,1,0,0,0-.66.24.7.7,0,0,0-.19.48.58.58,0,0,0,.31.53c.13.09.26.13.72.38l1.1.55a4.5,4.5,0,0,1,1.3.85,2.28,2.28,0,0,1,.68,1.72,3.09,3.09,0,0,1-.81,2.11,3.3,3.3,0,0,1-2.6,1,3.17,3.17,0,0,1-2-.6,3.56,3.56,0,0,1-1.19-1.69l1.76-.84a2.35,2.35,0,0,0,.51.88,1.44,1.44,0,0,0,1.82.05,1.1,1.1,0,0,0,.31-.73,1,1,0,0,0-.29-.7,2.82,2.82,0,0,0-.92-.58l-.79-.37a4.62,4.62,0,0,1-1.28-.79,2,2,0,0,1-.66-1.56,2.9,2.9,0,0,1,.77-2,3,3,0,0,1,2.27-.88,2.93,2.93,0,0,1,1.72.48,3.28,3.28,0,0,1,1.05,1.14Z"/><path class="cls-2" d="M887.53,377.55a4.82,4.82,0,0,1-1.56,1.69,5.06,5.06,0,0,1-2.73.71,4.1,4.1,0,0,1-3.12-1.19,5,5,0,0,1-1.37-3.54,5.44,5.44,0,0,1,1.48-3.81,4.21,4.21,0,0,1,3.1-1.25,4,4,0,0,1,3,1.21,5.54,5.54,0,0,1,1.3,3.91v.27H881a3.08,3.08,0,0,0,.8,1.87,2.2,2.2,0,0,0,1.64.59,2.27,2.27,0,0,0,1.48-.46,3.51,3.51,0,0,0,.86-1Zm-2.13-3.76a2.26,2.26,0,0,0-.66-1.26,2.1,2.1,0,0,0-1.45-.53,2.05,2.05,0,0,0-1.52.6,2.36,2.36,0,0,0-.66,1.19Z"/><path class="cls-2" d="M889.82,370.4H892v.86a3.18,3.18,0,0,1,2.51-1.1,3.09,3.09,0,0,1,2.73,1.25,4.15,4.15,0,0,1,.57,2.57v5.68h-2.15v-5.15c0-2.35-.88-2.42-1.7-2.42s-2,.13-2,3.13v4.44h-2.15Z"/><path class="cls-2" d="M529.1,353.26l3.08-15.77,5.1,11.39,5.15-11.39,2.77,15.77h-2.29l-1.49-8.84-4.27,9.52-4.23-9.55-1.54,8.87Z"/><path class="cls-2" d="M556.18,351.15a4.91,4.91,0,0,1-1.56,1.69,5.06,5.06,0,0,1-2.73.71,4.12,4.12,0,0,1-3.13-1.19,5,5,0,0,1-1.36-3.54,5.47,5.47,0,0,1,1.47-3.81,4.24,4.24,0,0,1,3.11-1.25,4,4,0,0,1,3,1.21,5.58,5.58,0,0,1,1.3,3.91v.27H549.6a3.07,3.07,0,0,0,.79,1.87,2.22,2.22,0,0,0,1.65.59,2.27,2.27,0,0,0,1.48-.46,3.51,3.51,0,0,0,.86-1ZM554,347.39a2.2,2.2,0,0,0-.66-1.26,2.24,2.24,0,0,0-3,.07,2.43,2.43,0,0,0-.66,1.19Z"/><path class="cls-2" d="M566.78,351.15a4.82,4.82,0,0,1-1.56,1.69,5.06,5.06,0,0,1-2.73.71,4.1,4.1,0,0,1-3.12-1.19,5,5,0,0,1-1.37-3.54,5.44,5.44,0,0,1,1.48-3.81,4.21,4.21,0,0,1,3.1-1.25,4,4,0,0,1,3,1.21,5.54,5.54,0,0,1,1.3,3.91v.27H560.2A3.08,3.08,0,0,0,561,351a2.21,2.21,0,0,0,1.65.59,2.26,2.26,0,0,0,1.47-.46,3.51,3.51,0,0,0,.86-1Zm-2.13-3.76a2.26,2.26,0,0,0-.66-1.26,2.1,2.1,0,0,0-1.45-.53,2.05,2.05,0,0,0-1.52.6,2.36,2.36,0,0,0-.66,1.19Z"/><path class="cls-2" d="M571.31,346v7.28h-2.15V346h-.91v-2h.91v-3.39h2.15V344H573v2Z"/><path class="cls-2" d="M575.49,338.78a1.39,1.39,0,1,1-1.38,1.39A1.36,1.36,0,0,1,575.49,338.78Zm1.08,5.22v9.26h-2.15V344Z"/><path class="cls-2" d="M579.28,344h2.15v.86a3.18,3.18,0,0,1,2.51-1.1,3.09,3.09,0,0,1,2.73,1.25,4.15,4.15,0,0,1,.57,2.57v5.68h-2.15v-5.15c0-2.35-.88-2.42-1.7-2.42s-2,.13-2,3.13v4.44h-2.15Z"/><path class="cls-2" d="M596.75,344h2.15v8.51c0,2.18-.24,3.74-1.52,4.82a4.66,4.66,0,0,1-3.08,1,4.09,4.09,0,0,1-3-1.14,5.2,5.2,0,0,1-1.37-2.88H592a3.09,3.09,0,0,0,.68,1.45,2.26,2.26,0,0,0,1.68.64,2.31,2.31,0,0,0,1.69-.62,3,3,0,0,0,.71-2.33v-1.21a3.38,3.38,0,0,1-2.82,1.32,3.92,3.92,0,0,1-3.06-1.26,5.25,5.25,0,0,1-1.39-3.67,4.91,4.91,0,0,1,1.37-3.59,4.22,4.22,0,0,1,3.15-1.27,3.48,3.48,0,0,1,2.75,1.25Zm-4.12,2.31a3.4,3.4,0,0,0,0,4.69,2.52,2.52,0,0,0,1.65.61,2.33,2.33,0,0,0,1.8-.75,3.07,3.07,0,0,0,.82-2.18,3.1,3.1,0,0,0-.88-2.33,2.54,2.54,0,0,0-3.37,0Z"/><path class="cls-2" d="M650,353.26,653,337.49l5.1,11.39,5.15-11.39,2.77,15.77h-2.28l-1.5-8.84L658,353.94l-4.22-9.55-1.54,8.87Z"/><path class="cls-2" d="M677,351.15a4.91,4.91,0,0,1-1.56,1.69,5.06,5.06,0,0,1-2.73.71,4.1,4.1,0,0,1-3.12-1.19,5,5,0,0,1-1.37-3.54,5.44,5.44,0,0,1,1.48-3.81,4.21,4.21,0,0,1,3.1-1.25,4,4,0,0,1,3,1.21,5.54,5.54,0,0,1,1.3,3.91v.27h-6.65a3.13,3.13,0,0,0,.79,1.87,2.24,2.24,0,0,0,1.65.59,2.27,2.27,0,0,0,1.48-.46,3.51,3.51,0,0,0,.86-1Zm-2.13-3.76a2.26,2.26,0,0,0-.66-1.26,2.1,2.1,0,0,0-1.46-.53,2,2,0,0,0-1.51.6,2.36,2.36,0,0,0-.66,1.19Z"/><path class="cls-2" d="M687.63,351.15a4.73,4.73,0,0,1-1.56,1.69,5.06,5.06,0,0,1-2.73.71,4.1,4.1,0,0,1-3.12-1.19,5,5,0,0,1-1.37-3.54,5.44,5.44,0,0,1,1.48-3.81,4.21,4.21,0,0,1,3.1-1.25,4,4,0,0,1,3,1.21,5.54,5.54,0,0,1,1.3,3.91v.27h-6.65a3.08,3.08,0,0,0,.8,1.87,2.21,2.21,0,0,0,1.65.59,2.26,2.26,0,0,0,1.47-.46,3.36,3.36,0,0,0,.86-1Zm-2.13-3.76a2.26,2.26,0,0,0-.66-1.26,2.1,2.1,0,0,0-1.45-.53,2.07,2.07,0,0,0-1.52.6,2.36,2.36,0,0,0-.66,1.19Z"/><path class="cls-2" d="M692.17,346v7.28H690V346h-.9v-2h.9v-3.39h2.16V344h1.64v2Z"/><path class="cls-2" d="M696.34,338.78a1.39,1.39,0,1,1-1.38,1.39A1.36,1.36,0,0,1,696.34,338.78Zm1.08,5.22v9.26h-2.15V344Z"/><path class="cls-2" d="M700.13,344h2.15v.86a3.18,3.18,0,0,1,2.51-1.1,3.08,3.08,0,0,1,2.73,1.25,4.15,4.15,0,0,1,.57,2.57v5.68h-2.15v-5.15c0-2.35-.88-2.42-1.7-2.42-1,0-2,.13-2,3.13v4.44h-2.15Z"/><path class="cls-2" d="M717.6,344h2.15v8.51c0,2.18-.24,3.74-1.51,4.82a4.7,4.7,0,0,1-3.08,1,4.09,4.09,0,0,1-3-1.14,5.26,5.26,0,0,1-1.37-2.88h2.09a3.11,3.11,0,0,0,.69,1.45,2.21,2.21,0,0,0,1.67.64,2.31,2.31,0,0,0,1.69-.62,3,3,0,0,0,.71-2.33v-1.21a3.37,3.37,0,0,1-2.82,1.32,3.92,3.92,0,0,1-3.06-1.26,5.25,5.25,0,0,1-1.38-3.67A4.91,4.91,0,0,1,711.7,345a4.23,4.23,0,0,1,3.15-1.27A3.48,3.48,0,0,1,717.6,345Zm-4.12,2.31a3.42,3.42,0,0,0,0,4.69,2.54,2.54,0,0,0,1.65.61,2.37,2.37,0,0,0,1.81-.75,3.43,3.43,0,0,0-.07-4.51,2.54,2.54,0,0,0-3.37,0Z"/><path class="cls-2" d="M951.4,353.26l3.08-15.77,5.11,11.39,5.15-11.39,2.77,15.77h-2.29l-1.5-8.84-4.26,9.52-4.23-9.55-1.54,8.87Z"/><path class="cls-2" d="M978.49,351.15a4.84,4.84,0,0,1-1.57,1.69,5,5,0,0,1-2.72.71,4.11,4.11,0,0,1-3.13-1.19,5,5,0,0,1-1.36-3.54,5.43,5.43,0,0,1,1.47-3.81,4.21,4.21,0,0,1,3.1-1.25,4,4,0,0,1,3,1.21,5.54,5.54,0,0,1,1.3,3.91v.27h-6.64a3.07,3.07,0,0,0,.79,1.87,2.22,2.22,0,0,0,1.65.59,2.26,2.26,0,0,0,1.47-.46,3.36,3.36,0,0,0,.86-1Zm-2.14-3.76a2.26,2.26,0,0,0-.66-1.26,2.24,2.24,0,0,0-3,.07,2.36,2.36,0,0,0-.66,1.19Z"/><path class="cls-2" d="M989.09,351.15a4.91,4.91,0,0,1-1.56,1.69,5.06,5.06,0,0,1-2.73.71,4.12,4.12,0,0,1-3.13-1.19,5,5,0,0,1-1.36-3.54,5.47,5.47,0,0,1,1.47-3.81,4.24,4.24,0,0,1,3.11-1.25,4,4,0,0,1,3,1.21,5.58,5.58,0,0,1,1.3,3.91v.27h-6.65a3.07,3.07,0,0,0,.79,1.87,2.22,2.22,0,0,0,1.65.59,2.27,2.27,0,0,0,1.48-.46,3.51,3.51,0,0,0,.86-1ZM987,347.39a2.21,2.21,0,0,0-.67-1.26,2.24,2.24,0,0,0-3,.07,2.43,2.43,0,0,0-.66,1.19Z"/><path class="cls-2" d="M993.62,346v7.28h-2.16V346h-.9v-2h.9v-3.39h2.16V344h1.65v2Z"/><path class="cls-2" d="M997.8,338.78a1.39,1.39,0,1,1-1.39,1.39A1.36,1.36,0,0,1,997.8,338.78Zm1.08,5.22v9.26h-2.16V344Z"/><path class="cls-2" d="M1001.58,344h2.16v.86a3.17,3.17,0,0,1,2.51-1.1A3.11,3.11,0,0,1,1009,345a4.15,4.15,0,0,1,.57,2.57v5.68h-2.16v-5.15c0-2.35-.88-2.42-1.69-2.42-1,0-2,.13-2,3.13v4.44h-2.16Z"/><path class="cls-2" d="M1019.05,344h2.16v8.51c0,2.18-.24,3.74-1.52,4.82a4.66,4.66,0,0,1-3.08,1,4.09,4.09,0,0,1-3-1.14,5.19,5.19,0,0,1-1.36-2.88h2.09a3.09,3.09,0,0,0,.68,1.45,2.23,2.23,0,0,0,1.67.64,2.34,2.34,0,0,0,1.7-.62,3.06,3.06,0,0,0,.7-2.33v-1.21a3.36,3.36,0,0,1-2.81,1.32,3.92,3.92,0,0,1-3.06-1.26,5.21,5.21,0,0,1-1.39-3.67,4.91,4.91,0,0,1,1.37-3.59,4.21,4.21,0,0,1,3.14-1.27,3.46,3.46,0,0,1,2.75,1.25Zm-4.11,2.31a3.2,3.2,0,0,0-1,2.35,3.17,3.17,0,0,0,.93,2.34,2.52,2.52,0,0,0,1.65.61,2.35,2.35,0,0,0,1.8-.75,3.06,3.06,0,0,0,.81-2.18,3.1,3.1,0,0,0-.88-2.33,2.26,2.26,0,0,0-1.73-.66A2.23,2.23,0,0,0,1014.94,346.31Z"/><path class="cls-2" d="M1072.25,353.26l3.08-15.77,5.11,11.39,5.15-11.39,2.77,15.77h-2.29l-1.49-8.84-4.27,9.52-4.23-9.55-1.54,8.87Z"/><path class="cls-2" d="M1099.34,351.15a4.91,4.91,0,0,1-1.56,1.69,5.06,5.06,0,0,1-2.73.71,4.12,4.12,0,0,1-3.13-1.19,5,5,0,0,1-1.36-3.54A5.43,5.43,0,0,1,1092,345a4.24,4.24,0,0,1,3.11-1.25,4,4,0,0,1,3,1.21,5.57,5.57,0,0,1,1.29,3.91v.27h-6.64a3.07,3.07,0,0,0,.79,1.87,2.22,2.22,0,0,0,1.65.59,2.27,2.27,0,0,0,1.48-.46,3.32,3.32,0,0,0,.85-1Zm-2.14-3.76a2.2,2.2,0,0,0-.66-1.26,2.24,2.24,0,0,0-3,.07,2.43,2.43,0,0,0-.66,1.19Z"/><path class="cls-2" d="M1109.94,351.15a4.82,4.82,0,0,1-1.56,1.69,5.06,5.06,0,0,1-2.73.71,4.1,4.1,0,0,1-3.12-1.19,5,5,0,0,1-1.37-3.54,5.44,5.44,0,0,1,1.48-3.81,4.21,4.21,0,0,1,3.1-1.25,4,4,0,0,1,3,1.21,5.54,5.54,0,0,1,1.3,3.91v.27h-6.65a3.08,3.08,0,0,0,.8,1.87,2.2,2.2,0,0,0,1.64.59,2.27,2.27,0,0,0,1.48-.46,3.51,3.51,0,0,0,.86-1Zm-2.13-3.76a2.26,2.26,0,0,0-.66-1.26,2.1,2.1,0,0,0-1.45-.53,2.05,2.05,0,0,0-1.52.6,2.36,2.36,0,0,0-.66,1.19Z"/><path class="cls-2" d="M1114.47,346v7.28h-2.15V346h-.91v-2h.91v-3.39h2.15V344h1.65v2Z"/><path class="cls-2" d="M1118.65,338.78a1.39,1.39,0,1,1-1.38,1.39A1.36,1.36,0,0,1,1118.65,338.78Zm1.08,5.22v9.26h-2.16V344Z"/><path class="cls-2" d="M1122.44,344h2.15v.86a3.18,3.18,0,0,1,2.51-1.1,3.09,3.09,0,0,1,2.73,1.25,4.15,4.15,0,0,1,.57,2.57v5.68h-2.15v-5.15c0-2.35-.89-2.42-1.7-2.42-1,0-2,.13-2,3.13v4.44h-2.15Z"/><path class="cls-2" d="M1139.91,344h2.15v8.51c0,2.18-.24,3.74-1.52,4.82a4.66,4.66,0,0,1-3.08,1,4.07,4.07,0,0,1-3-1.14,5.2,5.2,0,0,1-1.37-2.88h2.09a3.09,3.09,0,0,0,.68,1.45,2.26,2.26,0,0,0,1.68.64,2.31,2.31,0,0,0,1.69-.62,3,3,0,0,0,.71-2.33v-1.21a3.38,3.38,0,0,1-2.82,1.32,3.92,3.92,0,0,1-3.06-1.26,5.21,5.21,0,0,1-1.39-3.67A4.91,4.91,0,0,1,1134,345a4.21,4.21,0,0,1,3.14-1.27,3.49,3.49,0,0,1,2.76,1.25Zm-4.12,2.31a3.4,3.4,0,0,0,0,4.69,2.52,2.52,0,0,0,1.65.61,2.35,2.35,0,0,0,1.8-.75,3.07,3.07,0,0,0,.82-2.18,3.1,3.1,0,0,0-.88-2.33,2.3,2.3,0,0,0-1.74-.66A2.23,2.23,0,0,0,1135.79,346.31Z"/><path class="cls-2" d="M1207.45,349.72h-6.27l-1.6,3.54h-2.42l7.3-15.53,7,15.53H1209Zm-.9-2.11-2.18-5-2.26,5Z"/><path class="cls-2" d="M1215,345.08a3.36,3.36,0,0,1,2.75-1.32,4.52,4.52,0,0,1,4.51,4.86c0,2.55-1.63,4.93-4.49,4.93a3.57,3.57,0,0,1-2.77-1.26v1h-2.16v-16H1215Zm-.13,3.6a2.64,2.64,0,0,0,2.62,2.93,3,3,0,0,0,0-5.92C1216.14,345.69,1214.89,346.66,1214.89,348.68Z"/><path class="cls-2" d="M1231.3,344h2.16v8.51c0,2.18-.24,3.74-1.52,4.82a4.66,4.66,0,0,1-3.08,1,4.09,4.09,0,0,1-3-1.14,5.19,5.19,0,0,1-1.36-2.88h2.09a3.09,3.09,0,0,0,.68,1.45,2.23,2.23,0,0,0,1.67.64,2.36,2.36,0,0,0,1.7-.62,3.06,3.06,0,0,0,.7-2.33v-1.21a3.36,3.36,0,0,1-2.81,1.32,3.92,3.92,0,0,1-3.06-1.26,5.21,5.21,0,0,1-1.39-3.67,5,5,0,0,1,1.36-3.59,4.25,4.25,0,0,1,3.15-1.27,3.47,3.47,0,0,1,2.75,1.25Zm-4.11,2.31a3.2,3.2,0,0,0-1,2.35,3.17,3.17,0,0,0,.93,2.34,2.52,2.52,0,0,0,1.65.61,2.35,2.35,0,0,0,1.8-.75,3.06,3.06,0,0,0,.81-2.18,3.1,3.1,0,0,0-.88-2.33,2.26,2.26,0,0,0-1.73-.66A2.23,2.23,0,0,0,1227.19,346.31Z"/><path class="cls-2" d="M1243,344h2.16v9.26H1243v-1a3.56,3.56,0,0,1-2.77,1.26c-2.86,0-4.49-2.38-4.49-4.93a4.52,4.52,0,0,1,4.51-4.86,3.36,3.36,0,0,1,2.75,1.32Zm-5.06,4.66a2.7,2.7,0,0,0,2.58,2.95,2.64,2.64,0,0,0,2.61-2.93c0-2-1.25-3-2.61-3A2.7,2.7,0,0,0,1237.9,348.66Z"/><path class="cls-2" d="M1250,345.08a3.36,3.36,0,0,1,2.75-1.32,4.52,4.52,0,0,1,4.51,4.86c0,2.55-1.63,4.93-4.49,4.93a3.57,3.57,0,0,1-2.77-1.26v1h-2.16v-16H1250Zm-.13,3.6a2.64,2.64,0,0,0,2.62,2.93,3,3,0,0,0,0-5.92C1251.12,345.69,1249.87,346.66,1249.87,348.68Z"/><path class="cls-2" d="M1267.8,351.15a4.91,4.91,0,0,1-1.56,1.69,5.06,5.06,0,0,1-2.73.71,4.12,4.12,0,0,1-3.13-1.19,5,5,0,0,1-1.36-3.54,5.44,5.44,0,0,1,1.48-3.81,4.2,4.2,0,0,1,3.1-1.25,4,4,0,0,1,3,1.21,5.54,5.54,0,0,1,1.3,3.91v.27h-6.65A3.07,3.07,0,0,0,1262,351a2.24,2.24,0,0,0,1.65.59,2.27,2.27,0,0,0,1.48-.46,3.51,3.51,0,0,0,.86-1Zm-2.13-3.76a2.26,2.26,0,0,0-.66-1.26,2.1,2.1,0,0,0-1.46-.53,2,2,0,0,0-1.51.6,2.36,2.36,0,0,0-.66,1.19Z"/></g></g></svg>