<svg xmlns="http://www.w3.org/2000/svg" viewBox="0 0 245.89 273.9"><defs><style>.cls-1{fill:#fff;}</style></defs><title>Element 33</title><g id="Ebene_2" data-name="Ebene 2"><g id="Ebene_1-2" data-name="Ebene 1"><path class="cls-1" d="M156,167.61l16.88,0h6.34l2.34-5.89,12.41-31.21L199,117.63l-13.82,0-29.36.06-.08-39.52A28.14,28.14,0,0,1,183.84,50L219.71,50H226l2.34-5.89,12.41-31.21L245.89,0,232.08,0,183.72.14A78,78,0,0,0,105.88,78.3h0l.08,39.52-28.11.06A78,78,0,1,0,156,195.74Zm-29.31,76.71a68.65,68.65,0,1,1-48.78-117.1l28.13-.06.06,31.19-28.13.06a37.47,37.47,0,1,0,37.54,37.39l-.07-32.1h0l-.09-47.11h0l-.08-38.34A68.65,68.65,0,0,1,183.77,9.47l48.34-.1L219.7,40.59l-35.88.07A37.51,37.51,0,0,0,146.43,78.2l.11,48.87,38.71-.08-12.41,31.21-26.25.06.08,37.47A68.2,68.2,0,0,1,126.66,244.33Zm-20.58-76.62.06,28.11A28.11,28.11,0,1,1,78,167.76h0Z"/></g></g></svg>