<svg xmlns="http://www.w3.org/2000/svg" width="192.584" height="11.144" viewBox="0 0 192.584 11.144">
  <path id="Pfad_58" data-name="Pfad 58" d="M-93.051-10.556V0h-2.744V-10.556Zm8.008,2.7a3.388,3.388,0,0,0-.9-.539,2.379,2.379,0,0,0-.868-.175,1.408,1.408,0,0,0-.868.252.785.785,0,0,0-.336.658.655.655,0,0,0,.168.462,1.464,1.464,0,0,0,.441.315,3.775,3.775,0,0,0,.616.231q.343.1.679.21a4.234,4.234,0,0,1,1.967,1.2,2.953,2.953,0,0,1,.623,1.953,3.8,3.8,0,0,1-.273,1.47,3.067,3.067,0,0,1-.8,1.127,3.682,3.682,0,0,1-1.288.728A5.364,5.364,0,0,1-87.6.294,6.359,6.359,0,0,1-91.315-.9l1.176-2.212a4.77,4.77,0,0,0,1.218.812,2.927,2.927,0,0,0,1.19.266,1.42,1.42,0,0,0,1-.308.937.937,0,0,0,.329-.7.945.945,0,0,0-.084-.413.894.894,0,0,0-.28-.322,2.244,2.244,0,0,0-.511-.273q-.315-.126-.763-.28-.532-.168-1.043-.371a3.282,3.282,0,0,1-.91-.539,2.5,2.5,0,0,1-.644-.847,3,3,0,0,1-.245-1.3A3.741,3.741,0,0,1-90.622-8.8a3.158,3.158,0,0,1,.728-1.092,3.245,3.245,0,0,1,1.148-.707,4.34,4.34,0,0,1,1.519-.252,6.649,6.649,0,0,1,1.638.217A7.225,7.225,0,0,1-83.951-10Zm7.322-.378V0h-2.744V-8.232h-2.254v-2.324h7.252v2.324Zm10.976-2.324v8.232h3.29V0h-6.034V-10.556ZM-55.867-3.92-57.1-7.434-58.331-3.92Zm.728,2.086h-3.92L-59.689,0h-2.926L-58.6-10.556h3L-51.583,0h-2.926Zm8.3-6.4V0h-2.744V-8.232h-2.254v-2.324h7.252v2.324Zm9.478,0h-3.262v1.764h3.08v2.324h-3.08v1.82h3.262V0h-6.006V-10.556h6.006Zm4.718-2.324V0h-2.744V-10.556ZM-30.429,0V-10.556h2.744L-22.617-4.1v-6.454h2.73V0h-2.73l-5.068-6.454V0Zm20.258-10.556v5.74q0,.462.035.945A2.59,2.59,0,0,0-9.926-3a1.456,1.456,0,0,0,.553.637,1.951,1.951,0,0,0,1.064.245,1.914,1.914,0,0,0,1.057-.245A1.518,1.518,0,0,0-6.7-3a2.487,2.487,0,0,0,.217-.875q.035-.483.035-.945v-5.74h2.73v6.118A4.941,4.941,0,0,1-4.844-.84,4.7,4.7,0,0,1-8.309.294,4.726,4.726,0,0,1-11.781-.84a4.922,4.922,0,0,1-1.134-3.6v-6.118ZM-1.5,0V-10.556H1.239L6.307-4.1v-6.454h2.73V0H6.307L1.239-6.454V0Zm15.5-2.324h.63A3.408,3.408,0,0,0,15.9-2.548a2.72,2.72,0,0,0,.945-.616,2.638,2.638,0,0,0,.588-.931,3.331,3.331,0,0,0,.2-1.183,3.248,3.248,0,0,0-.21-1.176,2.707,2.707,0,0,0-.595-.938,2.72,2.72,0,0,0-.945-.616,3.368,3.368,0,0,0-1.26-.224h-.63Zm-2.744-8.232h4.06a4.789,4.789,0,0,1,2.023.434,5.513,5.513,0,0,1,1.652,1.155A5.358,5.358,0,0,1,20.1-7.287,5.1,5.1,0,0,1,20.5-5.278a5.144,5.144,0,0,1-.4,1.995A5.343,5.343,0,0,1,19-1.6,5.452,5.452,0,0,1,17.346-.434,4.822,4.822,0,0,1,15.309,0h-4.06ZM29.757-2.128h.6a3.061,3.061,0,0,0,1.484-.266.918.918,0,0,0,.448-.854.918.918,0,0,0-.448-.854,3.061,3.061,0,0,0-1.484-.266h-.6Zm0-4.284h.5q1.288,0,1.288-1.022T30.261-8.456h-.5Zm-2.744-4.144H31.1a3.146,3.146,0,0,1,2.212.7,2.612,2.612,0,0,1,.756,2.016,2.735,2.735,0,0,1-.287,1.323,2.413,2.413,0,0,1-.875.889,3.316,3.316,0,0,1,1,.343,2.173,2.173,0,0,1,.672.567,2.12,2.12,0,0,1,.371.756,3.466,3.466,0,0,1,.112.9A3.169,3.169,0,0,1,34.8-1.75a2.673,2.673,0,0,1-.728.966A3.113,3.113,0,0,1,32.935-.2a5.4,5.4,0,0,1-1.512.2h-4.41ZM42.707-8.232H39.445v1.764h3.08v2.324h-3.08v1.82h3.262V0H36.7V-10.556h6.006Zm4.718,5.908h.63a3.408,3.408,0,0,0,1.274-.224,2.72,2.72,0,0,0,.945-.616,2.638,2.638,0,0,0,.588-.931,3.331,3.331,0,0,0,.2-1.183,3.248,3.248,0,0,0-.21-1.176,2.707,2.707,0,0,0-.595-.938,2.72,2.72,0,0,0-.945-.616,3.368,3.368,0,0,0-1.26-.224h-.63Zm-2.744-8.232h4.06a4.789,4.789,0,0,1,2.023.434,5.513,5.513,0,0,1,1.652,1.155,5.358,5.358,0,0,1,1.113,1.68,5.1,5.1,0,0,1,.406,2.009,5.144,5.144,0,0,1-.4,1.995A5.343,5.343,0,0,1,52.43-1.6,5.452,5.452,0,0,1,50.778-.434,4.822,4.822,0,0,1,48.741,0h-4.06Zm17.01,2.324H58.429v1.764h3.08v2.324h-3.08v1.82h3.262V0H55.685V-10.556h6.006Zm4.718-2.324v5.74q0,.462.035.945a2.59,2.59,0,0,0,.21.875,1.456,1.456,0,0,0,.553.637,1.951,1.951,0,0,0,1.064.245,1.914,1.914,0,0,0,1.057-.245A1.518,1.518,0,0,0,69.881-3a2.488,2.488,0,0,0,.217-.875q.035-.483.035-.945v-5.74h2.73v6.118a4.941,4.941,0,0,1-1.127,3.6A4.7,4.7,0,0,1,68.271.294,4.726,4.726,0,0,1,64.8-.84a4.922,4.922,0,0,1-1.134-3.6v-6.118Zm12.67,2.324V0H76.335V-8.232H74.081v-2.324h7.252v2.324Zm9.478,0H85.295v1.764h3.08v2.324h-3.08v1.82h3.262V0H82.551V-10.556h6.006Zm5.978,0V0H91.791V-8.232H89.537v-2.324h7.252v2.324Z" transform="translate(95.795 10.85)" fill="#fff"/>
</svg>
