<svg xmlns="http://www.w3.org/2000/svg" width="375" height="51.333" viewBox="0 0 375 51.333">
  <path id="Pfad_2" data-name="Pfad 2" d="M39.5-262.146v37.919H54.654v10.705H26.86v-48.624Zm49.334,10.705H73.808v8.126H87.995v10.705H73.808v8.383H88.833v10.705H61.168v-48.624H88.833Zm32.76,10.705h25.086a69.693,69.693,0,0,1-.322,7.029,24.914,24.914,0,0,1-1.29,5.868,23.42,23.42,0,0,1-3.676,6.739,21.5,21.5,0,0,1-5.449,4.9,25.613,25.613,0,0,1-6.868,3,29.457,29.457,0,0,1-7.868,1.032,27.635,27.635,0,0,1-10.35-1.87,23.358,23.358,0,0,1-8.029-5.256,23.8,23.8,0,0,1-5.224-8.126,28.32,28.32,0,0,1-1.87-10.479,28.577,28.577,0,0,1,1.838-10.415,22.856,22.856,0,0,1,5.224-8.093,23.738,23.738,0,0,1,8.158-5.224,28.944,28.944,0,0,1,10.641-1.87,26.378,26.378,0,0,1,13.349,3.289,22.771,22.771,0,0,1,9.093,10.189l-11.995,4.966a12.2,12.2,0,0,0-4.353-5.739,10.927,10.927,0,0,0-6.094-1.741,12.237,12.237,0,0,0-5.159,1.064,11.18,11.18,0,0,0-3.966,3.031,14.548,14.548,0,0,0-2.58,4.74,19.3,19.3,0,0,0-.935,6.191,19.6,19.6,0,0,0,.806,5.739,12.963,12.963,0,0,0,2.418,4.579,10.9,10.9,0,0,0,4,3,13.507,13.507,0,0,0,5.546,1.064,15.378,15.378,0,0,0,3.611-.419,9.529,9.529,0,0,0,3.128-1.354,7.706,7.706,0,0,0,2.289-2.418,9.674,9.674,0,0,0,1.225-3.611H121.593Zm60.748-10.705H167.316v8.126H181.5v10.705H167.316v8.383h15.026v10.705H154.676v-48.624h27.666ZM239.8-231.578l-5.675-16.187-5.675,16.187Zm3.353,9.609H225.1l-2.9,8.448H208.717l18.508-48.624h13.8l18.508,48.624H246.056Zm34.566-18.444h2.386a9.216,9.216,0,0,0,5.739-1.548,5.292,5.292,0,0,0,2-4.45,5.292,5.292,0,0,0-2-4.45,9.216,9.216,0,0,0-5.739-1.548H277.72Zm27.794,26.892H289.779l-12.059-18.7v18.7H265.08v-48.624h19.669a19.305,19.305,0,0,1,7.094,1.193,13.726,13.726,0,0,1,5,3.257,13.731,13.731,0,0,1,2.966,4.772,16.632,16.632,0,0,1,1,5.8,14.264,14.264,0,0,1-2.676,9,13.478,13.478,0,0,1-7.9,4.675Zm23.8-37.919v37.919h-12.64v-37.919H306.288v-10.705h33.4v10.705Zm28.633-10.705v48.624H345.3v-48.624ZM394.831-249.7a15.607,15.607,0,0,0-4.127-2.483,10.96,10.96,0,0,0-4-.806,6.488,6.488,0,0,0-4,1.161,3.617,3.617,0,0,0-1.548,3.031,3.015,3.015,0,0,0,.774,2.128,6.745,6.745,0,0,0,2.031,1.451,17.388,17.388,0,0,0,2.837,1.064q1.58.451,3.128.967,6.191,2.064,9.061,5.514a13.6,13.6,0,0,1,2.87,9A17.514,17.514,0,0,1,400.6-221.9a14.129,14.129,0,0,1-3.676,5.191,16.961,16.961,0,0,1-5.933,3.353,24.708,24.708,0,0,1-7.964,1.193,29.29,29.29,0,0,1-17.089-5.482l5.417-10.189a21.973,21.973,0,0,0,5.61,3.74,13.485,13.485,0,0,0,5.482,1.225,6.543,6.543,0,0,0,4.611-1.419,4.317,4.317,0,0,0,1.515-3.224,4.355,4.355,0,0,0-.387-1.9,4.12,4.12,0,0,0-1.29-1.483,10.338,10.338,0,0,0-2.354-1.258q-1.451-.58-3.515-1.29-2.451-.774-4.8-1.709a15.118,15.118,0,0,1-4.192-2.483,11.537,11.537,0,0,1-2.967-3.9,13.8,13.8,0,0,1-1.129-5.965,17.232,17.232,0,0,1,1.193-6.546,14.545,14.545,0,0,1,3.353-5.03,14.947,14.947,0,0,1,5.288-3.257,19.99,19.99,0,0,1,7-1.161,30.627,30.627,0,0,1,7.545,1,33.277,33.277,0,0,1,7.545,2.934Z" transform="translate(-26.86 263.5)" fill="#e6c440"/>
</svg>
