<svg id="Ebene_1" data-name="Ebene 1" xmlns="http://www.w3.org/2000/svg" viewBox="0 0 229 175"><defs><style>.cls-1{fill:#fff;}</style></defs><title>logo</title><path class="cls-1" d="M-191,169h38c3.53,6.9-.17,13.55-.8,19.11,3.12-1.29,6.52-3.69,10.08-4,8.1-.63,16.28-.34,24.43-.18,6,.12,9.36,4.52,8.2,10.32-.79,4-1.69,8-2.86,13.42,4.66-5.94,9.69-7.09,15.48-6.77,5.63.32,11.33-.27,16.94.2,3.24.28,6.36,1.87,9.53,2.87v15c-.26.18-.7.32-.75.55C-77.85,244.78-83,270-87.95,295.26c-1.11,5.64-4.37,9.76-9.66,10.55-7.49,1.12-15.2.85-22.82,1.1-5.2.17-9.77-1-12-6.54-8.59,11.36-38,12.66-44.13,1.92-3.18,7.13-8.83,9.28-16.17,8.78a129.62,129.62,0,0,0-16.49,0c-5.52.34-9.63-1.22-11.6-7.29-4,5.88-9.05,7.7-15.34,7.3a130.17,130.17,0,0,0-17,0c-9.75.66-12.14-5.15-10.47-13.27.58-2.77,1.11-5.55,1.58-7.94-10.66,2-20.95,1.4-31.16.68-4.41-.32-7.51-5.57-6.72-9.6,2.33-11.91,4.66-23.81,7.15-35.68,1.16-5.5,4.18-10.55,9.92-11,10.35-.78,20.81-.22,31.72-.22.23-.8.79-2.33,1.11-3.9,3-14.77,6-29.56,9.05-44.31A12.58,12.58,0,0,1-228.51,176c5.34,0,10.67-.05,16,0,5.86.07,12.32-1.77,15.2,4.31Zm-15.38,108.84c1.69-5.52,3.1-9.7,4.23-13.95.78-2.91,2.47-4,5.39-3.92,4.66.12,9.33.15,14-.06,1.23-.05,2.42-1.13,3.63-1.73-1.26-.73-2.48-2-3.78-2.08-4.31-.26-8.65-.23-13-.07-6.58.25-9.32,2.54-11.14,8.84-.81,2.82-1.76,5.6-2.55,8.42-1.66,5.93.19,8.55,6.25,8.68,5.33.12,10.66.11,16,0,6.87-.14,12-5.62,11.21-12.29-.11-1-2-2.45-3.17-2.56a61.83,61.83,0,0,0-11,0c-1.44.12-2.77,1.41-4.16,2.16l.64,1.78h13.9c-2,2.94-3.12,6.41-4.55,6.53C-191.47,278.15-198.53,277.84-206.38,277.84ZM-158.13,264a25.93,25.93,0,0,0,.19-3.38c-.13-1.52-.43-3-.67-4.54-1.13,1.21-2.84,2.24-3.29,3.66-1.92,6.06-3.54,12.22-5.08,18.39-.28,1.11.32,2.44.51,3.67,1.16-.8,2.93-1.36,3.36-2.45,1.41-3.61,2.33-7.41,3.44-11.15h23.2c-.9,3.45-1.89,6.58-2.46,9.78-.21,1.22.57,2.61.89,3.93,1-1,2.61-1.8,3-3,2.08-6.35,3.94-12.77,5.68-19.22.3-1.12-.35-2.5-.55-3.75l-1.59-.33c-.85,1.57-2,3-2.46,4.73-.68,2.59-1.77,3.82-4.71,3.72C-145,263.87-151.28,264-158.13,264Zm-121.36,4c4,0,8.05.33,12-.1,3.44-.38,7.79,2.11,11.18-3.52H-277.8l-.62-2.1c1.5-.76,3-2.1,4.5-2.17,5.3-.28,10.63,0,15.94-.21,1.3,0,2.55-1.31,3.83-2-1.19-.62-2.35-1.76-3.55-1.79-6.48-.18-13-.35-19.44.09-1.68.12-4.06,2.14-4.65,3.81a184.13,184.13,0,0,0-5.07,17.89c-.29,1.21.59,2.7.93,4.07,1.12-1,2.78-1.76,3.24-3C-281.38,275.49-280.57,271.84-279.49,268Zm174.57-8c-1.77,6.09-3.53,11.67-4.94,17.33-.34,1.38.43,3.05.69,4.58,1.13-1.09,2.83-2,3.28-3.31,2-6,3.7-12.1,5.38-17.76,4.53-2.88,11,2.12,15.44-4.52-2.42-.17-3.56-.32-4.71-.32-8.3,0-16.6-.11-24.9.11-1.27,0-2.49,1.58-3.73,2.43l.82,1.46Zm-133.75,21.9c4-.93,10.15-18.46,9.27-25.57C-233.13,256.87-239.22,273.34-238.67,281.91Z" transform="translate(301 -169)"/><path class="cls-1" d="M-263,344c-1-1-2.93-2.24-2.78-3.07,1.1-6.22,2-12.6,4.21-18.44,1.61-4.22,6.32-4.71,10.71-4.53s9,0,13.47.06c5.62.09,7.66,2.63,6.38,8-1,4-1.55,8.11-3.21,11.76-1.11,2.46-3.8,4.21-5.78,6.27Zm1.74-5a42.36,42.36,0,0,0,19.33.05,4.83,4.83,0,0,0,2.76-3c1.25-4,2.13-8.2,3.46-13.6-5.2-.1-10-.22-14.89-.28-4.05,0-6.94,1.13-7.56,5.9C-258.6,331.49-260,334.72-261.26,339Z" transform="translate(301 -169)"/><path class="cls-1" d="M-154,344c-3-2.69-3.15-5.56-2.32-9.62,4.06-19.88,8.58-16.09,21.77-16.37a33.37,33.37,0,0,1,5.48.07c.93.14,1.75,1,2.61,1.6-.86.82-1.67,2.27-2.58,2.34a119.67,119.67,0,0,1-12,.18c-4.59-.13-7.48,1.34-8.16,6.42-.44,3.34-1.82,6.55-2.93,10.34,6.57,1.54,13,1.83,19.19,0,1.61-.46,2.54-3.28,4.5-6h-13.1l-.85-1.33c1.22-.88,2.39-2.42,3.66-2.52,4.14-.33,8.32-.16,12.48-.11,2.51,0,3.18.68,2.56,3.68-1,4.91-2.72,8.92-7.33,11.3Z" transform="translate(301 -169)"/><path class="cls-1" d="M-194,344c-.14-1-.6-2.15-.36-3.08q2.55-9.94,5.37-19.83c1-3.65,3.24-4.31,6-1.56,5.35,5.4,10.51,11,15.76,16.54,4.42-5.46,1.33-14.77,8.56-18.41l2.64,1.07Q-160,331.38-164,344h-3l-18.14-16.54c-1.41,4.8-3.14,10.67-4.86,16.54Z" transform="translate(301 -169)"/><path class="cls-1" d="M-121,344c-.31-.58-1-1.25-.87-1.72,1.94-7.59,3.9-15.18,6.12-22.69.23-.78,2.14-1.49,3.28-1.52,6.33-.14,12.67-.17,19,0,1.13,0,2.22,1.31,3.33,2-1.18.68-2.33,1.9-3.54,2-4.82.24-9.67-.05-14.49.23-1.42.09-2.77,1.39-4.15,2.13l.62,1.56c5.29,0,10.59-.11,15.88.08,1.24.05,2.45,1.1,3.68,1.69-1.24.75-2.44,2.05-3.73,2.14a65.56,65.56,0,0,1-12,0c-4.42-.51-6.35,1.34-6.94,5.39-.22,1.44-.6,2.86-1,4.69h21.26L-96,344Z" transform="translate(301 -169)"/><path class="cls-1" d="M-227,344c-3.1-2.88-3.56-6.12-2.06-10.11,1.42-3.81,2.06-7.9,3.24-11.8.77-2.57,1.79-5.19,6.23-3.36-1.6,6.5-3.23,13.09-5,20.19a37.06,37.06,0,0,0,19.08.08c1.05-.28,2.09-1.89,2.48-3.1,1.48-4.66,2.46-9.5,4.15-14.08.57-1.54,2.67-2.52,4.07-3.75.29,1.62,1.06,3.34.77,4.86-.7,3.67-2.35,7.19-2.78,10.88A12.27,12.27,0,0,1-204,344Z" transform="translate(301 -169)"/><path class="cls-1" d="M-301,336q2-6.71,4-13.42c.83-2.77,1.65-5.56,6.41-3.95-1.66,6.58-3.32,13.17-5.12,20.33,8.28,2.42,16.94.06,25.87,1.42L-271,344h-30Z" transform="translate(301 -169)"/></svg>