<svg xmlns="http://www.w3.org/2000/svg" viewBox="0 0 669.02 313.92"><defs><style>.cls-1{opacity:0.4;}.cls-2,.cls-6{fill:#7b7c7d;}.cls-2{opacity:0.7;}.cls-3{fill:#30619b;}.cls-4{fill:#33629d;}.cls-5{fill:#fff;stroke:#2f609a;stroke-miterlimit:10;stroke-width:4px;}</style></defs><title>Mein_Auftragsdepot24_Logo</title><g id="Zahnrad" class="cls-1"><path class="cls-2" d="M720.89,252.52l31.33-7.59-.58-33.16-32.78-8.38c-6.12-24.75-9.93-29.25-9.93-29.25l14.93-26.43L701.11,125,673.49,141c-7-5.94-28.25-11.32-28.25-11.32l-7.69-31.18H605l-7.94,30.43a93.91,93.91,0,0,0-28.44,11.69l-28.75-15.25-21.25,23.5,15.82,27.5a78.22,78.22,0,0,0-11.32,28.75L491.61,212v33.18l31.63,8.13c1.12,9.44,10.87,28.69,10.87,28.69l-15.62,27.12,23.19,23.19,27.75-16a87.16,87.16,0,0,0,27.18,9.5l9.5,32.44h31.75L645.05,326s16.81-2.19,28.69-10.5l27.44,16.87,23.68-24.06L708.43,280C718.39,267.64,720.89,252.52,720.89,252.52Zm-99,67.29a91.7,91.7,0,1,1,91.7-91.7A91.7,91.7,0,0,1,621.92,319.81Z" transform="translate(-83.2 -98.46)"/><path class="cls-2" d="M486.76,359.65l25.5,4.28,10-24.66-21.55-16.5c3.28-20.19,1.88-24.71,1.88-24.71L522,283.26l-9.64-23.9-25.4,3.06c-3.3-6.59-17.28-17.25-17.28-17.25l4.15-25.43-24-10.25-15.44,20a75.27,75.27,0,0,0-24.66-.34l-16.41-20.3-23.08,10.65,3,25.26a62.62,62.62,0,0,0-17.4,17.65l-25.41-4.84L319.92,282l20.77,16c-2.14,7.31-1,24.59-1,24.59l-20.07,15.09,9.81,24.41L354.93,359A69.78,69.78,0,0,0,372,374.56l-3.21,26.93,23.43,10L407.66,390s13.09,3.68,24.47,1.29l14.93,21.09,25.06-10.29L468.92,376C480.15,370,486.76,359.65,486.76,359.65Zm-94.21,18.48a73.56,73.56,0,1,1,96.53-38.78A73.55,73.55,0,0,1,392.55,378.13Z" transform="translate(-83.2 -98.46)"/></g><g id="Aufrags_Depot_24" data-name="Aufrags Depot 24"><path class="cls-3" d="M205.59,232.75H181.73l-6.21,16.15H163.17l25.14-63.35h10.6l25.15,63.35H211.79Zm-12-32q-3.31,9.94-5.92,16.62l-2.17,5.64h16.38l-2.17-5.64q-2.58-6.74-5.93-16.62Z" transform="translate(-83.2 -98.46)"/><path class="cls-3" d="M251.9,250.08a24.92,24.92,0,0,1-11.46-2.34,16.49,16.49,0,0,1-6.87-6.32,16.89,16.89,0,0,1-1.82-4.69,25,25,0,0,1-.59-5.68V203h11.22v26.84a21,21,0,0,0,.33,4,10,10,0,0,0,1,2.92,7.15,7.15,0,0,0,3.22,3.1,11.16,11.16,0,0,0,5,1,10.92,10.92,0,0,0,5.18-1.14,7.23,7.23,0,0,0,3.24-3.46,14.3,14.3,0,0,0,1.09-6.2V203h11.23v28a20.64,20.64,0,0,1-1.95,9.42,15.55,15.55,0,0,1-2.81,3.95,16.36,16.36,0,0,1-4.07,3,21.23,21.23,0,0,1-5.31,1.94A29.08,29.08,0,0,1,251.9,250.08Z" transform="translate(-83.2 -98.46)"/><path class="cls-3" d="M313.21,189.43a37.75,37.75,0,0,0-3.81-.78,23.51,23.51,0,0,0-3.72-.31,11.48,11.48,0,0,0-3.36.45,5.8,5.8,0,0,0-2.48,1.49,6.65,6.65,0,0,0-1.54,2.7,13.44,13.44,0,0,0-.52,4v6h12.73v9.23H297.78V248.9H286.56V212.25h-7.77V203h7.77v-5.45a23,23,0,0,1,1.35-8.31,14.65,14.65,0,0,1,9.44-9,22.82,22.82,0,0,1,7.1-1.07,27.57,27.57,0,0,1,4.71.41,26.28,26.28,0,0,1,4,1Z" transform="translate(-83.2 -98.46)"/><path class="cls-3" d="M344.32,248.85a27.93,27.93,0,0,1-4.52.9,39.51,39.51,0,0,1-4.9.33,20.77,20.77,0,0,1-9.45-1.87,10.76,10.76,0,0,1-5.18-5.37,17.44,17.44,0,0,1-1.09-6.82V212.25h-8.57V203h8.57V190.19H330.4V203h13.26v9.23H330.4v22.3a7.49,7.49,0,0,0,.81,3.93q1.41,2.18,5.63,2.18a23.83,23.83,0,0,0,3.86-.31,31.15,31.15,0,0,0,3.62-.78Z" transform="translate(-83.2 -98.46)"/><path class="cls-3" d="M380.35,211.92h-.94a24.51,24.51,0,0,0-9.07,1.54,12.52,12.52,0,0,0-6,4.71V248.9H353.08V203h9.28l1,6.39h.19a14.57,14.57,0,0,1,5.47-5.52,16.45,16.45,0,0,1,8.36-2,19.1,19.1,0,0,1,2.93.19Z" transform="translate(-83.2 -98.46)"/><path class="cls-3" d="M414,244h-.19a22.57,22.57,0,0,1-2.27,2,22,22,0,0,1-3,2,17.61,17.61,0,0,1-3.79,1.49,17,17,0,0,1-4.5.57,18,18,0,0,1-6.11-1,13.41,13.41,0,0,1-8.07-7.57,15.45,15.45,0,0,1-1.16-6.09,15.71,15.71,0,0,1,1.35-6.63,14.21,14.21,0,0,1,3.76-5,16.79,16.79,0,0,1,5.78-3.1,24.52,24.52,0,0,1,7.43-1.06,36.08,36.08,0,0,1,5.5.38,39.5,39.5,0,0,1,4.4.89v-1.84a9,9,0,0,0-.54-3.1,6.92,6.92,0,0,0-1.76-2.65,8.52,8.52,0,0,0-3.14-1.85,14.29,14.29,0,0,0-4.74-.69,31.75,31.75,0,0,0-6.82.76,52.83,52.83,0,0,0-7.38,2.27v-8.76a37.09,37.09,0,0,1,7.33-2.32,42.86,42.86,0,0,1,8.15-.85,28.33,28.33,0,0,1,8.78,1.23,18.39,18.39,0,0,1,6.3,3.39,13.63,13.63,0,0,1,3.79,5.09,16.18,16.18,0,0,1,1.25,6.39v17.28c0,3,0,5.64.1,7.81s.12,4.12.19,5.83H414.44Zm-.9-14.68c-1.07-.25-2.3-.48-3.69-.68a28.24,28.24,0,0,0-4.22-.31,11.41,11.41,0,0,0-6.51,1.63,5.65,5.65,0,0,0-2.39,5,6.23,6.23,0,0,0,.55,2.72,5.51,5.51,0,0,0,1.46,1.92,6.36,6.36,0,0,0,2.16,1.13,8.56,8.56,0,0,0,2.6.38,11.24,11.24,0,0,0,3.22-.45,15.6,15.6,0,0,0,2.8-1.13,13.67,13.67,0,0,0,2.29-1.54,15.46,15.46,0,0,0,1.73-1.66Z" transform="translate(-83.2 -98.46)"/><path class="cls-3" d="M466.67,250.08c0-.63,0-1.41,0-2.34s.06-1.71.12-2.35h-.09a22.64,22.64,0,0,1-2.39,1.68,22.17,22.17,0,0,1-3,1.52,18.8,18.8,0,0,1-3.56,1.09,19.37,19.37,0,0,1-4,.4,20.16,20.16,0,0,1-7.13-1.3,16.5,16.5,0,0,1-6.18-4.12,20.82,20.82,0,0,1-4.35-7.22,30.08,30.08,0,0,1-1.66-10.61A32,32,0,0,1,436.2,216a23.46,23.46,0,0,1,4.47-7.79,18.57,18.57,0,0,1,13.88-6.3,15.35,15.35,0,0,1,7.48,1.78,16.43,16.43,0,0,1,5.35,4.52h.19L468,203h9.85v46.73a31.39,31.39,0,0,1-.66,6.91,18.61,18.61,0,0,1-1.94,5.12,17,17,0,0,1-3.86,4.54,21.33,21.33,0,0,1-5.35,3.22,30.91,30.91,0,0,1-6.61,1.92,43.19,43.19,0,0,1-7.62.64c-1.52,0-3-.06-4.45-.17s-2.82-.27-4.1-.47-2.44-.44-3.5-.71a24.33,24.33,0,0,1-2.68-.83v-9.14a41.35,41.35,0,0,0,6.56,1.59,46.5,46.5,0,0,0,7.22.54q7.53,0,11.65-2.91t4.12-8.83Zm-10-9a12,12,0,0,0,3.22-.42,15.14,15.14,0,0,0,2.79-1.09,13.73,13.73,0,0,0,2.3-1.47,13,13,0,0,0,1.73-1.61V216a14.91,14.91,0,0,0-4.45-3.55,12.15,12.15,0,0,0-5.64-1.47,10.35,10.35,0,0,0-2.2.26,8.67,8.67,0,0,0-2.34.92,10,10,0,0,0-2.25,1.78,10.56,10.56,0,0,0-1.87,2.82,18,18,0,0,0-1.3,4.07,27,27,0,0,0-.5,5.49,26.38,26.38,0,0,0,.66,6.18,13.94,13.94,0,0,0,2,4.64,8.86,8.86,0,0,0,3.29,2.93A9.77,9.77,0,0,0,456.63,241.13Z" transform="translate(-83.2 -98.46)"/><path class="cls-3" d="M510.51,235.59a3.48,3.48,0,0,0-.83-2.41,6.54,6.54,0,0,0-2.2-1.59,18.88,18.88,0,0,0-3.15-1.11c-1.18-.32-2.42-.63-3.71-.95a46.09,46.09,0,0,1-4.74-1.54,14.5,14.5,0,0,1-4-2.29,10.1,10.1,0,0,1-2.74-3.58,12.24,12.24,0,0,1-1-5.28,15.12,15.12,0,0,1,1.37-6.65,13.25,13.25,0,0,1,3.72-4.66,15.77,15.77,0,0,1,5.44-2.75,23.47,23.47,0,0,1,6.56-.9,43.06,43.06,0,0,1,7.91.69,41.33,41.33,0,0,1,6.67,1.77v9.14c-1-.35-2.13-.67-3.29-1s-2.32-.56-3.5-.78-2.36-.4-3.53-.55a27.88,27.88,0,0,0-3.31-.21,12.85,12.85,0,0,0-3.36.38,6.5,6.5,0,0,0-2.23,1,3.71,3.71,0,0,0-1.23,1.47,4.11,4.11,0,0,0-.38,1.72,3.86,3.86,0,0,0,.83,2.56,5.89,5.89,0,0,0,2.3,1.61,21.25,21.25,0,0,0,3.07,1l3.13.78c1.58.38,3.15.84,4.73,1.37a15,15,0,0,1,4.26,2.25,11.21,11.21,0,0,1,3.11,3.74,12.58,12.58,0,0,1,1.2,5.85,14.85,14.85,0,0,1-1.46,6.77,13.4,13.4,0,0,1-4.1,4.81,18,18,0,0,1-6.3,2.84,33.31,33.31,0,0,1-8.07.92,40.47,40.47,0,0,1-7.84-.69,26,26,0,0,1-5.75-1.72v-9a35.56,35.56,0,0,0,6.82,1.87,37.31,37.31,0,0,0,5.82.5,22.43,22.43,0,0,0,3.88-.31,10.83,10.83,0,0,0,3.11-1,5.85,5.85,0,0,0,2.06-1.68A4,4,0,0,0,510.51,235.59Z" transform="translate(-83.2 -98.46)"/><path class="cls-4" d="M353,353.47V290.12h16.76c1.49,0,3,.05,4.52.14s3,.24,4.48.43,2.86.42,4.21.69a28.61,28.61,0,0,1,3.74,1,32.25,32.25,0,0,1,8.95,4.35,26.76,26.76,0,0,1,6.51,6.49,28.17,28.17,0,0,1,4,8.36,35.47,35.47,0,0,1,1.35,10,38.72,38.72,0,0,1-1.14,9.59,28.48,28.48,0,0,1-3.45,8.17,26.17,26.17,0,0,1-5.85,6.51,30.33,30.33,0,0,1-8.36,4.61,44.1,44.1,0,0,1-9.14,2.27,78.26,78.26,0,0,1-11.5.76Zm16.38-9.7q10.18,0,15.91-2.8a17.09,17.09,0,0,0,7.67-7.29q2.61-4.79,2.61-12.22a27,27,0,0,0-.85-7,19.07,19.07,0,0,0-2.47-5.57,17.1,17.1,0,0,0-3.9-4.19,21.35,21.35,0,0,0-5.19-2.88,27.37,27.37,0,0,0-6-1.52,53.81,53.81,0,0,0-7.43-.47h-5.12v43.94Z" transform="translate(-83.2 -98.46)"/><path class="cls-4" d="M442,345.61a37.24,37.24,0,0,0,6.81-.66,52.48,52.48,0,0,0,7.2-1.89V352a32.5,32.5,0,0,1-6.67,1.8,49.89,49.89,0,0,1-9.33.86,33.36,33.36,0,0,1-9.26-1.26,20,20,0,0,1-7.65-4,19.52,19.52,0,0,1-5.18-7.24,27.24,27.24,0,0,1-1.92-10.8,30.39,30.39,0,0,1,1.8-10.93,22.23,22.23,0,0,1,4.83-7.77,19.92,19.92,0,0,1,6.94-4.62,21.91,21.91,0,0,1,8.07-1.53,23.61,23.61,0,0,1,8,1.32A16.14,16.14,0,0,1,452,312a19.57,19.57,0,0,1,4.17,7.31,33.74,33.74,0,0,1,1.49,10.59c0,1.57-.08,2.92-.14,4H427.46a13.75,13.75,0,0,0,1.42,5.42,10.43,10.43,0,0,0,3.1,3.65,12.67,12.67,0,0,0,4.48,2A22.58,22.58,0,0,0,442,345.61Zm-4.5-30.4a8.62,8.62,0,0,0-6.65,2.92,10.24,10.24,0,0,0-1.92,3.15,15.35,15.35,0,0,0-.95,3.83h18a13.23,13.23,0,0,0-.54-3.83,9.57,9.57,0,0,0-1.61-3.15,7.66,7.66,0,0,0-2.65-2.13A8.35,8.35,0,0,0,437.5,315.21Z" transform="translate(-83.2 -98.46)"/><path class="cls-4" d="M491.05,354.66a16.17,16.17,0,0,1-6.7-1.35,16.69,16.69,0,0,1-5-3.34h-.18q0,.94.09,2.67c0,1.16.05,2.41.05,3.77v19.08H468.09v-67.9h9.84l.48,5.16h.19a16.55,16.55,0,0,1,5.35-4.52,15.65,15.65,0,0,1,7.57-1.77,20.36,20.36,0,0,1,7.37,1.39,17.65,17.65,0,0,1,6.41,4.29,21.14,21.14,0,0,1,4.48,7.29,29.3,29.3,0,0,1,1.68,10.46,30.71,30.71,0,0,1-1.8,11.06,22.84,22.84,0,0,1-4.74,7.72,19,19,0,0,1-13.87,6Zm-1.47-39.21A12.07,12.07,0,0,0,484,316.9a15.79,15.79,0,0,0-4.69,3.76v20.45a13.25,13.25,0,0,0,1.7,1.61,13.89,13.89,0,0,0,2.23,1.47,13.55,13.55,0,0,0,2.72,1.09,11,11,0,0,0,3.1.43,9.31,9.31,0,0,0,8-4.26,15.83,15.83,0,0,0,2.06-4.86,28.44,28.44,0,0,0,0-12.76,13.71,13.71,0,0,0-2.08-4.64,9,9,0,0,0-3.24-2.79A9.35,9.35,0,0,0,489.58,315.45Z" transform="translate(-83.2 -98.46)"/><path class="cls-4" d="M565.15,330.56a28.81,28.81,0,0,1-1.61,9.84,21.54,21.54,0,0,1-4.62,7.63,20.44,20.44,0,0,1-7.26,4.9,25.22,25.22,0,0,1-9.52,1.73,25.69,25.69,0,0,1-9.68-1.73,20.22,20.22,0,0,1-7.27-4.9,21.58,21.58,0,0,1-4.57-7.63,31.09,31.09,0,0,1,0-19.69,21.54,21.54,0,0,1,4.62-7.63,20.61,20.61,0,0,1,7.27-4.9,25.13,25.13,0,0,1,9.51-1.72,25.79,25.79,0,0,1,9.69,1.72,20.3,20.3,0,0,1,7.26,4.9,21.58,21.58,0,0,1,4.57,7.63A29.08,29.08,0,0,1,565.15,330.56Zm-11.6,0a22.38,22.38,0,0,0-.85-6.44,13.87,13.87,0,0,0-2.37-4.69,9.66,9.66,0,0,0-3.65-2.84,11.29,11.29,0,0,0-4.64-.95,11.07,11.07,0,0,0-4.57.95,9.72,9.72,0,0,0-3.62,2.84,13.87,13.87,0,0,0-2.37,4.69,24.82,24.82,0,0,0,0,12.88,13.41,13.41,0,0,0,2.4,4.66,10.18,10.18,0,0,0,3.64,2.84,10.87,10.87,0,0,0,4.62,1,10.7,10.7,0,0,0,4.59-1,10.05,10.05,0,0,0,3.6-2.84A13.72,13.72,0,0,0,552.7,337,22.43,22.43,0,0,0,553.55,330.56Z" transform="translate(-83.2 -98.46)"/><path class="cls-4" d="M603.12,353.42a27.93,27.93,0,0,1-4.52.9,39.49,39.49,0,0,1-4.9.34,20.91,20.91,0,0,1-9.45-1.87,10.74,10.74,0,0,1-5.18-5.38,17.37,17.37,0,0,1-1.09-6.82V316.83h-8.57v-9.24H578V294.76H589.2v12.83h13.26v9.24H589.2v22.3a7.53,7.53,0,0,0,.81,3.93q1.41,2.18,5.63,2.17a24.9,24.9,0,0,0,3.86-.3,32.82,32.82,0,0,0,3.62-.79Z" transform="translate(-83.2 -98.46)"/><path class="cls-5" d="M572.81,238.85c12.93-13.09,21-23.68,21-34.43,0-8.41-6.23-15.11-15.42-15.11-9.35,0-15.89,7.63-16.36,19.16H541.34c1.09-24.77,16.82-38.8,38.33-38.8,21.81,0,35.05,16.36,35.05,33.5,0,16.21-10,31.16-26.33,48.3l-12.46,13.09h39.73v19.79H538.22V274.06Z" transform="translate(-83.2 -98.46)"/><path class="cls-5" d="M673.78,169.67H695v72h10v19.78H695v22.91H674.24V261.44H625.32V241.66Zm.46,72V204.11l-25.71,37.55Z" transform="translate(-83.2 -98.46)"/></g><g id="Ebene_7" data-name="Ebene 7"><path class="cls-6" d="M96.79,159.47s-2.58,5.82-5.32,7.1S87,168,84.64,164.44s-1.12-12.73-1.12-12.73,1-9,12.85-17.77c.33-.24,3.2-2.37,3.55-2.57,5.71-3.32,5.54-3.48,10.75-3.75,2.73-.14,5,2.56,5.38,5.27a18.58,18.58,0,0,1,.08,3.08c0,.41-.28,2.62-.34,3-.64,4.65-3.94,16,5.47-.3,0,0,5.11-9.88,10.48-12.07a4.52,4.52,0,0,1,5.89,2.57,14.69,14.69,0,0,1,.83,3.7c0,.18,0,.36,0,.55.1,1.68.89,11.65,3.9-.34,3.29-13,9.76-16.62,9.76-16.62s7.72-4.44,10.34,7.74,2.41,18.29,2.41,18.29.42,30.48-1.7,32.24-9.39,6.62-10,2.86c-.54-3.4,1.94-31.68,2.4-36.92.05-.57.08-1.13.09-1.69l.12-9.83a8.87,8.87,0,0,0-.42-2.94c-.75-2.25-2.65-4.8-7.15,1.83-6.56,9.65-9.51,35.28-9.51,35.28s-1.38,17.52-4.52,18.42a14.1,14.1,0,0,1-5.53.07,2.5,2.5,0,0,1-2.09-3L133.55,144a22.86,22.86,0,0,0,.33-7c-.56-4.8-2.73-9.68-10.84,5.8,0,0-7.41,15.06-10,41.83,0,0,0,4.58-6.3,7.71-3,1.49-4.87,1.64-6,1.4a1.79,1.79,0,0,1-1.35-2.14c.39-1.88,1.32-6,2.81-11.21,1.71-5.94,7.26-40.32,7.71-44.28a2.44,2.44,0,0,0-.14-1.2c-.46-1.12-2.1-2.43-7.85,2.51a69.15,69.15,0,0,0-8.6,8.67,11.69,11.69,0,0,0-2.68,8.12C90.81,157.09,92.12,160,96.79,159.47Z" transform="translate(-83.2 -98.46)"/><path class="cls-6" d="M227.37,142.88c-1.84-1.28-1.15-4.38-.55-6.18a12.17,12.17,0,0,0,.62-4.32c-.12-2.69-.93-6-4.42-4.61-4.51,1.82-7,8.83-7.77,11.43-.2.66-.45,1.3-.71,1.94-1.28,3-1.68,5.78-2.29-.18-.69-6.86-1-9.26-3.7-11.79-1-.88-5.67,3.79-7.18,5.28a.78.78,0,0,0-.06,1.05l2.72,3.4a2.07,2.07,0,0,1,.36,1.89c-.88,2.93-3.48,11-5.27,10.86-2.18-.19-3.15-14.4-3.15-14.4s-.2-2.95-3.78-.62l-4.69,3.06h0s-.62,1.25,1.54,1.94c1.62.51,1.28,3.5,1,5q-.15.79-.27,1.59c-.33,2.06-1.64,7.62-6.34,9.23,0,0-5.25,2.58-6.25.92a1,1,0,0,1,.34-1.3c2-1.37,9.25-6.9,6.44-13.77a5.22,5.22,0,0,0-7.69-2.47c-2.29,1.55-5.18,5-6.07,12.13-1.94,15.66,8.29,15.79,8.29,15.79s8,.13,10.57-10.47a.29.29,0,0,1,.55,0c.83,2.08,3.21,6.82,7.08,5.52,4.43-1.49,8.05-16,8.73-18.88a.22.22,0,0,1,.41,0,11.92,11.92,0,0,1,.71,3.08c.75,5.14-2,12.8.43,12.89,1.81.06,3.19.09,4.19.11a2.5,2.5,0,0,0,2.52-2.17c.25-2,1.18-5.3,2.06-12.43a16.17,16.17,0,0,1,2.12-6.43,1.86,1.86,0,0,1,3.39,1,27.78,27.78,0,0,1-.6,5.45c-.87,4.75.87,7.65,2.11,9a2.92,2.92,0,0,0,3.57.65,8.47,8.47,0,0,0,3.29-4.09c2.62-5.65,5-9.44,3.52-16.2,0,0,0,0,0,0C233,136.16,230,144.68,227.37,142.88Zm-52.71,12.44c-.48-2-1.38-7.65,3.43-8.84a2.25,2.25,0,0,1,2.06.47c1,1,1.47,3.25-4.75,8.6A.45.45,0,0,1,174.66,155.32Z" transform="translate(-83.2 -98.46)"/><path class="cls-6" d="M189.78,125.36c-.79,3,0,7,3.18,6.88,2.79-.09,5.31-2.71,6.42-7.29.72-3-.2-6.4-3.46-6.21S190.94,121,189.78,125.36Z" transform="translate(-83.2 -98.46)"/></g></svg>